  0
SECTION
  2
HEADER
  9
$ACADVER
  1
AC1018
  9
$ACADMAINTVER
 70
   104
  9
$DWGCODEPAGE
  3
ANSI_1252
  9
$LASTSAVEDBY
  1
fer
  9
$INSBASE
 10
0.0
 20
0.0
 30
0.0
  9
$EXTMIN
 10
3569.059528115454
 20
7456.402000517162
 30
0.0
  9
$EXTMAX
 10
3650.634428900153
 20
7531.072442614753
 30
0.0
  9
$LIMMIN
 10
0.0
 20
0.0
  9
$LIMMAX
 10
420.0
 20
297.0
  9
$ORTHOMODE
 70
     0
  9
$REGENMODE
 70
     1
  9
$FILLMODE
 70
     1
  9
$QTEXTMODE
 70
     0
  9
$MIRRTEXT
 70
     0
  9
$LTSCALE
 40
1.0
  9
$ATTMODE
 70
     1
  9
$TEXTSIZE
 40
2.5
  9
$TRACEWID
 40
1.0
  9
$TEXTSTYLE
  7
Standard
  9
$CLAYER
  8
0
  9
$CELTYPE
  6
ByLayer
  9
$CECOLOR
 62
   256
  9
$CELTSCALE
 40
1.0
  9
$DISPSILH
 70
     0
  9
$DIMSCALE
 40
1.0
  9
$DIMASZ
 40
2.5
  9
$DIMEXO
 40
0.625
  9
$DIMDLI
 40
3.75
  9
$DIMRND
 40
0.0
  9
$DIMDLE
 40
0.0
  9
$DIMEXE
 40
1.25
  9
$DIMTP
 40
0.0
  9
$DIMTM
 40
0.0
  9
$DIMTXT
 40
2.5
  9
$DIMCEN
 40
2.5
  9
$DIMTSZ
 40
0.0
  9
$DIMTOL
 70
     0
  9
$DIMLIM
 70
     0
  9
$DIMTIH
 70
     0
  9
$DIMTOH
 70
     0
  9
$DIMSE1
 70
     0
  9
$DIMSE2
 70
     0
  9
$DIMTAD
 70
     1
  9
$DIMZIN
 70
     8
  9
$DIMBLK
  1

  9
$DIMASO
 70
     1
  9
$DIMSHO
 70
     1
  9
$DIMPOST
  1

  9
$DIMAPOST
  1

  9
$DIMALT
 70
     0
  9
$DIMALTD
 70
     3
  9
$DIMALTF
 40
0.03937007874016
  9
$DIMLFAC
 40
1.0
  9
$DIMTOFL
 70
     1
  9
$DIMTVP
 40
0.0
  9
$DIMTIX
 70
     0
  9
$DIMSOXD
 70
     0
  9
$DIMSAH
 70
     0
  9
$DIMBLK1
  1

  9
$DIMBLK2
  1

  9
$DIMSTYLE
  2
ISO-25
  9
$DIMCLRD
 70
     0
  9
$DIMCLRE
 70
     0
  9
$DIMCLRT
 70
     0
  9
$DIMTFAC
 40
1.0
  9
$DIMGAP
 40
0.625
  9
$DIMJUST
 70
     0
  9
$DIMSD1
 70
     0
  9
$DIMSD2
 70
     0
  9
$DIMTOLJ
 70
     0
  9
$DIMTZIN
 70
     8
  9
$DIMALTZ
 70
     0
  9
$DIMALTTZ
 70
     0
  9
$DIMUPT
 70
     0
  9
$DIMDEC
 70
     2
  9
$DIMTDEC
 70
     2
  9
$DIMALTU
 70
     2
  9
$DIMALTTD
 70
     3
  9
$DIMTXSTY
  7
Standard
  9
$DIMAUNIT
 70
     0
  9
$DIMADEC
 70
     0
  9
$DIMALTRND
 40
0.0
  9
$DIMAZIN
 70
     0
  9
$DIMDSEP
 70
    44
  9
$DIMATFIT
 70
     3
  9
$DIMFRAC
 70
     0
  9
$DIMLDRBLK
  1

  9
$DIMLUNIT
 70
     2
  9
$DIMLWD
 70
    -2
  9
$DIMLWE
 70
    -2
  9
$DIMTMOVE
 70
     0
  9
$LUNITS
 70
     2
  9
$LUPREC
 70
     4
  9
$SKETCHINC
 40
1.0
  9
$FILLETRAD
 40
0.0
  9
$AUNITS
 70
     0
  9
$AUPREC
 70
     0
  9
$MENU
  1
.
  9
$ELEVATION
 40
0.0
  9
$PELEVATION
 40
0.0
  9
$THICKNESS
 40
0.0
  9
$LIMCHECK
 70
     0
  9
$CHAMFERA
 40
0.0
  9
$CHAMFERB
 40
0.0
  9
$CHAMFERC
 40
0.0
  9
$CHAMFERD
 40
0.0
  9
$SKPOLY
 70
     0
  9
$TDCREATE
 40
2455655.832008391
  9
$TDUCREATE
 40
2455655.957008391
  9
$TDUPDATE
 40
2455655.832526077
  9
$TDUUPDATE
 40
2455655.957526077
  9
$TDINDWG
 40
0.0005201042
  9
$TDUSRTIMER
 40
0.0005200463
  9
$USRTIMER
 70
     1
  9
$ANGBASE
 50
0.0
  9
$ANGDIR
 70
     0
  9
$PDMODE
 70
     0
  9
$PDSIZE
 40
0.0
  9
$PLINEWID
 40
0.0
  9
$SPLFRAME
 70
     0
  9
$SPLINETYPE
 70
     6
  9
$SPLINESEGS
 70
     8
  9
$HANDSEED
  5
88C
  9
$SURFTAB1
 70
     6
  9
$SURFTAB2
 70
     6
  9
$SURFTYPE
 70
     6
  9
$SURFU
 70
     6
  9
$SURFV
 70
     6
  9
$UCSBASE
  2

  9
$UCSNAME
  2

  9
$UCSORG
 10
0.0
 20
0.0
 30
0.0
  9
$UCSXDIR
 10
1.0
 20
0.0
 30
0.0
  9
$UCSYDIR
 10
0.0
 20
1.0
 30
0.0
  9
$UCSORTHOREF
  2

  9
$UCSORTHOVIEW
 70
     0
  9
$UCSORGTOP
 10
0.0
 20
0.0
 30
0.0
  9
$UCSORGBOTTOM
 10
0.0
 20
0.0
 30
0.0
  9
$UCSORGLEFT
 10
0.0
 20
0.0
 30
0.0
  9
$UCSORGRIGHT
 10
0.0
 20
0.0
 30
0.0
  9
$UCSORGFRONT
 10
0.0
 20
0.0
 30
0.0
  9
$UCSORGBACK
 10
0.0
 20
0.0
 30
0.0
  9
$PUCSBASE
  2

  9
$PUCSNAME
  2

  9
$PUCSORG
 10
0.0
 20
0.0
 30
0.0
  9
$PUCSXDIR
 10
1.0
 20
0.0
 30
0.0
  9
$PUCSYDIR
 10
0.0
 20
1.0
 30
0.0
  9
$PUCSORTHOREF
  2

  9
$PUCSORTHOVIEW
 70
     0
  9
$PUCSORGTOP
 10
0.0
 20
0.0
 30
0.0
  9
$PUCSORGBOTTOM
 10
0.0
 20
0.0
 30
0.0
  9
$PUCSORGLEFT
 10
0.0
 20
0.0
 30
0.0
  9
$PUCSORGRIGHT
 10
0.0
 20
0.0
 30
0.0
  9
$PUCSORGFRONT
 10
0.0
 20
0.0
 30
0.0
  9
$PUCSORGBACK
 10
0.0
 20
0.0
 30
0.0
  9
$USERI1
 70
     0
  9
$USERI2
 70
     0
  9
$USERI3
 70
     0
  9
$USERI4
 70
     0
  9
$USERI5
 70
     0
  9
$USERR1
 40
0.0
  9
$USERR2
 40
0.0
  9
$USERR3
 40
0.0
  9
$USERR4
 40
0.0
  9
$USERR5
 40
0.0
  9
$WORLDVIEW
 70
     1
  9
$SHADEDGE
 70
     3
  9
$SHADEDIF
 70
    70
  9
$TILEMODE
 70
     1
  9
$MAXACTVP
 70
    64
  9
$PINSBASE
 10
0.0
 20
0.0
 30
0.0
  9
$PLIMCHECK
 70
     0
  9
$PEXTMIN
 10
0.0
 20
0.0
 30
0.0
  9
$PEXTMAX
 10
0.0
 20
0.0
 30
0.0
  9
$PLIMMIN
 10
0.0
 20
0.0
  9
$PLIMMAX
 10
12.0
 20
9.0
  9
$UNITMODE
 70
     0
  9
$VISRETAIN
 70
     1
  9
$PLINEGEN
 70
     0
  9
$PSLTSCALE
 70
     1
  9
$TREEDEPTH
 70
  3020
  9
$CMLSTYLE
  2
Standard
  9
$CMLJUST
 70
     0
  9
$CMLSCALE
 40
20.0
  9
$PROXYGRAPHICS
 70
     1
  9
$MEASUREMENT
 70
     1
  9
$CELWEIGHT
370
    -1
  9
$ENDCAPS
280
     0
  9
$JOINSTYLE
280
     0
  9
$LWDISPLAY
290
     0
  9
$INSUNITS
 70
     4
  9
$HYPERLINKBASE
  1

  9
$STYLESHEET
  1

  9
$XEDIT
290
     1
  9
$CEPSNTYPE
380
     0
  9
$PSTYLEMODE
290
     1
  9
$FINGERPRINTGUID
  2
{9F16B301-9FFE-4FB6-83C1-A7B9020743A8}
  9
$VERSIONGUID
  2
{FB6075DD-D5BE-4EB6-961A-D4011F488486}
  9
$EXTNAMES
290
     1
  9
$PSVPSCALE
 40
0.0
  9
$OLESTARTUP
290
     0
  9
$SORTENTS
280
   127
  9
$INDEXCTL
280
     0
  9
$HIDETEXT
280
     1
  9
$XCLIPFRAME
290
     0
  9
$HALOGAP
280
     0
  9
$OBSCOLOR
 70
   257
  9
$OBSLTYPE
280
     0
  9
$INTERSECTIONDISPLAY
280
     0
  9
$INTERSECTIONCOLOR
 70
   257
  9
$DIMASSOC
280
     2
  9
$PROJECTNAME
  1

  0
ENDSEC
  0
SECTION
  2
CLASSES
  0
CLASS
  1
ACDBDICTIONARYWDFLT
  2
AcDbDictionaryWithDefault
  3
ObjectDBX Classes
 90
        0
 91
        1
280
     0
281
     0
  0
CLASS
  1
DICTIONARYVAR
  2
AcDbDictionaryVar
  3
ObjectDBX Classes
 90
        0
 91
       11
280
     0
281
     0
  0
CLASS
  1
TABLESTYLE
  2
AcDbTableStyle
  3
ObjectDBX Classes
 90
     4095
 91
        1
280
     0
281
     0
  0
CLASS
  1
MATERIAL
  2
AcDbMaterial
  3
ObjectDBX Classes
 90
     1153
 91
        3
280
     0
281
     0
  0
CLASS
  1
VISUALSTYLE
  2
AcDbVisualStyle
  3
ObjectDBX Classes
 90
     4095
 91
       16
280
     0
281
     0
  0
CLASS
  1
SCALE
  2
AcDbScale
  3
ObjectDBX Classes
 90
     1153
 91
       17
280
     0
281
     0
  0
CLASS
  1
MLEADERSTYLE
  2
AcDbMLeaderStyle
  3
ACDB_MLEADERSTYLE_CLASS
 90
     4095
 91
        2
280
     0
281
     0
  0
CLASS
  1
CELLSTYLEMAP
  2
AcDbCellStyleMap
  3
ObjectDBX Classes
 90
     1152
 91
        2
280
     0
281
     0
  0
CLASS
  1
EXACXREFPANELOBJECT
  2
ExAcXREFPanelObject
  3
EXAC_ESW
 90
     1025
 91
        0
280
     0
281
     0
  0
CLASS
  1
NPOCOLLECTION
  2
AcDbImpNonPersistentObjectsCollection
  3
ObjectDBX Classes
 90
     1153
 91
        0
280
     0
281
     0
  0
CLASS
  1
LAYER_INDEX
  2
AcDbLayerIndex
  3
ObjectDBX Classes
 90
        0
 91
        0
280
     0
281
     0
  0
CLASS
  1
SPATIAL_INDEX
  2
AcDbSpatialIndex
  3
ObjectDBX Classes
 90
        0
 91
        0
280
     0
281
     0
  0
CLASS
  1
IDBUFFER
  2
AcDbIdBuffer
  3
ObjectDBX Classes
 90
        0
 91
        0
280
     0
281
     0
  0
ENDSEC
  0
SECTION
  2
TABLES
  0
TABLE
  2
VPORT
  5
8
330
0
100
AcDbSymbolTable
 70
     1
  0
VPORT
  5
EA
330
8
100
AcDbSymbolTableRecord
100
AcDbViewportTableRecord
  2
*Active
 70
     0
 10
0.0
 20
0.0
 11
1.0
 21
1.0
 12
3609.846978507803
 22
7493.737221565957
 13
0.0
 23
0.0
 14
10.0
 24
10.0
 15
10.0
 25
10.0
 16
0.0
 26
0.0
 36
1.0
 17
0.0
 27
0.0
 37
0.0
 40
75.60382262381245
 41
2.010438413361169
 42
50.0
 43
0.0
 44
0.0
 50
0.0
 51
0.0
 71
     0
 72
  1000
 73
     1
 74
     3
 75
     0
 76
     0
 77
     0
 78
     0
281
     0
 65
     1
110
0.0
120
0.0
130
0.0
111
1.0
121
0.0
131
0.0
112
0.0
122
1.0
132
0.0
 79
     0
146
0.0
  0
ENDTAB
  0
TABLE
  2
LTYPE
  5
5
330
0
100
AcDbSymbolTable
 70
     1
  0
LTYPE
  5
14
330
5
100
AcDbSymbolTableRecord
100
AcDbLinetypeTableRecord
  2
ByBlock
 70
     0
  3

 72
    65
 73
     0
 40
0.0
  0
LTYPE
  5
15
330
5
100
AcDbSymbolTableRecord
100
AcDbLinetypeTableRecord
  2
ByLayer
 70
     0
  3

 72
    65
 73
     0
 40
0.0
  0
LTYPE
  5
16
330
5
100
AcDbSymbolTableRecord
100
AcDbLinetypeTableRecord
  2
Continuous
 70
     0
  3
Solid line
 72
    65
 73
     0
 40
0.0
  0
ENDTAB
  0
TABLE
  2
LAYER
  5
2
330
0
100
AcDbSymbolTable
 70
     2
  0
LAYER
  5
10
102
{ACAD_XDICTIONARY
360
13C
102
}
330
2
100
AcDbSymbolTableRecord
100
AcDbLayerTableRecord
  2
0
 70
     0
 62
     7
  6
Continuous
370
    -3
390
F
  0
LAYER
  5
1E5
330
2
100
AcDbSymbolTableRecord
100
AcDbLayerTableRecord
  2
Cuenca
 70
     0
 62
     2
  6
Continuous
370
    -3
390
F
1001
AcAecLayerStandard
1000

1000

  0
ENDTAB
  0
TABLE
  2
STYLE
  5
3
330
0
100
AcDbSymbolTable
 70
     2
  0
STYLE
  5
11
330
3
100
AcDbSymbolTableRecord
100
AcDbTextStyleTableRecord
  2
Standard
 70
     0
 40
0.0
 41
1.0
 50
0.0
 71
     0
 42
2.5
  3
ARIAL.TTF
  4

1001
ACAD
1000
Arial
1071
       34
  0
STYLE
  5
132
330
3
100
AcDbSymbolTableRecord
100
AcDbTextStyleTableRecord
  2
Anotativo
 70
     0
 40
0.0
 41
1.0
 50
0.0
 71
     0
 42
2.5
  3
ARIAL.TTF
  4

1001
AcadAnnotative
1000
AnnotativeData
1002
{
1070
     1
1070
     1
1002
}
1001
ACAD
1000
Arial
1071
       34
  0
ENDTAB
  0
TABLE
  2
VIEW
  5
6
330
0
100
AcDbSymbolTable
 70
     0
  0
ENDTAB
  0
TABLE
  2
UCS
  5
7
330
0
100
AcDbSymbolTable
 70
     0
  0
ENDTAB
  0
TABLE
  2
APPID
  5
9
330
0
100
AcDbSymbolTable
 70
     8
  0
APPID
  5
12
330
9
100
AcDbSymbolTableRecord
100
AcDbRegAppTableRecord
  2
ACAD
 70
     0
  0
APPID
  5
9E
330
9
100
AcDbSymbolTableRecord
100
AcDbRegAppTableRecord
  2
ACAD_PSEXT
 70
     0
  0
APPID
  5
133
330
9
100
AcDbSymbolTableRecord
100
AcDbRegAppTableRecord
  2
AcadAnnoPO
 70
     0
  0
APPID
  5
134
330
9
100
AcDbSymbolTableRecord
100
AcDbRegAppTableRecord
  2
AcadAnnotative
 70
     0
  0
APPID
  5
135
330
9
100
AcDbSymbolTableRecord
100
AcDbRegAppTableRecord
  2
ACAD_DSTYLE_DIMJAG
 70
     0
  0
APPID
  5
136
330
9
100
AcDbSymbolTableRecord
100
AcDbRegAppTableRecord
  2
ACAD_DSTYLE_DIMTALN
 70
     0
  0
APPID
  5
165
330
9
100
AcDbSymbolTableRecord
100
AcDbRegAppTableRecord
  2
ACAD_MLEADERVER
 70
     0
  0
APPID
  5
1E6
330
9
100
AcDbSymbolTableRecord
100
AcDbRegAppTableRecord
  2
AcAecLayerStandard
 70
     0
  0
ENDTAB
  0
TABLE
  2
DIMSTYLE
  5
A
330
0
100
AcDbSymbolTable
 70
     3
100
AcDbDimStyleTable
 71
     2
340
27
340
137
  0
DIMSTYLE
105
1B0
330
A
100
AcDbSymbolTableRecord
100
AcDbDimStyleTableRecord
  2
Standard
 70
     0
340
11
  0
DIMSTYLE
105
137
330
A
100
AcDbSymbolTableRecord
100
AcDbDimStyleTableRecord
  2
Anotativo
 70
     0
 40
0.0
 41
2.5
 42
0.625
 43
3.75
 44
1.25
 73
     0
 74
     0
 77
     1
 78
     8
140
2.5
141
2.5
143
0.03937007874016
147
0.625
171
     3
172
     1
271
     2
272
     2
274
     3
278
    44
283
     0
284
     8
340
11
1001
AcadAnnotative
1000
AnnotativeData
1002
{
1070
     1
1070
     1
1002
}
1001
ACAD_DSTYLE_DIMJAG
1070
   388
1040
1.5
1001
ACAD_DSTYLE_DIMTALN
1070
   392
1070
     0
  0
DIMSTYLE
105
27
330
A
100
AcDbSymbolTableRecord
100
AcDbDimStyleTableRecord
  2
ISO-25
 70
     0
 41
2.5
 42
0.625
 43
3.75
 44
1.25
 73
     0
 74
     0
 77
     1
 78
     8
140
2.5
141
2.5
143
0.03937007874016
147
0.625
171
     3
172
     1
271
     2
272
     2
274
     3
278
    44
283
     0
284
     8
340
11
  0
ENDTAB
  0
TABLE
  2
BLOCK_RECORD
  5
1
330
0
100
AcDbSymbolTable
 70
     3
  0
BLOCK_RECORD
  5
1F
102
{ACAD_XDICTIONARY
360
1CE
102
}
330
1
100
AcDbSymbolTableRecord
100
AcDbBlockTableRecord
  2
*Model_Space
340
22
  0
BLOCK_RECORD
  5
D2
330
1
100
AcDbSymbolTableRecord
100
AcDbBlockTableRecord
  2
*Paper_Space
340
D3
  0
BLOCK_RECORD
  5
D6
330
1
100
AcDbSymbolTableRecord
100
AcDbBlockTableRecord
  2
*Paper_Space0
340
D7
  0
ENDTAB
  0
ENDSEC
  0
SECTION
  2
BLOCKS
  0
BLOCK
  5
20
330
1F
100
AcDbEntity
  8
0
100
AcDbBlockBegin
  2
*Model_Space
 70
     0
 10
0.0
 20
0.0
 30
0.0
  3
*Model_Space
  1

  0
ENDBLK
  5
21
330
1F
100
AcDbEntity
  8
0
100
AcDbBlockEnd
  0
BLOCK
  5
D4
330
D2
100
AcDbEntity
 67
     1
  8
0
100
AcDbBlockBegin
  2
*Paper_Space
 70
     0
 10
0.0
 20
0.0
 30
0.0
  3
*Paper_Space
  1

  0
ENDBLK
  5
D5
330
D2
100
AcDbEntity
 67
     1
  8
0
100
AcDbBlockEnd
  0
BLOCK
  5
D8
330
D6
100
AcDbEntity
 67
     1
  8
0
100
AcDbBlockBegin
  2
*Paper_Space0
 70
     0
 10
0.0
 20
0.0
 30
0.0
  3
*Paper_Space0
  1

  0
ENDBLK
  5
D9
330
D6
100
AcDbEntity
 67
     1
  8
0
100
AcDbBlockEnd
  0
ENDSEC
  0
SECTION
  2
ENTITIES
  0
POLYLINE
  5
390
330
1F
100
AcDbEntity
  8
Cuenca
370
     0
100
AcDb2dPolyline
 66
     1
 10
0.0
 20
0.0
 30
0.0
  0
VERTEX
  5
391
330
390
100
AcDbEntity
  8
Cuenca
370
     0
100
AcDbVertex
100
AcDb2dVertex
 10
3594.887318019073
 20
7496.550149179222
 30
0.0
  0
VERTEX
  5
392
330
390
100
AcDbEntity
  8
Cuenca
370
     0
100
AcDbVertex
100
AcDb2dVertex
 10
3594.887318019073
 20
7496.038707794993
 30
0.0
  0
VERTEX
  5
393
330
390
100
AcDbEntity
  8
Cuenca
370
     0
100
AcDbVertex
100
AcDb2dVertex
 10
3594.887318019073
 20
7495.527266410762
 30
0.0
  0
VERTEX
  5
394
330
390
100
AcDbEntity
  8
Cuenca
370
     0
100
AcDbVertex
100
AcDb2dVertex
 10
3595.143038711189
 20
7494.760104334417
 30
0.0
  0
VERTEX
  5
395
330
390
100
AcDbEntity
  8
Cuenca
370
     0
100
AcDbVertex
100
AcDb2dVertex
 10
3595.398759403303
 20
7494.248662950187
 30
0.0
  0
VERTEX
  5
396
330
390
100
AcDbEntity
  8
Cuenca
370
     0
100
AcDbVertex
100
AcDb2dVertex
 10
3595.398759403303
 20
7493.481500873842
 30
0.0
  0
VERTEX
  5
397
330
390
100
AcDbEntity
  8
Cuenca
370
     0
100
AcDbVertex
100
AcDb2dVertex
 10
3595.398759403303
 20
7493.225780181727
 30
0.0
  0
VERTEX
  5
398
330
390
100
AcDbEntity
  8
Cuenca
370
     0
100
AcDbVertex
100
AcDb2dVertex
 10
3595.654480095419
 20
7492.970059489612
 30
0.0
  0
VERTEX
  5
399
330
390
100
AcDbEntity
  8
Cuenca
370
     0
100
AcDbVertex
100
AcDb2dVertex
 10
3595.910200787534
 20
7492.714338797497
 30
0.0
  0
VERTEX
  5
39A
330
390
100
AcDbEntity
  8
Cuenca
370
     0
100
AcDbVertex
100
AcDb2dVertex
 10
3596.165921479649
 20
7491.435735336921
 30
0.0
  0
VERTEX
  5
39B
330
390
100
AcDbEntity
  8
Cuenca
370
     0
100
AcDbVertex
100
AcDb2dVertex
 10
3596.421642171764
 20
7490.924293952692
 30
0.0
  0
VERTEX
  5
39C
330
390
100
AcDbEntity
  8
Cuenca
370
     0
100
AcDbVertex
100
AcDb2dVertex
 10
3596.677362863879
 20
7490.412852568463
 30
0.0
  0
VERTEX
  5
39D
330
390
100
AcDbEntity
  8
Cuenca
370
     0
100
AcDbVertex
100
AcDb2dVertex
 10
3597.188804248109
 20
7489.901411184232
 30
0.0
  0
VERTEX
  5
39E
330
390
100
AcDbEntity
  8
Cuenca
370
     0
100
AcDbVertex
100
AcDb2dVertex
 10
3597.700245632339
 20
7489.645690492117
 30
0.0
  0
VERTEX
  5
39F
330
390
100
AcDbEntity
  8
Cuenca
370
     0
100
AcDbVertex
100
AcDb2dVertex
 10
3598.211687016569
 20
7489.389969800001
 30
0.0
  0
VERTEX
  5
3A0
330
390
100
AcDbEntity
  8
Cuenca
370
     0
100
AcDbVertex
100
AcDb2dVertex
 10
3598.978849092914
 20
7489.389969800001
 30
0.0
  0
VERTEX
  5
3A1
330
390
100
AcDbEntity
  8
Cuenca
370
     0
100
AcDbVertex
100
AcDb2dVertex
 10
3599.490290477144
 20
7489.389969800001
 30
0.0
  0
VERTEX
  5
3A2
330
390
100
AcDbEntity
  8
Cuenca
370
     0
100
AcDbVertex
100
AcDb2dVertex
 10
3600.001731861374
 20
7489.645690492117
 30
0.0
  0
VERTEX
  5
3A3
330
390
100
AcDbEntity
  8
Cuenca
370
     0
100
AcDbVertex
100
AcDb2dVertex
 10
3600.768893937719
 20
7489.645690492117
 30
0.0
  0
VERTEX
  5
3A4
330
390
100
AcDbEntity
  8
Cuenca
370
     0
100
AcDbVertex
100
AcDb2dVertex
 10
3601.28033532195
 20
7489.645690492117
 30
0.0
  0
VERTEX
  5
3A5
330
390
100
AcDbEntity
  8
Cuenca
370
     0
100
AcDbVertex
100
AcDb2dVertex
 10
3602.047497398295
 20
7489.645690492117
 30
0.0
  0
VERTEX
  5
3A6
330
390
100
AcDbEntity
  8
Cuenca
370
     0
100
AcDbVertex
100
AcDb2dVertex
 10
3602.30321809041
 20
7489.901411184232
 30
0.0
  0
VERTEX
  5
3A7
330
390
100
AcDbEntity
  8
Cuenca
370
     0
100
AcDbVertex
100
AcDb2dVertex
 10
3602.81465947464
 20
7490.668573260577
 30
0.0
  0
VERTEX
  5
3A8
330
390
100
AcDbEntity
  8
Cuenca
370
     0
100
AcDbVertex
100
AcDb2dVertex
 10
3603.070380166755
 20
7491.435735336921
 30
0.0
  0
VERTEX
  5
3A9
330
390
100
AcDbEntity
  8
Cuenca
370
     0
100
AcDbVertex
100
AcDb2dVertex
 10
3603.070380166755
 20
7491.435735336921
 30
0.0
  0
VERTEX
  5
3AA
330
390
100
AcDbEntity
  8
Cuenca
370
     0
100
AcDbVertex
100
AcDb2dVertex
 10
3603.581821550985
 20
7491.691456029037
 30
0.0
  0
VERTEX
  5
3AB
330
390
100
AcDbEntity
  8
Cuenca
370
     0
100
AcDbVertex
100
AcDb2dVertex
 10
3604.34898362733
 20
7491.947176721152
 30
0.0
  0
VERTEX
  5
3AC
330
390
100
AcDbEntity
  8
Cuenca
370
     0
100
AcDbVertex
100
AcDb2dVertex
 10
3605.37186639579
 20
7491.947176721152
 30
0.0
  0
VERTEX
  5
3AD
330
390
100
AcDbEntity
  8
Cuenca
370
     0
100
AcDbVertex
100
AcDb2dVertex
 10
3605.88330778002
 20
7491.947176721152
 30
0.0
  0
VERTEX
  5
3AE
330
390
100
AcDbEntity
  8
Cuenca
370
     0
100
AcDbVertex
100
AcDb2dVertex
 10
3606.139028472135
 20
7492.202897413267
 30
0.0
  0
VERTEX
  5
3AF
330
390
100
AcDbEntity
  8
Cuenca
370
     0
100
AcDbVertex
100
AcDb2dVertex
 10
3606.90619054848
 20
7492.202897413267
 30
0.0
  0
VERTEX
  5
3B0
330
390
100
AcDbEntity
  8
Cuenca
370
     0
100
AcDbVertex
100
AcDb2dVertex
 10
3607.161911240595
 20
7491.947176721152
 30
0.0
  0
VERTEX
  5
3B1
330
390
100
AcDbEntity
  8
Cuenca
370
     0
100
AcDbVertex
100
AcDb2dVertex
 10
3607.41763193271
 20
7491.947176721152
 30
0.0
  0
VERTEX
  5
3B2
330
390
100
AcDbEntity
  8
Cuenca
370
     0
100
AcDbVertex
100
AcDb2dVertex
 10
3607.673352624825
 20
7491.947176721152
 30
0.0
  0
VERTEX
  5
3B3
330
390
100
AcDbEntity
  8
Cuenca
370
     0
100
AcDbVertex
100
AcDb2dVertex
 10
3607.929073316941
 20
7491.435735336921
 30
0.0
  0
VERTEX
  5
3B4
330
390
100
AcDbEntity
  8
Cuenca
370
     0
100
AcDbVertex
100
AcDb2dVertex
 10
3608.696235393285
 20
7490.668573260577
 30
0.0
  0
VERTEX
  5
3B5
330
390
100
AcDbEntity
  8
Cuenca
370
     0
100
AcDbVertex
100
AcDb2dVertex
 10
3608.951956085401
 20
7490.412852568463
 30
0.0
  0
VERTEX
  5
3B6
330
390
100
AcDbEntity
  8
Cuenca
370
     0
100
AcDbVertex
100
AcDb2dVertex
 10
3609.719118161746
 20
7490.157131876346
 30
0.0
  0
VERTEX
  5
3B7
330
390
100
AcDbEntity
  8
Cuenca
370
     0
100
AcDbVertex
100
AcDb2dVertex
 10
3609.974838853861
 20
7489.901411184232
 30
0.0
  0
VERTEX
  5
3B8
330
390
100
AcDbEntity
  8
Cuenca
370
     0
100
AcDbVertex
100
AcDb2dVertex
 10
3609.974838853861
 20
7489.645690492117
 30
0.0
  0
VERTEX
  5
3B9
330
390
100
AcDbEntity
  8
Cuenca
370
     0
100
AcDbVertex
100
AcDb2dVertex
 10
3610.230559545976
 20
7489.134249107888
 30
0.0
  0
VERTEX
  5
3BA
330
390
100
AcDbEntity
  8
Cuenca
370
     0
100
AcDbVertex
100
AcDb2dVertex
 10
3610.486280238091
 20
7488.367087031541
 30
0.0
  0
VERTEX
  5
3BB
330
390
100
AcDbEntity
  8
Cuenca
370
     0
100
AcDbVertex
100
AcDb2dVertex
 10
3610.997721622322
 20
7488.111366339426
 30
0.0
  0
VERTEX
  5
3BC
330
390
100
AcDbEntity
  8
Cuenca
370
     0
100
AcDbVertex
100
AcDb2dVertex
 10
3611.253442314436
 20
7487.599924955197
 30
0.0
  0
VERTEX
  5
3BD
330
390
100
AcDbEntity
  8
Cuenca
370
     0
100
AcDbVertex
100
AcDb2dVertex
 10
3611.253442314436
 20
7486.832762878851
 30
0.0
  0
VERTEX
  5
3BE
330
390
100
AcDbEntity
  8
Cuenca
370
     0
100
AcDbVertex
100
AcDb2dVertex
 10
3611.509163006551
 20
7486.321321494621
 30
0.0
  0
VERTEX
  5
3BF
330
390
100
AcDbEntity
  8
Cuenca
370
     0
100
AcDbVertex
100
AcDb2dVertex
 10
3611.764883698666
 20
7486.065600802506
 30
0.0
  0
VERTEX
  5
3C0
330
390
100
AcDbEntity
  8
Cuenca
370
     0
100
AcDbVertex
100
AcDb2dVertex
 10
3612.276325082896
 20
7485.554159418277
 30
0.0
  0
VERTEX
  5
3C1
330
390
100
AcDbEntity
  8
Cuenca
370
     0
100
AcDbVertex
100
AcDb2dVertex
 10
3612.787766467127
 20
7485.554159418277
 30
0.0
  0
VERTEX
  5
3C2
330
390
100
AcDbEntity
  8
Cuenca
370
     0
100
AcDbVertex
100
AcDb2dVertex
 10
3613.554928543472
 20
7485.554159418277
 30
0.0
  0
VERTEX
  5
3C3
330
390
100
AcDbEntity
  8
Cuenca
370
     0
100
AcDbVertex
100
AcDb2dVertex
 10
3613.554928543472
 20
7485.29843872616
 30
0.0
  0
VERTEX
  5
3C4
330
390
100
AcDbEntity
  8
Cuenca
370
     0
100
AcDbVertex
100
AcDb2dVertex
 10
3614.322090619817
 20
7485.042718034046
 30
0.0
  0
VERTEX
  5
3C5
330
390
100
AcDbEntity
  8
Cuenca
370
     0
100
AcDbVertex
100
AcDb2dVertex
 10
3614.577811311932
 20
7485.042718034046
 30
0.0
  0
VERTEX
  5
3C6
330
390
100
AcDbEntity
  8
Cuenca
370
     0
100
AcDbVertex
100
AcDb2dVertex
 10
3614.833532004047
 20
7485.29843872616
 30
0.0
  0
VERTEX
  5
3C7
330
390
100
AcDbEntity
  8
Cuenca
370
     0
100
AcDbVertex
100
AcDb2dVertex
 10
3615.089252696162
 20
7485.809880110391
 30
0.0
  0
VERTEX
  5
3C8
330
390
100
AcDbEntity
  8
Cuenca
370
     0
100
AcDbVertex
100
AcDb2dVertex
 10
3615.344973388277
 20
7486.321321494621
 30
0.0
  0
VERTEX
  5
3C9
330
390
100
AcDbEntity
  8
Cuenca
370
     0
100
AcDbVertex
100
AcDb2dVertex
 10
3615.856414772507
 20
7488.111366339426
 30
0.0
  0
VERTEX
  5
3CA
330
390
100
AcDbEntity
  8
Cuenca
370
     0
100
AcDbVertex
100
AcDb2dVertex
 10
3616.112135464622
 20
7488.622807723657
 30
0.0
  0
VERTEX
  5
3CB
330
390
100
AcDbEntity
  8
Cuenca
370
     0
100
AcDbVertex
100
AcDb2dVertex
 10
3616.367856156737
 20
7488.367087031541
 30
0.0
  0
VERTEX
  5
3CC
330
390
100
AcDbEntity
  8
Cuenca
370
     0
100
AcDbVertex
100
AcDb2dVertex
 10
3616.879297540967
 20
7488.111366339426
 30
0.0
  0
VERTEX
  5
3CD
330
390
100
AcDbEntity
  8
Cuenca
370
     0
100
AcDbVertex
100
AcDb2dVertex
 10
3617.135018233082
 20
7488.111366339426
 30
0.0
  0
VERTEX
  5
3CE
330
390
100
AcDbEntity
  8
Cuenca
370
     0
100
AcDbVertex
100
AcDb2dVertex
 10
3617.902180309427
 20
7487.855645647312
 30
0.0
  0
VERTEX
  5
3CF
330
390
100
AcDbEntity
  8
Cuenca
370
     0
100
AcDbVertex
100
AcDb2dVertex
 10
3618.925063077887
 20
7487.599924955197
 30
0.0
  0
VERTEX
  5
3D0
330
390
100
AcDbEntity
  8
Cuenca
370
     0
100
AcDbVertex
100
AcDb2dVertex
 10
3619.692225154233
 20
7487.344204263081
 30
0.0
  0
VERTEX
  5
3D1
330
390
100
AcDbEntity
  8
Cuenca
370
     0
100
AcDbVertex
100
AcDb2dVertex
 10
3620.459387230578
 20
7487.344204263081
 30
0.0
  0
VERTEX
  5
3D2
330
390
100
AcDbEntity
  8
Cuenca
370
     0
100
AcDbVertex
100
AcDb2dVertex
 10
3620.715107922694
 20
7487.088483570966
 30
0.0
  0
VERTEX
  5
3D3
330
390
100
AcDbEntity
  8
Cuenca
370
     0
100
AcDbVertex
100
AcDb2dVertex
 10
3621.226549306923
 20
7486.832762878851
 30
0.0
  0
VERTEX
  5
3D4
330
390
100
AcDbEntity
  8
Cuenca
370
     0
100
AcDbVertex
100
AcDb2dVertex
 10
3621.482269999038
 20
7486.577042186735
 30
0.0
  0
VERTEX
  5
3D5
330
390
100
AcDbEntity
  8
Cuenca
370
     0
100
AcDbVertex
100
AcDb2dVertex
 10
3621.993711383268
 20
7486.065600802506
 30
0.0
  0
VERTEX
  5
3D6
330
390
100
AcDbEntity
  8
Cuenca
370
     0
100
AcDbVertex
100
AcDb2dVertex
 10
3622.505152767498
 20
7486.065600802506
 30
0.0
  0
VERTEX
  5
3D7
330
390
100
AcDbEntity
  8
Cuenca
370
     0
100
AcDbVertex
100
AcDb2dVertex
 10
3623.016594151728
 20
7486.065600802506
 30
0.0
  0
VERTEX
  5
3D8
330
390
100
AcDbEntity
  8
Cuenca
370
     0
100
AcDbVertex
100
AcDb2dVertex
 10
3623.528035535958
 20
7485.554159418277
 30
0.0
  0
VERTEX
  5
3D9
330
390
100
AcDbEntity
  8
Cuenca
370
     0
100
AcDbVertex
100
AcDb2dVertex
 10
3624.039476920188
 20
7485.29843872616
 30
0.0
  0
VERTEX
  5
3DA
330
390
100
AcDbEntity
  8
Cuenca
370
     0
100
AcDbVertex
100
AcDb2dVertex
 10
3624.550918304418
 20
7485.042718034046
 30
0.0
  0
VERTEX
  5
3DB
330
390
100
AcDbEntity
  8
Cuenca
370
     0
100
AcDbVertex
100
AcDb2dVertex
 10
3625.062359688648
 20
7485.042718034046
 30
0.0
  0
VERTEX
  5
3DC
330
390
100
AcDbEntity
  8
Cuenca
370
     0
100
AcDbVertex
100
AcDb2dVertex
 10
3625.829521764994
 20
7484.531276649815
 30
0.0
  0
VERTEX
  5
3DD
330
390
100
AcDbEntity
  8
Cuenca
370
     0
100
AcDbVertex
100
AcDb2dVertex
 10
3626.340963149224
 20
7484.019835265586
 30
0.0
  0
VERTEX
  5
3DE
330
390
100
AcDbEntity
  8
Cuenca
370
     0
100
AcDbVertex
100
AcDb2dVertex
 10
3626.852404533454
 20
7483.508393881355
 30
0.0
  0
VERTEX
  5
3DF
330
390
100
AcDbEntity
  8
Cuenca
370
     0
100
AcDbVertex
100
AcDb2dVertex
 10
3627.108125225568
 20
7483.25267318924
 30
0.0
  0
VERTEX
  5
3E0
330
390
100
AcDbEntity
  8
Cuenca
370
     0
100
AcDbVertex
100
AcDb2dVertex
 10
3627.619566609799
 20
7482.485511112895
 30
0.0
  0
VERTEX
  5
3E1
330
390
100
AcDbEntity
  8
Cuenca
370
     0
100
AcDbVertex
100
AcDb2dVertex
 10
3628.131007994029
 20
7482.485511112895
 30
0.0
  0
VERTEX
  5
3E2
330
390
100
AcDbEntity
  8
Cuenca
370
     0
100
AcDbVertex
100
AcDb2dVertex
 10
3628.898170070374
 20
7482.485511112895
 30
0.0
  0
VERTEX
  5
3E3
330
390
100
AcDbEntity
  8
Cuenca
370
     0
100
AcDbVertex
100
AcDb2dVertex
 10
3629.66533214672
 20
7482.741231805011
 30
0.0
  0
VERTEX
  5
3E4
330
390
100
AcDbEntity
  8
Cuenca
370
     0
100
AcDbVertex
100
AcDb2dVertex
 10
3630.176773530949
 20
7482.996952497126
 30
0.0
  0
VERTEX
  5
3E5
330
390
100
AcDbEntity
  8
Cuenca
370
     0
100
AcDbVertex
100
AcDb2dVertex
 10
3630.943935607295
 20
7483.25267318924
 30
0.0
  0
VERTEX
  5
3E6
330
390
100
AcDbEntity
  8
Cuenca
370
     0
100
AcDbVertex
100
AcDb2dVertex
 10
3631.455376991525
 20
7482.996952497126
 30
0.0
  0
VERTEX
  5
3E7
330
390
100
AcDbEntity
  8
Cuenca
370
     0
100
AcDbVertex
100
AcDb2dVertex
 10
3631.455376991525
 20
7482.996952497126
 30
0.0
  0
VERTEX
  5
3E8
330
390
100
AcDbEntity
  8
Cuenca
370
     0
100
AcDbVertex
100
AcDb2dVertex
 10
3631.966818375754
 20
7482.485511112895
 30
0.0
  0
VERTEX
  5
3E9
330
390
100
AcDbEntity
  8
Cuenca
370
     0
100
AcDbVertex
100
AcDb2dVertex
 10
3631.71109768364
 20
7482.22979042078
 30
0.0
  0
VERTEX
  5
3EA
330
390
100
AcDbEntity
  8
Cuenca
370
     0
100
AcDbVertex
100
AcDb2dVertex
 10
3631.455376991525
 20
7481.718349036549
 30
0.0
  0
VERTEX
  5
3EB
330
390
100
AcDbEntity
  8
Cuenca
370
     0
100
AcDbVertex
100
AcDb2dVertex
 10
3631.71109768364
 20
7481.718349036549
 30
0.0
  0
VERTEX
  5
3EC
330
390
100
AcDbEntity
  8
Cuenca
370
     0
100
AcDbVertex
100
AcDb2dVertex
 10
3632.22253906787
 20
7481.462628344435
 30
0.0
  0
VERTEX
  5
3ED
330
390
100
AcDbEntity
  8
Cuenca
370
     0
100
AcDbVertex
100
AcDb2dVertex
 10
3632.478259759985
 20
7481.20690765232
 30
0.0
  0
VERTEX
  5
3EE
330
390
100
AcDbEntity
  8
Cuenca
370
     0
100
AcDbVertex
100
AcDb2dVertex
 10
3632.7339804521
 20
7480.951186960204
 30
0.0
  0
VERTEX
  5
3EF
330
390
100
AcDbEntity
  8
Cuenca
370
     0
100
AcDbVertex
100
AcDb2dVertex
 10
3632.7339804521
 20
7480.439745575974
 30
0.0
  0
VERTEX
  5
3F0
330
390
100
AcDbEntity
  8
Cuenca
370
     0
100
AcDbVertex
100
AcDb2dVertex
 10
3633.24542183633
 20
7480.18402488386
 30
0.0
  0
VERTEX
  5
3F1
330
390
100
AcDbEntity
  8
Cuenca
370
     0
100
AcDbVertex
100
AcDb2dVertex
 10
3633.75686322056
 20
7479.928304191744
 30
0.0
  0
VERTEX
  5
3F2
330
390
100
AcDbEntity
  8
Cuenca
370
     0
100
AcDbVertex
100
AcDb2dVertex
 10
3634.012583912675
 20
7479.672583499629
 30
0.0
  0
VERTEX
  5
3F3
330
390
100
AcDbEntity
  8
Cuenca
370
     0
100
AcDbVertex
100
AcDb2dVertex
 10
3634.012583912675
 20
7478.905421423284
 30
0.0
  0
VERTEX
  5
3F4
330
390
100
AcDbEntity
  8
Cuenca
370
     0
100
AcDbVertex
100
AcDb2dVertex
 10
3634.012583912675
 20
7478.393980039054
 30
0.0
  0
VERTEX
  5
3F5
330
390
100
AcDbEntity
  8
Cuenca
370
     0
100
AcDbVertex
100
AcDb2dVertex
 10
3634.524025296906
 20
7478.13825934694
 30
0.0
  0
VERTEX
  5
3F6
330
390
100
AcDbEntity
  8
Cuenca
370
     0
100
AcDbVertex
100
AcDb2dVertex
 10
3635.29118737325
 20
7477.626817962709
 30
0.0
  0
VERTEX
  5
3F7
330
390
100
AcDbEntity
  8
Cuenca
370
     0
100
AcDbVertex
100
AcDb2dVertex
 10
3635.546908065366
 20
7477.626817962709
 30
0.0
  0
VERTEX
  5
3F8
330
390
100
AcDbEntity
  8
Cuenca
370
     0
100
AcDbVertex
100
AcDb2dVertex
 10
3635.80262875748
 20
7477.882538654824
 30
0.0
  0
VERTEX
  5
3F9
330
390
100
AcDbEntity
  8
Cuenca
370
     0
100
AcDbVertex
100
AcDb2dVertex
 10
3636.569790833826
 20
7478.393980039054
 30
0.0
  0
VERTEX
  5
3FA
330
390
100
AcDbEntity
  8
Cuenca
370
     0
100
AcDbVertex
100
AcDb2dVertex
 10
3637.336952910171
 20
7478.393980039054
 30
0.0
  0
VERTEX
  5
3FB
330
390
100
AcDbEntity
  8
Cuenca
370
     0
100
AcDbVertex
100
AcDb2dVertex
 10
3637.8483942944
 20
7478.393980039054
 30
0.0
  0
VERTEX
  5
3FC
330
390
100
AcDbEntity
  8
Cuenca
370
     0
100
AcDbVertex
100
AcDb2dVertex
 10
3638.359835678631
 20
7478.393980039054
 30
0.0
  0
VERTEX
  5
3FD
330
390
100
AcDbEntity
  8
Cuenca
370
     0
100
AcDbVertex
100
AcDb2dVertex
 10
3638.871277062861
 20
7478.13825934694
 30
0.0
  0
VERTEX
  5
3FE
330
390
100
AcDbEntity
  8
Cuenca
370
     0
100
AcDbVertex
100
AcDb2dVertex
 10
3639.638439139206
 20
7477.626817962709
 30
0.0
  0
VERTEX
  5
3FF
330
390
100
AcDbEntity
  8
Cuenca
370
     0
100
AcDbVertex
100
AcDb2dVertex
 10
3639.894159831321
 20
7477.371097270594
 30
0.0
  0
VERTEX
  5
400
330
390
100
AcDbEntity
  8
Cuenca
370
     0
100
AcDbVertex
100
AcDb2dVertex
 10
3640.661321907666
 20
7477.115376578479
 30
0.0
  0
VERTEX
  5
401
330
390
100
AcDbEntity
  8
Cuenca
370
     0
100
AcDbVertex
100
AcDb2dVertex
 10
3641.172763291896
 20
7476.348214502134
 30
0.0
  0
VERTEX
  5
402
330
390
100
AcDbEntity
  8
Cuenca
370
     0
100
AcDbVertex
100
AcDb2dVertex
 10
3641.428483984011
 20
7475.836773117904
 30
0.0
  0
VERTEX
  5
403
330
390
100
AcDbEntity
  8
Cuenca
370
     0
100
AcDbVertex
100
AcDb2dVertex
 10
3641.939925368241
 20
7475.325331733674
 30
0.0
  0
VERTEX
  5
404
330
390
100
AcDbEntity
  8
Cuenca
370
     0
100
AcDbVertex
100
AcDb2dVertex
 10
3642.195646060357
 20
7475.325331733674
 30
0.0
  0
VERTEX
  5
405
330
390
100
AcDbEntity
  8
Cuenca
370
     0
100
AcDbVertex
100
AcDb2dVertex
 10
3642.707087444586
 20
7475.069611041559
 30
0.0
  0
VERTEX
  5
406
330
390
100
AcDbEntity
  8
Cuenca
370
     0
100
AcDbVertex
100
AcDb2dVertex
 10
3642.962808136701
 20
7474.813890349444
 30
0.0
  0
VERTEX
  5
407
330
390
100
AcDbEntity
  8
Cuenca
370
     0
100
AcDbVertex
100
AcDb2dVertex
 10
3643.474249520931
 20
7474.558169657329
 30
0.0
  0
VERTEX
  5
408
330
390
100
AcDbEntity
  8
Cuenca
370
     0
100
AcDbVertex
100
AcDb2dVertex
 10
3644.497132289392
 20
7474.302448965215
 30
0.0
  0
VERTEX
  5
409
330
390
100
AcDbEntity
  8
Cuenca
370
     0
100
AcDbVertex
100
AcDb2dVertex
 10
3645.775735749967
 20
7474.302448965215
 30
0.0
  0
VERTEX
  5
40A
330
390
100
AcDbEntity
  8
Cuenca
370
     0
100
AcDbVertex
100
AcDb2dVertex
 10
3646.542897826312
 20
7474.046728273099
 30
0.0
  0
VERTEX
  5
40B
330
390
100
AcDbEntity
  8
Cuenca
370
     0
100
AcDbVertex
100
AcDb2dVertex
 10
3646.798618518428
 20
7473.791007580984
 30
0.0
  0
VERTEX
  5
40C
330
390
100
AcDbEntity
  8
Cuenca
370
     0
100
AcDbVertex
100
AcDb2dVertex
 10
3647.054339210542
 20
7473.535286888868
 30
0.0
  0
VERTEX
  5
40D
330
390
100
AcDbEntity
  8
Cuenca
370
     0
100
AcDbVertex
100
AcDb2dVertex
 10
3647.821501286887
 20
7473.535286888868
 30
0.0
  0
VERTEX
  5
40E
330
390
100
AcDbEntity
  8
Cuenca
370
     0
100
AcDbVertex
100
AcDb2dVertex
 10
3649.100104747463
 20
7473.279566196755
 30
0.0
  0
VERTEX
  5
40F
330
390
100
AcDbEntity
  8
Cuenca
370
     0
100
AcDbVertex
100
AcDb2dVertex
 10
3649.867266823808
 20
7472.768124812524
 30
0.0
  0
VERTEX
  5
410
330
390
100
AcDbEntity
  8
Cuenca
370
     0
100
AcDbVertex
100
AcDb2dVertex
 10
3650.634428900153
 20
7472.256683428293
 30
0.0
  0
VERTEX
  5
411
330
390
100
AcDbEntity
  8
Cuenca
370
     0
100
AcDbVertex
100
AcDb2dVertex
 10
3650.122987515923
 20
7472.000962736179
 30
0.0
  0
VERTEX
  5
412
330
390
100
AcDbEntity
  8
Cuenca
370
     0
100
AcDbVertex
100
AcDb2dVertex
 10
3649.355825439578
 20
7471.489521351948
 30
0.0
  0
VERTEX
  5
413
330
390
100
AcDbEntity
  8
Cuenca
370
     0
100
AcDbVertex
100
AcDb2dVertex
 10
3649.100104747463
 20
7471.233800659833
 30
0.0
  0
VERTEX
  5
414
330
390
100
AcDbEntity
  8
Cuenca
370
     0
100
AcDbVertex
100
AcDb2dVertex
 10
3648.844384055347
 20
7470.722359275604
 30
0.0
  0
VERTEX
  5
415
330
390
100
AcDbEntity
  8
Cuenca
370
     0
100
AcDbVertex
100
AcDb2dVertex
 10
3648.332942671117
 20
7470.210917891373
 30
0.0
  0
VERTEX
  5
416
330
390
100
AcDbEntity
  8
Cuenca
370
     0
100
AcDbVertex
100
AcDb2dVertex
 10
3647.821501286887
 20
7470.210917891373
 30
0.0
  0
VERTEX
  5
417
330
390
100
AcDbEntity
  8
Cuenca
370
     0
100
AcDbVertex
100
AcDb2dVertex
 10
3647.054339210542
 20
7469.955197199258
 30
0.0
  0
VERTEX
  5
418
330
390
100
AcDbEntity
  8
Cuenca
370
     0
100
AcDbVertex
100
AcDb2dVertex
 10
3646.542897826312
 20
7469.699476507144
 30
0.0
  0
VERTEX
  5
419
330
390
100
AcDbEntity
  8
Cuenca
370
     0
100
AcDbVertex
100
AcDb2dVertex
 10
3646.031456442082
 20
7469.443755815028
 30
0.0
  0
VERTEX
  5
41A
330
390
100
AcDbEntity
  8
Cuenca
370
     0
100
AcDbVertex
100
AcDb2dVertex
 10
3645.264294365738
 20
7470.210917891373
 30
0.0
  0
VERTEX
  5
41B
330
390
100
AcDbEntity
  8
Cuenca
370
     0
100
AcDbVertex
100
AcDb2dVertex
 10
3644.752852981507
 20
7470.466638583488
 30
0.0
  0
VERTEX
  5
41C
330
390
100
AcDbEntity
  8
Cuenca
370
     0
100
AcDbVertex
100
AcDb2dVertex
 10
3643.985690905161
 20
7470.722359275604
 30
0.0
  0
VERTEX
  5
41D
330
390
100
AcDbEntity
  8
Cuenca
370
     0
100
AcDbVertex
100
AcDb2dVertex
 10
3643.474249520931
 20
7470.978079967719
 30
0.0
  0
VERTEX
  5
41E
330
390
100
AcDbEntity
  8
Cuenca
370
     0
100
AcDbVertex
100
AcDb2dVertex
 10
3643.474249520931
 20
7470.978079967719
 30
0.0
  0
VERTEX
  5
41F
330
390
100
AcDbEntity
  8
Cuenca
370
     0
100
AcDbVertex
100
AcDb2dVertex
 10
3642.962808136701
 20
7470.978079967719
 30
0.0
  0
VERTEX
  5
420
330
390
100
AcDbEntity
  8
Cuenca
370
     0
100
AcDbVertex
100
AcDb2dVertex
 10
3641.939925368241
 20
7470.978079967719
 30
0.0
  0
VERTEX
  5
421
330
390
100
AcDbEntity
  8
Cuenca
370
     0
100
AcDbVertex
100
AcDb2dVertex
 10
3641.428483984011
 20
7470.722359275604
 30
0.0
  0
VERTEX
  5
422
330
390
100
AcDbEntity
  8
Cuenca
370
     0
100
AcDbVertex
100
AcDb2dVertex
 10
3640.661321907666
 20
7470.466638583488
 30
0.0
  0
VERTEX
  5
423
330
390
100
AcDbEntity
  8
Cuenca
370
     0
100
AcDbVertex
100
AcDb2dVertex
 10
3640.405601215551
 20
7470.466638583488
 30
0.0
  0
VERTEX
  5
424
330
390
100
AcDbEntity
  8
Cuenca
370
     0
100
AcDbVertex
100
AcDb2dVertex
 10
3639.382718447091
 20
7470.210917891373
 30
0.0
  0
VERTEX
  5
425
330
390
100
AcDbEntity
  8
Cuenca
370
     0
100
AcDbVertex
100
AcDb2dVertex
 10
3638.359835678631
 20
7469.699476507144
 30
0.0
  0
VERTEX
  5
426
330
390
100
AcDbEntity
  8
Cuenca
370
     0
100
AcDbVertex
100
AcDb2dVertex
 10
3637.8483942944
 20
7468.932314430798
 30
0.0
  0
VERTEX
  5
427
330
390
100
AcDbEntity
  8
Cuenca
370
     0
100
AcDbVertex
100
AcDb2dVertex
 10
3637.336952910171
 20
7468.420873046568
 30
0.0
  0
VERTEX
  5
428
330
390
100
AcDbEntity
  8
Cuenca
370
     0
100
AcDbVertex
100
AcDb2dVertex
 10
3637.336952910171
 20
7467.397990278107
 30
0.0
  0
VERTEX
  5
429
330
390
100
AcDbEntity
  8
Cuenca
370
     0
100
AcDbVertex
100
AcDb2dVertex
 10
3637.081232218056
 20
7466.886548893878
 30
0.0
  0
VERTEX
  5
42A
330
390
100
AcDbEntity
  8
Cuenca
370
     0
100
AcDbVertex
100
AcDb2dVertex
 10
3636.82551152594
 20
7466.630828201762
 30
0.0
  0
VERTEX
  5
42B
330
390
100
AcDbEntity
  8
Cuenca
370
     0
100
AcDbVertex
100
AcDb2dVertex
 10
3636.058349449596
 20
7466.119386817533
 30
0.0
  0
VERTEX
  5
42C
330
390
100
AcDbEntity
  8
Cuenca
370
     0
100
AcDbVertex
100
AcDb2dVertex
 10
3635.546908065366
 20
7465.607945433302
 30
0.0
  0
VERTEX
  5
42D
330
390
100
AcDbEntity
  8
Cuenca
370
     0
100
AcDbVertex
100
AcDb2dVertex
 10
3635.035466681135
 20
7464.840783356958
 30
0.0
  0
VERTEX
  5
42E
330
390
100
AcDbEntity
  8
Cuenca
370
     0
100
AcDbVertex
100
AcDb2dVertex
 10
3634.524025296906
 20
7464.329341972727
 30
0.0
  0
VERTEX
  5
42F
330
390
100
AcDbEntity
  8
Cuenca
370
     0
100
AcDbVertex
100
AcDb2dVertex
 10
3634.012583912675
 20
7463.817900588496
 30
0.0
  0
VERTEX
  5
430
330
390
100
AcDbEntity
  8
Cuenca
370
     0
100
AcDbVertex
100
AcDb2dVertex
 10
3633.501142528445
 20
7462.539297127921
 30
0.0
  0
VERTEX
  5
431
330
390
100
AcDbEntity
  8
Cuenca
370
     0
100
AcDbVertex
100
AcDb2dVertex
 10
3633.24542183633
 20
7461.260693667347
 30
0.0
  0
VERTEX
  5
432
330
390
100
AcDbEntity
  8
Cuenca
370
     0
100
AcDbVertex
100
AcDb2dVertex
 10
3632.989701144215
 20
7460.749252283116
 30
0.0
  0
VERTEX
  5
433
330
390
100
AcDbEntity
  8
Cuenca
370
     0
100
AcDbVertex
100
AcDb2dVertex
 10
3632.22253906787
 20
7459.214928130426
 30
0.0
  0
VERTEX
  5
434
330
390
100
AcDbEntity
  8
Cuenca
370
     0
100
AcDbVertex
100
AcDb2dVertex
 10
3631.455376991525
 20
7457.936324669852
 30
0.0
  0
VERTEX
  5
435
330
390
100
AcDbEntity
  8
Cuenca
370
     0
100
AcDbVertex
100
AcDb2dVertex
 10
3630.68821491518
 20
7457.680603977735
 30
0.0
  0
VERTEX
  5
436
330
390
100
AcDbEntity
  8
Cuenca
370
     0
100
AcDbVertex
100
AcDb2dVertex
 10
3629.921052838835
 20
7457.936324669852
 30
0.0
  0
VERTEX
  5
437
330
390
100
AcDbEntity
  8
Cuenca
370
     0
100
AcDbVertex
100
AcDb2dVertex
 10
3629.66533214672
 20
7457.936324669852
 30
0.0
  0
VERTEX
  5
438
330
390
100
AcDbEntity
  8
Cuenca
370
     0
100
AcDbVertex
100
AcDb2dVertex
 10
3629.409611454605
 20
7457.936324669852
 30
0.0
  0
VERTEX
  5
439
330
390
100
AcDbEntity
  8
Cuenca
370
     0
100
AcDbVertex
100
AcDb2dVertex
 10
3628.898170070374
 20
7457.680603977735
 30
0.0
  0
VERTEX
  5
43A
330
390
100
AcDbEntity
  8
Cuenca
370
     0
100
AcDbVertex
100
AcDb2dVertex
 10
3628.386728686145
 20
7457.169162593506
 30
0.0
  0
VERTEX
  5
43B
330
390
100
AcDbEntity
  8
Cuenca
370
     0
100
AcDbVertex
100
AcDb2dVertex
 10
3626.852404533454
 20
7456.913441901391
 30
0.0
  0
VERTEX
  5
43C
330
390
100
AcDbEntity
  8
Cuenca
370
     0
100
AcDbVertex
100
AcDb2dVertex
 10
3625.829521764994
 20
7456.657721209277
 30
0.0
  0
VERTEX
  5
43D
330
390
100
AcDbEntity
  8
Cuenca
370
     0
100
AcDbVertex
100
AcDb2dVertex
 10
3624.806638996534
 20
7456.913441901391
 30
0.0
  0
VERTEX
  5
43E
330
390
100
AcDbEntity
  8
Cuenca
370
     0
100
AcDbVertex
100
AcDb2dVertex
 10
3624.295197612303
 20
7457.169162593506
 30
0.0
  0
VERTEX
  5
43F
330
390
100
AcDbEntity
  8
Cuenca
370
     0
100
AcDbVertex
100
AcDb2dVertex
 10
3623.783756228073
 20
7456.913441901391
 30
0.0
  0
VERTEX
  5
440
330
390
100
AcDbEntity
  8
Cuenca
370
     0
100
AcDbVertex
100
AcDb2dVertex
 10
3623.272314843843
 20
7456.913441901391
 30
0.0
  0
VERTEX
  5
441
330
390
100
AcDbEntity
  8
Cuenca
370
     0
100
AcDbVertex
100
AcDb2dVertex
 10
3621.993711383268
 20
7456.913441901391
 30
0.0
  0
VERTEX
  5
442
330
390
100
AcDbEntity
  8
Cuenca
370
     0
100
AcDbVertex
100
AcDb2dVertex
 10
3621.482269999038
 20
7456.657721209277
 30
0.0
  0
VERTEX
  5
443
330
390
100
AcDbEntity
  8
Cuenca
370
     0
100
AcDbVertex
100
AcDb2dVertex
 10
3621.226549306923
 20
7456.402000517162
 30
0.0
  0
VERTEX
  5
444
330
390
100
AcDbEntity
  8
Cuenca
370
     0
100
AcDbVertex
100
AcDb2dVertex
 10
3620.203666538463
 20
7456.402000517162
 30
0.0
  0
VERTEX
  5
445
330
390
100
AcDbEntity
  8
Cuenca
370
     0
100
AcDbVertex
100
AcDb2dVertex
 10
3618.925063077887
 20
7456.913441901391
 30
0.0
  0
VERTEX
  5
446
330
390
100
AcDbEntity
  8
Cuenca
370
     0
100
AcDbVertex
100
AcDb2dVertex
 10
3618.413621693657
 20
7457.424883285622
 30
0.0
  0
VERTEX
  5
447
330
390
100
AcDbEntity
  8
Cuenca
370
     0
100
AcDbVertex
100
AcDb2dVertex
 10
3617.390738925197
 20
7457.936324669852
 30
0.0
  0
VERTEX
  5
448
330
390
100
AcDbEntity
  8
Cuenca
370
     0
100
AcDbVertex
100
AcDb2dVertex
 10
3616.879297540967
 20
7457.936324669852
 30
0.0
  0
VERTEX
  5
449
330
390
100
AcDbEntity
  8
Cuenca
370
     0
100
AcDbVertex
100
AcDb2dVertex
 10
3616.367856156737
 20
7457.680603977735
 30
0.0
  0
VERTEX
  5
44A
330
390
100
AcDbEntity
  8
Cuenca
370
     0
100
AcDbVertex
100
AcDb2dVertex
 10
3615.344973388277
 20
7457.936324669852
 30
0.0
  0
VERTEX
  5
44B
330
390
100
AcDbEntity
  8
Cuenca
370
     0
100
AcDbVertex
100
AcDb2dVertex
 10
3614.577811311932
 20
7457.680603977735
 30
0.0
  0
VERTEX
  5
44C
330
390
100
AcDbEntity
  8
Cuenca
370
     0
100
AcDbVertex
100
AcDb2dVertex
 10
3614.066369927702
 20
7457.936324669852
 30
0.0
  0
VERTEX
  5
44D
330
390
100
AcDbEntity
  8
Cuenca
370
     0
100
AcDbVertex
100
AcDb2dVertex
 10
3613.554928543472
 20
7458.192045361966
 30
0.0
  0
VERTEX
  5
44E
330
390
100
AcDbEntity
  8
Cuenca
370
     0
100
AcDbVertex
100
AcDb2dVertex
 10
3612.787766467127
 20
7457.936324669852
 30
0.0
  0
VERTEX
  5
44F
330
390
100
AcDbEntity
  8
Cuenca
370
     0
100
AcDbVertex
100
AcDb2dVertex
 10
3612.276325082896
 20
7457.424883285622
 30
0.0
  0
VERTEX
  5
450
330
390
100
AcDbEntity
  8
Cuenca
370
     0
100
AcDbVertex
100
AcDb2dVertex
 10
3611.509163006551
 20
7457.424883285622
 30
0.0
  0
VERTEX
  5
451
330
390
100
AcDbEntity
  8
Cuenca
370
     0
100
AcDbVertex
100
AcDb2dVertex
 10
3610.997721622322
 20
7457.680603977735
 30
0.0
  0
VERTEX
  5
452
330
390
100
AcDbEntity
  8
Cuenca
370
     0
100
AcDbVertex
100
AcDb2dVertex
 10
3610.230559545976
 20
7457.936324669852
 30
0.0
  0
VERTEX
  5
453
330
390
100
AcDbEntity
  8
Cuenca
370
     0
100
AcDbVertex
100
AcDb2dVertex
 10
3609.719118161746
 20
7458.192045361966
 30
0.0
  0
VERTEX
  5
454
330
390
100
AcDbEntity
  8
Cuenca
370
     0
100
AcDbVertex
100
AcDb2dVertex
 10
3609.207676777515
 20
7458.703486746196
 30
0.0
  0
VERTEX
  5
455
330
390
100
AcDbEntity
  8
Cuenca
370
     0
100
AcDbVertex
100
AcDb2dVertex
 10
3608.951956085401
 20
7458.703486746196
 30
0.0
  0
VERTEX
  5
456
330
390
100
AcDbEntity
  8
Cuenca
370
     0
100
AcDbVertex
100
AcDb2dVertex
 10
3607.673352624825
 20
7459.470648822541
 30
0.0
  0
VERTEX
  5
457
330
390
100
AcDbEntity
  8
Cuenca
370
     0
100
AcDbVertex
100
AcDb2dVertex
 10
3606.650469856365
 20
7459.214928130426
 30
0.0
  0
VERTEX
  5
458
330
390
100
AcDbEntity
  8
Cuenca
370
     0
100
AcDbVertex
100
AcDb2dVertex
 10
3605.88330778002
 20
7459.726369514656
 30
0.0
  0
VERTEX
  5
459
330
390
100
AcDbEntity
  8
Cuenca
370
     0
100
AcDbVertex
100
AcDb2dVertex
 10
3604.860425011561
 20
7458.959207438311
 30
0.0
  0
VERTEX
  5
45A
330
390
100
AcDbEntity
  8
Cuenca
370
     0
100
AcDbVertex
100
AcDb2dVertex
 10
3603.8375422431
 20
7458.447766054081
 30
0.0
  0
VERTEX
  5
45B
330
390
100
AcDbEntity
  8
Cuenca
370
     0
100
AcDbVertex
100
AcDb2dVertex
 10
3603.070380166755
 20
7457.936324669852
 30
0.0
  0
VERTEX
  5
45C
330
390
100
AcDbEntity
  8
Cuenca
370
     0
100
AcDbVertex
100
AcDb2dVertex
 10
3602.30321809041
 20
7457.936324669852
 30
0.0
  0
VERTEX
  5
45D
330
390
100
AcDbEntity
  8
Cuenca
370
     0
100
AcDbVertex
100
AcDb2dVertex
 10
3600.513173245604
 20
7459.470648822541
 30
0.0
  0
VERTEX
  5
45E
330
390
100
AcDbEntity
  8
Cuenca
370
     0
100
AcDbVertex
100
AcDb2dVertex
 10
3600.001731861374
 20
7461.004972975231
 30
0.0
  0
VERTEX
  5
45F
330
390
100
AcDbEntity
  8
Cuenca
370
     0
100
AcDbVertex
100
AcDb2dVertex
 10
3598.978849092914
 20
7460.493531591001
 30
0.0
  0
VERTEX
  5
460
330
390
100
AcDbEntity
  8
Cuenca
370
     0
100
AcDbVertex
100
AcDb2dVertex
 10
3598.211687016569
 20
7459.726369514656
 30
0.0
  0
VERTEX
  5
461
330
390
100
AcDbEntity
  8
Cuenca
370
     0
100
AcDbVertex
100
AcDb2dVertex
 10
3597.444524940224
 20
7459.214928130426
 30
0.0
  0
VERTEX
  5
462
330
390
100
AcDbEntity
  8
Cuenca
370
     0
100
AcDbVertex
100
AcDb2dVertex
 10
3596.933083555994
 20
7458.703486746196
 30
0.0
  0
VERTEX
  5
463
330
390
100
AcDbEntity
  8
Cuenca
370
     0
100
AcDbVertex
100
AcDb2dVertex
 10
3596.165921479649
 20
7458.447766054081
 30
0.0
  0
VERTEX
  5
464
330
390
100
AcDbEntity
  8
Cuenca
370
     0
100
AcDbVertex
100
AcDb2dVertex
 10
3595.143038711189
 20
7458.447766054081
 30
0.0
  0
VERTEX
  5
465
330
390
100
AcDbEntity
  8
Cuenca
370
     0
100
AcDbVertex
100
AcDb2dVertex
 10
3594.120155942729
 20
7458.703486746196
 30
0.0
  0
VERTEX
  5
466
330
390
100
AcDbEntity
  8
Cuenca
370
     0
100
AcDbVertex
100
AcDb2dVertex
 10
3594.375876634843
 20
7459.214928130426
 30
0.0
  0
VERTEX
  5
467
330
390
100
AcDbEntity
  8
Cuenca
370
     0
100
AcDbVertex
100
AcDb2dVertex
 10
3593.352993866383
 20
7459.982090206771
 30
0.0
  0
VERTEX
  5
468
330
390
100
AcDbEntity
  8
Cuenca
370
     0
100
AcDbVertex
100
AcDb2dVertex
 10
3592.074390405808
 20
7460.237810898886
 30
0.0
  0
VERTEX
  5
469
330
390
100
AcDbEntity
  8
Cuenca
370
     0
100
AcDbVertex
100
AcDb2dVertex
 10
3591.818669713692
 20
7459.726369514656
 30
0.0
  0
VERTEX
  5
46A
330
390
100
AcDbEntity
  8
Cuenca
370
     0
100
AcDbVertex
100
AcDb2dVertex
 10
3591.307228329463
 20
7459.726369514656
 30
0.0
  0
VERTEX
  5
46B
330
390
100
AcDbEntity
  8
Cuenca
370
     0
100
AcDbVertex
100
AcDb2dVertex
 10
3590.795786945232
 20
7460.237810898886
 30
0.0
  0
VERTEX
  5
46C
330
390
100
AcDbEntity
  8
Cuenca
370
     0
100
AcDbVertex
100
AcDb2dVertex
 10
3590.028624868887
 20
7461.516414359462
 30
0.0
  0
VERTEX
  5
46D
330
390
100
AcDbEntity
  8
Cuenca
370
     0
100
AcDbVertex
100
AcDb2dVertex
 10
3589.005742100427
 20
7462.283576435807
 30
0.0
  0
VERTEX
  5
46E
330
390
100
AcDbEntity
  8
Cuenca
370
     0
100
AcDbVertex
100
AcDb2dVertex
 10
3587.215697255622
 20
7463.050738512151
 30
0.0
  0
VERTEX
  5
46F
330
390
100
AcDbEntity
  8
Cuenca
370
     0
100
AcDbVertex
100
AcDb2dVertex
 10
3586.192814487162
 20
7464.073621280611
 30
0.0
  0
VERTEX
  5
470
330
390
100
AcDbEntity
  8
Cuenca
370
     0
100
AcDbVertex
100
AcDb2dVertex
 10
3585.937093795047
 20
7464.329341972727
 30
0.0
  0
VERTEX
  5
471
330
390
100
AcDbEntity
  8
Cuenca
370
     0
100
AcDbVertex
100
AcDb2dVertex
 10
3585.681373102931
 20
7464.585062664842
 30
0.0
  0
VERTEX
  5
472
330
390
100
AcDbEntity
  8
Cuenca
370
     0
100
AcDbVertex
100
AcDb2dVertex
 10
3585.937093795047
 20
7464.840783356958
 30
0.0
  0
VERTEX
  5
473
330
390
100
AcDbEntity
  8
Cuenca
370
     0
100
AcDbVertex
100
AcDb2dVertex
 10
3585.937093795047
 20
7465.096504049071
 30
0.0
  0
VERTEX
  5
474
330
390
100
AcDbEntity
  8
Cuenca
370
     0
100
AcDbVertex
100
AcDb2dVertex
 10
3585.681373102931
 20
7465.607945433302
 30
0.0
  0
VERTEX
  5
475
330
390
100
AcDbEntity
  8
Cuenca
370
     0
100
AcDbVertex
100
AcDb2dVertex
 10
3584.914211026587
 20
7465.863666125418
 30
0.0
  0
VERTEX
  5
476
330
390
100
AcDbEntity
  8
Cuenca
370
     0
100
AcDbVertex
100
AcDb2dVertex
 10
3584.147048950241
 20
7466.119386817533
 30
0.0
  0
VERTEX
  5
477
330
390
100
AcDbEntity
  8
Cuenca
370
     0
100
AcDbVertex
100
AcDb2dVertex
 10
3583.635607566011
 20
7465.863666125418
 30
0.0
  0
VERTEX
  5
478
330
390
100
AcDbEntity
  8
Cuenca
370
     0
100
AcDbVertex
100
AcDb2dVertex
 10
3583.124166181781
 20
7466.119386817533
 30
0.0
  0
VERTEX
  5
479
330
390
100
AcDbEntity
  8
Cuenca
370
     0
100
AcDbVertex
100
AcDb2dVertex
 10
3583.124166181781
 20
7466.375107509647
 30
0.0
  0
VERTEX
  5
47A
330
390
100
AcDbEntity
  8
Cuenca
370
     0
100
AcDbVertex
100
AcDb2dVertex
 10
3583.379886873897
 20
7467.653710970224
 30
0.0
  0
VERTEX
  5
47B
330
390
100
AcDbEntity
  8
Cuenca
370
     0
100
AcDbVertex
100
AcDb2dVertex
 10
3583.379886873897
 20
7468.165152354453
 30
0.0
  0
VERTEX
  5
47C
330
390
100
AcDbEntity
  8
Cuenca
370
     0
100
AcDbVertex
100
AcDb2dVertex
 10
3582.868445489666
 20
7468.676593738682
 30
0.0
  0
VERTEX
  5
47D
330
390
100
AcDbEntity
  8
Cuenca
370
     0
100
AcDbVertex
100
AcDb2dVertex
 10
3581.589842029091
 20
7468.420873046568
 30
0.0
  0
VERTEX
  5
47E
330
390
100
AcDbEntity
  8
Cuenca
370
     0
100
AcDbVertex
100
AcDb2dVertex
 10
3581.334121336976
 20
7468.420873046568
 30
0.0
  0
VERTEX
  5
47F
330
390
100
AcDbEntity
  8
Cuenca
370
     0
100
AcDbVertex
100
AcDb2dVertex
 10
3580.566959260631
 20
7468.165152354453
 30
0.0
  0
VERTEX
  5
480
330
390
100
AcDbEntity
  8
Cuenca
370
     0
100
AcDbVertex
100
AcDb2dVertex
 10
3580.055517876401
 20
7468.676593738682
 30
0.0
  0
VERTEX
  5
481
330
390
100
AcDbEntity
  8
Cuenca
370
     0
100
AcDbVertex
100
AcDb2dVertex
 10
3579.032635107941
 20
7469.443755815028
 30
0.0
  0
VERTEX
  5
482
330
390
100
AcDbEntity
  8
Cuenca
370
     0
100
AcDbVertex
100
AcDb2dVertex
 10
3578.265473031596
 20
7469.955197199258
 30
0.0
  0
VERTEX
  5
483
330
390
100
AcDbEntity
  8
Cuenca
370
     0
100
AcDbVertex
100
AcDb2dVertex
 10
3578.00975233948
 20
7470.722359275604
 30
0.0
  0
VERTEX
  5
484
330
390
100
AcDbEntity
  8
Cuenca
370
     0
100
AcDbVertex
100
AcDb2dVertex
 10
3578.265473031596
 20
7472.000962736179
 30
0.0
  0
VERTEX
  5
485
330
390
100
AcDbEntity
  8
Cuenca
370
     0
100
AcDbVertex
100
AcDb2dVertex
 10
3578.265473031596
 20
7473.535286888868
 30
0.0
  0
VERTEX
  5
486
330
390
100
AcDbEntity
  8
Cuenca
370
     0
100
AcDbVertex
100
AcDb2dVertex
 10
3578.521193723711
 20
7474.046728273099
 30
0.0
  0
VERTEX
  5
487
330
390
100
AcDbEntity
  8
Cuenca
370
     0
100
AcDbVertex
100
AcDb2dVertex
 10
3578.00975233948
 20
7474.813890349444
 30
0.0
  0
VERTEX
  5
488
330
390
100
AcDbEntity
  8
Cuenca
370
     0
100
AcDbVertex
100
AcDb2dVertex
 10
3578.00975233948
 20
7475.581052425788
 30
0.0
  0
VERTEX
  5
489
330
390
100
AcDbEntity
  8
Cuenca
370
     0
100
AcDbVertex
100
AcDb2dVertex
 10
3577.242590263136
 20
7475.836773117904
 30
0.0
  0
VERTEX
  5
48A
330
390
100
AcDbEntity
  8
Cuenca
370
     0
100
AcDbVertex
100
AcDb2dVertex
 10
3577.242590263136
 20
7477.115376578479
 30
0.0
  0
VERTEX
  5
48B
330
390
100
AcDbEntity
  8
Cuenca
370
     0
100
AcDbVertex
100
AcDb2dVertex
 10
3576.98686957102
 20
7479.1611421154
 30
0.0
  0
VERTEX
  5
48C
330
390
100
AcDbEntity
  8
Cuenca
370
     0
100
AcDbVertex
100
AcDb2dVertex
 10
3576.98686957102
 20
7480.18402488386
 30
0.0
  0
VERTEX
  5
48D
330
390
100
AcDbEntity
  8
Cuenca
370
     0
100
AcDbVertex
100
AcDb2dVertex
 10
3577.242590263136
 20
7481.462628344435
 30
0.0
  0
VERTEX
  5
48E
330
390
100
AcDbEntity
  8
Cuenca
370
     0
100
AcDbVertex
100
AcDb2dVertex
 10
3576.731148878906
 20
7482.22979042078
 30
0.0
  0
VERTEX
  5
48F
330
390
100
AcDbEntity
  8
Cuenca
370
     0
100
AcDbVertex
100
AcDb2dVertex
 10
3576.47542818679
 20
7482.22979042078
 30
0.0
  0
VERTEX
  5
490
330
390
100
AcDbEntity
  8
Cuenca
370
     0
100
AcDbVertex
100
AcDb2dVertex
 10
3575.96398680256
 20
7482.741231805011
 30
0.0
  0
VERTEX
  5
491
330
390
100
AcDbEntity
  8
Cuenca
370
     0
100
AcDbVertex
100
AcDb2dVertex
 10
3575.45254541833
 20
7484.531276649815
 30
0.0
  0
VERTEX
  5
492
330
390
100
AcDbEntity
  8
Cuenca
370
     0
100
AcDbVertex
100
AcDb2dVertex
 10
3575.196824726215
 20
7485.29843872616
 30
0.0
  0
VERTEX
  5
493
330
390
100
AcDbEntity
  8
Cuenca
370
     0
100
AcDbVertex
100
AcDb2dVertex
 10
3574.685383341985
 20
7486.065600802506
 30
0.0
  0
VERTEX
  5
494
330
390
100
AcDbEntity
  8
Cuenca
370
     0
100
AcDbVertex
100
AcDb2dVertex
 10
3573.918221265639
 20
7486.577042186735
 30
0.0
  0
VERTEX
  5
495
330
390
100
AcDbEntity
  8
Cuenca
370
     0
100
AcDbVertex
100
AcDb2dVertex
 10
3573.662500573525
 20
7487.088483570966
 30
0.0
  0
VERTEX
  5
496
330
390
100
AcDbEntity
  8
Cuenca
370
     0
100
AcDbVertex
100
AcDb2dVertex
 10
3573.662500573525
 20
7487.344204263081
 30
0.0
  0
VERTEX
  5
497
330
390
100
AcDbEntity
  8
Cuenca
370
     0
100
AcDbVertex
100
AcDb2dVertex
 10
3573.662500573525
 20
7487.599924955197
 30
0.0
  0
VERTEX
  5
498
330
390
100
AcDbEntity
  8
Cuenca
370
     0
100
AcDbVertex
100
AcDb2dVertex
 10
3573.662500573525
 20
7488.367087031541
 30
0.0
  0
VERTEX
  5
499
330
390
100
AcDbEntity
  8
Cuenca
370
     0
100
AcDbVertex
100
AcDb2dVertex
 10
3573.662500573525
 20
7488.878528415772
 30
0.0
  0
VERTEX
  5
49A
330
390
100
AcDbEntity
  8
Cuenca
370
     0
100
AcDbVertex
100
AcDb2dVertex
 10
3573.918221265639
 20
7489.134249107888
 30
0.0
  0
VERTEX
  5
49B
330
390
100
AcDbEntity
  8
Cuenca
370
     0
100
AcDbVertex
100
AcDb2dVertex
 10
3573.918221265639
 20
7490.157131876346
 30
0.0
  0
VERTEX
  5
49C
330
390
100
AcDbEntity
  8
Cuenca
370
     0
100
AcDbVertex
100
AcDb2dVertex
 10
3573.406779881409
 20
7491.435735336921
 30
0.0
  0
VERTEX
  5
49D
330
390
100
AcDbEntity
  8
Cuenca
370
     0
100
AcDbVertex
100
AcDb2dVertex
 10
3573.406779881409
 20
7492.202897413267
 30
0.0
  0
VERTEX
  5
49E
330
390
100
AcDbEntity
  8
Cuenca
370
     0
100
AcDbVertex
100
AcDb2dVertex
 10
3573.151059189294
 20
7492.970059489612
 30
0.0
  0
VERTEX
  5
49F
330
390
100
AcDbEntity
  8
Cuenca
370
     0
100
AcDbVertex
100
AcDb2dVertex
 10
3572.38389711295
 20
7493.481500873842
 30
0.0
  0
VERTEX
  5
4A0
330
390
100
AcDbEntity
  8
Cuenca
370
     0
100
AcDbVertex
100
AcDb2dVertex
 10
3571.87245572872
 20
7493.481500873842
 30
0.0
  0
VERTEX
  5
4A1
330
390
100
AcDbEntity
  8
Cuenca
370
     0
100
AcDbVertex
100
AcDb2dVertex
 10
3571.87245572872
 20
7493.737221565957
 30
0.0
  0
VERTEX
  5
4A2
330
390
100
AcDbEntity
  8
Cuenca
370
     0
100
AcDbVertex
100
AcDb2dVertex
 10
3571.87245572872
 20
7494.248662950187
 30
0.0
  0
VERTEX
  5
4A3
330
390
100
AcDbEntity
  8
Cuenca
370
     0
100
AcDbVertex
100
AcDb2dVertex
 10
3572.38389711295
 20
7496.294428487107
 30
0.0
  0
VERTEX
  5
4A4
330
390
100
AcDbEntity
  8
Cuenca
370
     0
100
AcDbVertex
100
AcDb2dVertex
 10
3572.639617805065
 20
7497.573031947682
 30
0.0
  0
VERTEX
  5
4A5
330
390
100
AcDbEntity
  8
Cuenca
370
     0
100
AcDbVertex
100
AcDb2dVertex
 10
3572.895338497179
 20
7498.851635408257
 30
0.0
  0
VERTEX
  5
4A6
330
390
100
AcDbEntity
  8
Cuenca
370
     0
100
AcDbVertex
100
AcDb2dVertex
 10
3573.918221265639
 20
7499.874518176717
 30
0.0
  0
VERTEX
  5
4A7
330
390
100
AcDbEntity
  8
Cuenca
370
     0
100
AcDbVertex
100
AcDb2dVertex
 10
3574.173941957755
 20
7500.641680253064
 30
0.0
  0
VERTEX
  5
4A8
330
390
100
AcDbEntity
  8
Cuenca
370
     0
100
AcDbVertex
100
AcDb2dVertex
 10
3574.173941957755
 20
7501.153121637293
 30
0.0
  0
VERTEX
  5
4A9
330
390
100
AcDbEntity
  8
Cuenca
370
     0
100
AcDbVertex
100
AcDb2dVertex
 10
3573.662500573525
 20
7501.664563021524
 30
0.0
  0
VERTEX
  5
4AA
330
390
100
AcDbEntity
  8
Cuenca
370
     0
100
AcDbVertex
100
AcDb2dVertex
 10
3573.406779881409
 20
7501.920283713637
 30
0.0
  0
VERTEX
  5
4AB
330
390
100
AcDbEntity
  8
Cuenca
370
     0
100
AcDbVertex
100
AcDb2dVertex
 10
3572.639617805065
 20
7501.920283713637
 30
0.0
  0
VERTEX
  5
4AC
330
390
100
AcDbEntity
  8
Cuenca
370
     0
100
AcDbVertex
100
AcDb2dVertex
 10
3572.38389711295
 20
7502.176004405754
 30
0.0
  0
VERTEX
  5
4AD
330
390
100
AcDbEntity
  8
Cuenca
370
     0
100
AcDbVertex
100
AcDb2dVertex
 10
3572.639617805065
 20
7502.943166482099
 30
0.0
  0
VERTEX
  5
4AE
330
390
100
AcDbEntity
  8
Cuenca
370
     0
100
AcDbVertex
100
AcDb2dVertex
 10
3572.639617805065
 20
7503.198887174214
 30
0.0
  0
VERTEX
  5
4AF
330
390
100
AcDbEntity
  8
Cuenca
370
     0
100
AcDbVertex
100
AcDb2dVertex
 10
3572.639617805065
 20
7503.45460786633
 30
0.0
  0
VERTEX
  5
4B0
330
390
100
AcDbEntity
  8
Cuenca
370
     0
100
AcDbVertex
100
AcDb2dVertex
 10
3572.128176420835
 20
7503.710328558444
 30
0.0
  0
VERTEX
  5
4B1
330
390
100
AcDbEntity
  8
Cuenca
370
     0
100
AcDbVertex
100
AcDb2dVertex
 10
3571.87245572872
 20
7503.966049250559
 30
0.0
  0
VERTEX
  5
4B2
330
390
100
AcDbEntity
  8
Cuenca
370
     0
100
AcDbVertex
100
AcDb2dVertex
 10
3571.36101434449
 20
7503.966049250559
 30
0.0
  0
VERTEX
  5
4B3
330
390
100
AcDbEntity
  8
Cuenca
370
     0
100
AcDbVertex
100
AcDb2dVertex
 10
3571.105293652375
 20
7503.966049250559
 30
0.0
  0
VERTEX
  5
4B4
330
390
100
AcDbEntity
  8
Cuenca
370
     0
100
AcDbVertex
100
AcDb2dVertex
 10
3570.849572960259
 20
7503.710328558444
 30
0.0
  0
VERTEX
  5
4B5
330
390
100
AcDbEntity
  8
Cuenca
370
     0
100
AcDbVertex
100
AcDb2dVertex
 10
3570.593852268145
 20
7503.45460786633
 30
0.0
  0
VERTEX
  5
4B6
330
390
100
AcDbEntity
  8
Cuenca
370
     0
100
AcDbVertex
100
AcDb2dVertex
 10
3570.338131576029
 20
7503.198887174214
 30
0.0
  0
VERTEX
  5
4B7
330
390
100
AcDbEntity
  8
Cuenca
370
     0
100
AcDbVertex
100
AcDb2dVertex
 10
3569.570969499685
 20
7503.45460786633
 30
0.0
  0
VERTEX
  5
4B8
330
390
100
AcDbEntity
  8
Cuenca
370
     0
100
AcDbVertex
100
AcDb2dVertex
 10
3569.315248807569
 20
7503.45460786633
 30
0.0
  0
VERTEX
  5
4B9
330
390
100
AcDbEntity
  8
Cuenca
370
     0
100
AcDbVertex
100
AcDb2dVertex
 10
3569.059528115454
 20
7503.966049250559
 30
0.0
  0
VERTEX
  5
4BA
330
390
100
AcDbEntity
  8
Cuenca
370
     0
100
AcDbVertex
100
AcDb2dVertex
 10
3569.315248807569
 20
7504.733211326904
 30
0.0
  0
VERTEX
  5
4BB
330
390
100
AcDbEntity
  8
Cuenca
370
     0
100
AcDbVertex
100
AcDb2dVertex
 10
3569.570969499685
 20
7505.50037340325
 30
0.0
  0
VERTEX
  5
4BC
330
390
100
AcDbEntity
  8
Cuenca
370
     0
100
AcDbVertex
100
AcDb2dVertex
 10
3569.315248807569
 20
7506.011814787479
 30
0.0
  0
VERTEX
  5
4BD
330
390
100
AcDbEntity
  8
Cuenca
370
     0
100
AcDbVertex
100
AcDb2dVertex
 10
3569.059528115454
 20
7506.52325617171
 30
0.0
  0
VERTEX
  5
4BE
330
390
100
AcDbEntity
  8
Cuenca
370
     0
100
AcDbVertex
100
AcDb2dVertex
 10
3569.315248807569
 20
7507.54613894017
 30
0.0
  0
VERTEX
  5
4BF
330
390
100
AcDbEntity
  8
Cuenca
370
     0
100
AcDbVertex
100
AcDb2dVertex
 10
3569.315248807569
 20
7508.313301016515
 30
0.0
  0
VERTEX
  5
4C0
330
390
100
AcDbEntity
  8
Cuenca
370
     0
100
AcDbVertex
100
AcDb2dVertex
 10
3569.059528115454
 20
7509.08046309286
 30
0.0
  0
VERTEX
  5
4C1
330
390
100
AcDbEntity
  8
Cuenca
370
     0
100
AcDbVertex
100
AcDb2dVertex
 10
3569.059528115454
 20
7510.359066553435
 30
0.0
  0
VERTEX
  5
4C2
330
390
100
AcDbEntity
  8
Cuenca
370
     0
100
AcDbVertex
100
AcDb2dVertex
 10
3569.315248807569
 20
7510.870507937664
 30
0.0
  0
VERTEX
  5
4C3
330
390
100
AcDbEntity
  8
Cuenca
370
     0
100
AcDbVertex
100
AcDb2dVertex
 10
3569.315248807569
 20
7511.637670014009
 30
0.0
  0
VERTEX
  5
4C4
330
390
100
AcDbEntity
  8
Cuenca
370
     0
100
AcDbVertex
100
AcDb2dVertex
 10
3569.315248807569
 20
7512.14911139824
 30
0.0
  0
VERTEX
  5
4C5
330
390
100
AcDbEntity
  8
Cuenca
370
     0
100
AcDbVertex
100
AcDb2dVertex
 10
3569.570969499685
 20
7512.404832090355
 30
0.0
  0
VERTEX
  5
4C6
330
390
100
AcDbEntity
  8
Cuenca
370
     0
100
AcDbVertex
100
AcDb2dVertex
 10
3569.826690191799
 20
7512.66055278247
 30
0.0
  0
VERTEX
  5
4C7
330
390
100
AcDbEntity
  8
Cuenca
370
     0
100
AcDbVertex
100
AcDb2dVertex
 10
3570.082410883914
 20
7512.916273474584
 30
0.0
  0
VERTEX
  5
4C8
330
390
100
AcDbEntity
  8
Cuenca
370
     0
100
AcDbVertex
100
AcDb2dVertex
 10
3570.082410883914
 20
7512.916273474584
 30
0.0
  0
VERTEX
  5
4C9
330
390
100
AcDbEntity
  8
Cuenca
370
     0
100
AcDbVertex
100
AcDb2dVertex
 10
3570.849572960259
 20
7513.68343555093
 30
0.0
  0
VERTEX
  5
4CA
330
390
100
AcDbEntity
  8
Cuenca
370
     0
100
AcDbVertex
100
AcDb2dVertex
 10
3571.105293652375
 20
7514.19487693516
 30
0.0
  0
VERTEX
  5
4CB
330
390
100
AcDbEntity
  8
Cuenca
370
     0
100
AcDbVertex
100
AcDb2dVertex
 10
3571.36101434449
 20
7514.70631831939
 30
0.0
  0
VERTEX
  5
4CC
330
390
100
AcDbEntity
  8
Cuenca
370
     0
100
AcDbVertex
100
AcDb2dVertex
 10
3571.87245572872
 20
7515.217759703621
 30
0.0
  0
VERTEX
  5
4CD
330
390
100
AcDbEntity
  8
Cuenca
370
     0
100
AcDbVertex
100
AcDb2dVertex
 10
3572.128176420835
 20
7515.984921779966
 30
0.0
  0
VERTEX
  5
4CE
330
390
100
AcDbEntity
  8
Cuenca
370
     0
100
AcDbVertex
100
AcDb2dVertex
 10
3572.639617805065
 20
7516.496363164195
 30
0.0
  0
VERTEX
  5
4CF
330
390
100
AcDbEntity
  8
Cuenca
370
     0
100
AcDbVertex
100
AcDb2dVertex
 10
3573.151059189294
 20
7517.77496662477
 30
0.0
  0
VERTEX
  5
4D0
330
390
100
AcDbEntity
  8
Cuenca
370
     0
100
AcDbVertex
100
AcDb2dVertex
 10
3573.406779881409
 20
7518.797849393232
 30
0.0
  0
VERTEX
  5
4D1
330
390
100
AcDbEntity
  8
Cuenca
370
     0
100
AcDbVertex
100
AcDb2dVertex
 10
3573.918221265639
 20
7520.076452853807
 30
0.0
  0
VERTEX
  5
4D2
330
390
100
AcDbEntity
  8
Cuenca
370
     0
100
AcDbVertex
100
AcDb2dVertex
 10
3574.173941957755
 20
7520.332173545921
 30
0.0
  0
VERTEX
  5
4D3
330
390
100
AcDbEntity
  8
Cuenca
370
     0
100
AcDbVertex
100
AcDb2dVertex
 10
3574.173941957755
 20
7521.099335622267
 30
0.0
  0
VERTEX
  5
4D4
330
390
100
AcDbEntity
  8
Cuenca
370
     0
100
AcDbVertex
100
AcDb2dVertex
 10
3574.42966264987
 20
7522.122218390727
 30
0.0
  0
VERTEX
  5
4D5
330
390
100
AcDbEntity
  8
Cuenca
370
     0
100
AcDbVertex
100
AcDb2dVertex
 10
3574.42966264987
 20
7522.377939082843
 30
0.0
  0
VERTEX
  5
4D6
330
390
100
AcDbEntity
  8
Cuenca
370
     0
100
AcDbVertex
100
AcDb2dVertex
 10
3574.941104034099
 20
7522.889380467074
 30
0.0
  0
VERTEX
  5
4D7
330
390
100
AcDbEntity
  8
Cuenca
370
     0
100
AcDbVertex
100
AcDb2dVertex
 10
3575.196824726215
 20
7523.145101159187
 30
0.0
  0
VERTEX
  5
4D8
330
390
100
AcDbEntity
  8
Cuenca
370
     0
100
AcDbVertex
100
AcDb2dVertex
 10
3575.45254541833
 20
7523.145101159187
 30
0.0
  0
VERTEX
  5
4D9
330
390
100
AcDbEntity
  8
Cuenca
370
     0
100
AcDbVertex
100
AcDb2dVertex
 10
3575.708266110445
 20
7523.145101159187
 30
0.0
  0
VERTEX
  5
4DA
330
390
100
AcDbEntity
  8
Cuenca
370
     0
100
AcDbVertex
100
AcDb2dVertex
 10
3575.45254541833
 20
7524.167983927647
 30
0.0
  0
VERTEX
  5
4DB
330
390
100
AcDbEntity
  8
Cuenca
370
     0
100
AcDbVertex
100
AcDb2dVertex
 10
3575.45254541833
 20
7525.190866696107
 30
0.0
  0
VERTEX
  5
4DC
330
390
100
AcDbEntity
  8
Cuenca
370
     0
100
AcDbVertex
100
AcDb2dVertex
 10
3575.708266110445
 20
7526.213749464567
 30
0.0
  0
VERTEX
  5
4DD
330
390
100
AcDbEntity
  8
Cuenca
370
     0
100
AcDbVertex
100
AcDb2dVertex
 10
3576.47542818679
 20
7527.492352925142
 30
0.0
  0
VERTEX
  5
4DE
330
390
100
AcDbEntity
  8
Cuenca
370
     0
100
AcDbVertex
100
AcDb2dVertex
 10
3576.98686957102
 20
7528.770956385717
 30
0.0
  0
VERTEX
  5
4DF
330
390
100
AcDbEntity
  8
Cuenca
370
     0
100
AcDbVertex
100
AcDb2dVertex
 10
3577.242590263136
 20
7530.305280538408
 30
0.0
  0
VERTEX
  5
4E0
330
390
100
AcDbEntity
  8
Cuenca
370
     0
100
AcDbVertex
100
AcDb2dVertex
 10
3577.498310955251
 20
7531.072442614753
 30
0.0
  0
VERTEX
  5
4E1
330
390
100
AcDbEntity
  8
Cuenca
370
     0
100
AcDbVertex
100
AcDb2dVertex
 10
3577.754031647366
 20
7531.072442614753
 30
0.0
  0
VERTEX
  5
4E2
330
390
100
AcDbEntity
  8
Cuenca
370
     0
100
AcDbVertex
100
AcDb2dVertex
 10
3578.265473031596
 20
7531.072442614753
 30
0.0
  0
VERTEX
  5
4E3
330
390
100
AcDbEntity
  8
Cuenca
370
     0
100
AcDbVertex
100
AcDb2dVertex
 10
3578.776914415826
 20
7531.072442614753
 30
0.0
  0
VERTEX
  5
4E4
330
390
100
AcDbEntity
  8
Cuenca
370
     0
100
AcDbVertex
100
AcDb2dVertex
 10
3579.288355800056
 20
7530.561001230523
 30
0.0
  0
VERTEX
  5
4E5
330
390
100
AcDbEntity
  8
Cuenca
370
     0
100
AcDbVertex
100
AcDb2dVertex
 10
3579.544076492171
 20
7530.305280538408
 30
0.0
  0
VERTEX
  5
4E6
330
390
100
AcDbEntity
  8
Cuenca
370
     0
100
AcDbVertex
100
AcDb2dVertex
 10
3579.799797184286
 20
7530.305280538408
 30
0.0
  0
VERTEX
  5
4E7
330
390
100
AcDbEntity
  8
Cuenca
370
     0
100
AcDbVertex
100
AcDb2dVertex
 10
3580.822679952746
 20
7530.305280538408
 30
0.0
  0
VERTEX
  5
4E8
330
390
100
AcDbEntity
  8
Cuenca
370
     0
100
AcDbVertex
100
AcDb2dVertex
 10
3581.078400644861
 20
7530.305280538408
 30
0.0
  0
VERTEX
  5
4E9
330
390
100
AcDbEntity
  8
Cuenca
370
     0
100
AcDbVertex
100
AcDb2dVertex
 10
3581.589842029091
 20
7530.049559846293
 30
0.0
  0
VERTEX
  5
4EA
330
390
100
AcDbEntity
  8
Cuenca
370
     0
100
AcDbVertex
100
AcDb2dVertex
 10
3581.845562721206
 20
7529.282397769948
 30
0.0
  0
VERTEX
  5
4EB
330
390
100
AcDbEntity
  8
Cuenca
370
     0
100
AcDbVertex
100
AcDb2dVertex
 10
3581.845562721206
 20
7528.515235693603
 30
0.0
  0
VERTEX
  5
4EC
330
390
100
AcDbEntity
  8
Cuenca
370
     0
100
AcDbVertex
100
AcDb2dVertex
 10
3581.589842029091
 20
7527.492352925142
 30
0.0
  0
VERTEX
  5
4ED
330
390
100
AcDbEntity
  8
Cuenca
370
     0
100
AcDbVertex
100
AcDb2dVertex
 10
3581.845562721206
 20
7526.980911540913
 30
0.0
  0
VERTEX
  5
4EE
330
390
100
AcDbEntity
  8
Cuenca
370
     0
100
AcDbVertex
100
AcDb2dVertex
 10
3582.357004105436
 20
7526.725190848797
 30
0.0
  0
VERTEX
  5
4EF
330
390
100
AcDbEntity
  8
Cuenca
370
     0
100
AcDbVertex
100
AcDb2dVertex
 10
3582.612724797551
 20
7526.725190848797
 30
0.0
  0
VERTEX
  5
4F0
330
390
100
AcDbEntity
  8
Cuenca
370
     0
100
AcDbVertex
100
AcDb2dVertex
 10
3583.124166181781
 20
7526.469470156682
 30
0.0
  0
VERTEX
  5
4F1
330
390
100
AcDbEntity
  8
Cuenca
370
     0
100
AcDbVertex
100
AcDb2dVertex
 10
3583.635607566011
 20
7525.190866696107
 30
0.0
  0
VERTEX
  5
4F2
330
390
100
AcDbEntity
  8
Cuenca
370
     0
100
AcDbVertex
100
AcDb2dVertex
 10
3584.147048950241
 20
7523.656542543418
 30
0.0
  0
VERTEX
  5
4F3
330
390
100
AcDbEntity
  8
Cuenca
370
     0
100
AcDbVertex
100
AcDb2dVertex
 10
3584.147048950241
 20
7523.145101159187
 30
0.0
  0
VERTEX
  5
4F4
330
390
100
AcDbEntity
  8
Cuenca
370
     0
100
AcDbVertex
100
AcDb2dVertex
 10
3584.147048950241
 20
7521.866497698612
 30
0.0
  0
VERTEX
  5
4F5
330
390
100
AcDbEntity
  8
Cuenca
370
     0
100
AcDbVertex
100
AcDb2dVertex
 10
3584.402769642357
 20
7521.099335622267
 30
0.0
  0
VERTEX
  5
4F6
330
390
100
AcDbEntity
  8
Cuenca
370
     0
100
AcDbVertex
100
AcDb2dVertex
 10
3584.402769642357
 20
7520.076452853807
 30
0.0
  0
VERTEX
  5
4F7
330
390
100
AcDbEntity
  8
Cuenca
370
     0
100
AcDbVertex
100
AcDb2dVertex
 10
3584.658490334471
 20
7518.797849393232
 30
0.0
  0
VERTEX
  5
4F8
330
390
100
AcDbEntity
  8
Cuenca
370
     0
100
AcDbVertex
100
AcDb2dVertex
 10
3584.914211026587
 20
7518.797849393232
 30
0.0
  0
VERTEX
  5
4F9
330
390
100
AcDbEntity
  8
Cuenca
370
     0
100
AcDbVertex
100
AcDb2dVertex
 10
3585.169931718702
 20
7518.542128701117
 30
0.0
  0
VERTEX
  5
4FA
330
390
100
AcDbEntity
  8
Cuenca
370
     0
100
AcDbVertex
100
AcDb2dVertex
 10
3585.681373102931
 20
7518.797849393232
 30
0.0
  0
VERTEX
  5
4FB
330
390
100
AcDbEntity
  8
Cuenca
370
     0
100
AcDbVertex
100
AcDb2dVertex
 10
3586.192814487162
 20
7519.820732161692
 30
0.0
  0
VERTEX
  5
4FC
330
390
100
AcDbEntity
  8
Cuenca
370
     0
100
AcDbVertex
100
AcDb2dVertex
 10
3586.448535179278
 20
7521.355056314381
 30
0.0
  0
VERTEX
  5
4FD
330
390
100
AcDbEntity
  8
Cuenca
370
     0
100
AcDbVertex
100
AcDb2dVertex
 10
3586.704255871392
 20
7522.377939082843
 30
0.0
  0
VERTEX
  5
4FE
330
390
100
AcDbEntity
  8
Cuenca
370
     0
100
AcDbVertex
100
AcDb2dVertex
 10
3586.959976563507
 20
7522.889380467074
 30
0.0
  0
VERTEX
  5
4FF
330
390
100
AcDbEntity
  8
Cuenca
370
     0
100
AcDbVertex
100
AcDb2dVertex
 10
3588.238580024083
 20
7522.889380467074
 30
0.0
  0
VERTEX
  5
500
330
390
100
AcDbEntity
  8
Cuenca
370
     0
100
AcDbVertex
100
AcDb2dVertex
 10
3589.005742100427
 20
7522.889380467074
 30
0.0
  0
VERTEX
  5
501
330
390
100
AcDbEntity
  8
Cuenca
370
     0
100
AcDbVertex
100
AcDb2dVertex
 10
3589.261462792542
 20
7522.889380467074
 30
0.0
  0
VERTEX
  5
502
330
390
100
AcDbEntity
  8
Cuenca
370
     0
100
AcDbVertex
100
AcDb2dVertex
 10
3590.540066253117
 20
7523.145101159187
 30
0.0
  0
VERTEX
  5
503
330
390
100
AcDbEntity
  8
Cuenca
370
     0
100
AcDbVertex
100
AcDb2dVertex
 10
3591.562949021578
 20
7523.400821851303
 30
0.0
  0
VERTEX
  5
504
330
390
100
AcDbEntity
  8
Cuenca
370
     0
100
AcDbVertex
100
AcDb2dVertex
 10
3591.818669713692
 20
7523.400821851303
 30
0.0
  0
VERTEX
  5
505
330
390
100
AcDbEntity
  8
Cuenca
370
     0
100
AcDbVertex
100
AcDb2dVertex
 10
3592.330111097923
 20
7523.656542543418
 30
0.0
  0
VERTEX
  5
506
330
390
100
AcDbEntity
  8
Cuenca
370
     0
100
AcDbVertex
100
AcDb2dVertex
 10
3593.097273174268
 20
7524.167983927647
 30
0.0
  0
VERTEX
  5
507
330
390
100
AcDbEntity
  8
Cuenca
370
     0
100
AcDbVertex
100
AcDb2dVertex
 10
3594.120155942729
 20
7524.935146003993
 30
0.0
  0
VERTEX
  5
508
330
390
100
AcDbEntity
  8
Cuenca
370
     0
100
AcDbVertex
100
AcDb2dVertex
 10
3594.631597326958
 20
7524.935146003993
 30
0.0
  0
VERTEX
  5
509
330
390
100
AcDbEntity
  8
Cuenca
370
     0
100
AcDbVertex
100
AcDb2dVertex
 10
3594.887318019073
 20
7524.679425311878
 30
0.0
  0
VERTEX
  5
50A
330
390
100
AcDbEntity
  8
Cuenca
370
     0
100
AcDbVertex
100
AcDb2dVertex
 10
3595.398759403303
 20
7524.167983927647
 30
0.0
  0
VERTEX
  5
50B
330
390
100
AcDbEntity
  8
Cuenca
370
     0
100
AcDbVertex
100
AcDb2dVertex
 10
3595.910200787534
 20
7523.656542543418
 30
0.0
  0
VERTEX
  5
50C
330
390
100
AcDbEntity
  8
Cuenca
370
     0
100
AcDbVertex
100
AcDb2dVertex
 10
3596.165921479649
 20
7523.145101159187
 30
0.0
  0
VERTEX
  5
50D
330
390
100
AcDbEntity
  8
Cuenca
370
     0
100
AcDbVertex
100
AcDb2dVertex
 10
3596.677362863879
 20
7523.145101159187
 30
0.0
  0
VERTEX
  5
50E
330
390
100
AcDbEntity
  8
Cuenca
370
     0
100
AcDbVertex
100
AcDb2dVertex
 10
3597.444524940224
 20
7522.889380467074
 30
0.0
  0
VERTEX
  5
50F
330
390
100
AcDbEntity
  8
Cuenca
370
     0
100
AcDbVertex
100
AcDb2dVertex
 10
3598.467407708684
 20
7522.377939082843
 30
0.0
  0
VERTEX
  5
510
330
390
100
AcDbEntity
  8
Cuenca
370
     0
100
AcDbVertex
100
AcDb2dVertex
 10
3598.723128400799
 20
7522.122218390727
 30
0.0
  0
VERTEX
  5
511
330
390
100
AcDbEntity
  8
Cuenca
370
     0
100
AcDbVertex
100
AcDb2dVertex
 10
3599.234569785029
 20
7522.377939082843
 30
0.0
  0
VERTEX
  5
512
330
390
100
AcDbEntity
  8
Cuenca
370
     0
100
AcDbVertex
100
AcDb2dVertex
 10
3600.001731861374
 20
7522.122218390727
 30
0.0
  0
VERTEX
  5
513
330
390
100
AcDbEntity
  8
Cuenca
370
     0
100
AcDbVertex
100
AcDb2dVertex
 10
3600.001731861374
 20
7521.866497698612
 30
0.0
  0
VERTEX
  5
514
330
390
100
AcDbEntity
  8
Cuenca
370
     0
100
AcDbVertex
100
AcDb2dVertex
 10
3600.001731861374
 20
7521.355056314381
 30
0.0
  0
VERTEX
  5
515
330
390
100
AcDbEntity
  8
Cuenca
370
     0
100
AcDbVertex
100
AcDb2dVertex
 10
3599.490290477144
 20
7520.843614930152
 30
0.0
  0
VERTEX
  5
516
330
390
100
AcDbEntity
  8
Cuenca
370
     0
100
AcDbVertex
100
AcDb2dVertex
 10
3598.978849092914
 20
7520.076452853807
 30
0.0
  0
VERTEX
  5
517
330
390
100
AcDbEntity
  8
Cuenca
370
     0
100
AcDbVertex
100
AcDb2dVertex
 10
3598.723128400799
 20
7519.053570085346
 30
0.0
  0
VERTEX
  5
518
330
390
100
AcDbEntity
  8
Cuenca
370
     0
100
AcDbVertex
100
AcDb2dVertex
 10
3598.467407708684
 20
7518.286408009001
 30
0.0
  0
VERTEX
  5
519
330
390
100
AcDbEntity
  8
Cuenca
370
     0
100
AcDbVertex
100
AcDb2dVertex
 10
3598.467407708684
 20
7517.519245932657
 30
0.0
  0
VERTEX
  5
51A
330
390
100
AcDbEntity
  8
Cuenca
370
     0
100
AcDbVertex
100
AcDb2dVertex
 10
3598.723128400799
 20
7517.263525240541
 30
0.0
  0
VERTEX
  5
51B
330
390
100
AcDbEntity
  8
Cuenca
370
     0
100
AcDbVertex
100
AcDb2dVertex
 10
3598.467407708684
 20
7516.752083856312
 30
0.0
  0
VERTEX
  5
51C
330
390
100
AcDbEntity
  8
Cuenca
370
     0
100
AcDbVertex
100
AcDb2dVertex
 10
3597.955966324454
 20
7515.473480395737
 30
0.0
  0
VERTEX
  5
51D
330
390
100
AcDbEntity
  8
Cuenca
370
     0
100
AcDbVertex
100
AcDb2dVertex
 10
3597.700245632339
 20
7514.962039011506
 30
0.0
  0
VERTEX
  5
51E
330
390
100
AcDbEntity
  8
Cuenca
370
     0
100
AcDbVertex
100
AcDb2dVertex
 10
3597.444524940224
 20
7514.450597627275
 30
0.0
  0
VERTEX
  5
51F
330
390
100
AcDbEntity
  8
Cuenca
370
     0
100
AcDbVertex
100
AcDb2dVertex
 10
3597.444524940224
 20
7513.171994166701
 30
0.0
  0
VERTEX
  5
520
330
390
100
AcDbEntity
  8
Cuenca
370
     0
100
AcDbVertex
100
AcDb2dVertex
 10
3597.444524940224
 20
7512.66055278247
 30
0.0
  0
VERTEX
  5
521
330
390
100
AcDbEntity
  8
Cuenca
370
     0
100
AcDbVertex
100
AcDb2dVertex
 10
3596.933083555994
 20
7511.12622862978
 30
0.0
  0
VERTEX
  5
522
330
390
100
AcDbEntity
  8
Cuenca
370
     0
100
AcDbVertex
100
AcDb2dVertex
 10
3596.677362863879
 20
7510.61478724555
 30
0.0
  0
VERTEX
  5
523
330
390
100
AcDbEntity
  8
Cuenca
370
     0
100
AcDbVertex
100
AcDb2dVertex
 10
3596.677362863879
 20
7509.847625169205
 30
0.0
  0
VERTEX
  5
524
330
390
100
AcDbEntity
  8
Cuenca
370
     0
100
AcDbVertex
100
AcDb2dVertex
 10
3596.421642171764
 20
7509.08046309286
 30
0.0
  0
VERTEX
  5
525
330
390
100
AcDbEntity
  8
Cuenca
370
     0
100
AcDbVertex
100
AcDb2dVertex
 10
3595.654480095419
 20
7507.801859632285
 30
0.0
  0
VERTEX
  5
526
330
390
100
AcDbEntity
  8
Cuenca
370
     0
100
AcDbVertex
100
AcDb2dVertex
 10
3595.143038711189
 20
7507.03469755594
 30
0.0
  0
VERTEX
  5
527
330
390
100
AcDbEntity
  8
Cuenca
370
     0
100
AcDbVertex
100
AcDb2dVertex
 10
3594.887318019073
 20
7506.011814787479
 30
0.0
  0
VERTEX
  5
528
330
390
100
AcDbEntity
  8
Cuenca
370
     0
100
AcDbVertex
100
AcDb2dVertex
 10
3594.887318019073
 20
7505.50037340325
 30
0.0
  0
VERTEX
  5
529
330
390
100
AcDbEntity
  8
Cuenca
370
     0
100
AcDbVertex
100
AcDb2dVertex
 10
3594.631597326958
 20
7504.988932019019
 30
0.0
  0
VERTEX
  5
52A
330
390
100
AcDbEntity
  8
Cuenca
370
     0
100
AcDbVertex
100
AcDb2dVertex
 10
3594.120155942729
 20
7504.221769942674
 30
0.0
  0
VERTEX
  5
52B
330
390
100
AcDbEntity
  8
Cuenca
370
     0
100
AcDbVertex
100
AcDb2dVertex
 10
3593.864435250613
 20
7503.710328558444
 30
0.0
  0
VERTEX
  5
52C
330
390
100
AcDbEntity
  8
Cuenca
370
     0
100
AcDbVertex
100
AcDb2dVertex
 10
3593.608714558498
 20
7502.687445789984
 30
0.0
  0
VERTEX
  5
52D
330
390
100
AcDbEntity
  8
Cuenca
370
     0
100
AcDbVertex
100
AcDb2dVertex
 10
3593.864435250613
 20
7502.176004405754
 30
0.0
  0
VERTEX
  5
52E
330
390
100
AcDbEntity
  8
Cuenca
370
     0
100
AcDbVertex
100
AcDb2dVertex
 10
3594.375876634843
 20
7500.385959560948
 30
0.0
  0
VERTEX
  5
52F
330
390
100
AcDbEntity
  8
Cuenca
370
     0
100
AcDbVertex
100
AcDb2dVertex
 10
3594.631597326958
 20
7499.107356100373
 30
0.0
  0
VERTEX
  5
530
330
390
100
AcDbEntity
  8
Cuenca
370
     0
100
AcDbVertex
100
AcDb2dVertex
 10
3594.631597326958
 20
7498.084473331913
 30
0.0
  0
VERTEX
  5
531
330
390
100
AcDbEntity
  8
Cuenca
370
     0
100
AcDbVertex
100
AcDb2dVertex
 10
3594.887318019073
 20
7497.317311255568
 30
0.0
  0
VERTEX
  5
532
330
390
100
AcDbEntity
  8
Cuenca
370
     0
100
AcDbVertex
100
AcDb2dVertex
 10
3594.887318019073
 20
7496.038707794993
 30
0.0
  0
SEQEND
  5
533
330
390
100
AcDbEntity
  8
Cuenca
370
     0
  0
POLYLINE
  5
6DD
330
1F
100
AcDbEntity
  8
Cuenca
370
     0
100
AcDb2dPolyline
 66
     1
 10
0.0
 20
0.0
 30
0.0
  0
VERTEX
  5
6DE
330
6DD
100
AcDbEntity
  8
Cuenca
370
     0
100
AcDbVertex
100
AcDb2dVertex
 10
3594.887318019073
 20
7496.550149179222
 30
0.0
  0
VERTEX
  5
6DF
330
6DD
100
AcDbEntity
  8
Cuenca
370
     0
100
AcDbVertex
100
AcDb2dVertex
 10
3594.887318019073
 20
7496.038707794993
 30
0.0
  0
VERTEX
  5
6E0
330
6DD
100
AcDbEntity
  8
Cuenca
370
     0
100
AcDbVertex
100
AcDb2dVertex
 10
3594.887318019073
 20
7495.527266410762
 30
0.0
  0
VERTEX
  5
6E1
330
6DD
100
AcDbEntity
  8
Cuenca
370
     0
100
AcDbVertex
100
AcDb2dVertex
 10
3595.143038711189
 20
7494.760104334417
 30
0.0
  0
VERTEX
  5
6E2
330
6DD
100
AcDbEntity
  8
Cuenca
370
     0
100
AcDbVertex
100
AcDb2dVertex
 10
3595.398759403303
 20
7494.248662950187
 30
0.0
  0
VERTEX
  5
6E3
330
6DD
100
AcDbEntity
  8
Cuenca
370
     0
100
AcDbVertex
100
AcDb2dVertex
 10
3595.398759403303
 20
7493.481500873842
 30
0.0
  0
VERTEX
  5
6E4
330
6DD
100
AcDbEntity
  8
Cuenca
370
     0
100
AcDbVertex
100
AcDb2dVertex
 10
3595.398759403303
 20
7493.225780181727
 30
0.0
  0
VERTEX
  5
6E5
330
6DD
100
AcDbEntity
  8
Cuenca
370
     0
100
AcDbVertex
100
AcDb2dVertex
 10
3595.654480095419
 20
7492.970059489612
 30
0.0
  0
VERTEX
  5
6E6
330
6DD
100
AcDbEntity
  8
Cuenca
370
     0
100
AcDbVertex
100
AcDb2dVertex
 10
3595.910200787534
 20
7492.714338797497
 30
0.0
  0
VERTEX
  5
6E7
330
6DD
100
AcDbEntity
  8
Cuenca
370
     0
100
AcDbVertex
100
AcDb2dVertex
 10
3596.165921479649
 20
7491.435735336921
 30
0.0
  0
VERTEX
  5
6E8
330
6DD
100
AcDbEntity
  8
Cuenca
370
     0
100
AcDbVertex
100
AcDb2dVertex
 10
3596.421642171764
 20
7490.924293952692
 30
0.0
  0
VERTEX
  5
6E9
330
6DD
100
AcDbEntity
  8
Cuenca
370
     0
100
AcDbVertex
100
AcDb2dVertex
 10
3596.677362863879
 20
7490.412852568463
 30
0.0
  0
VERTEX
  5
6EA
330
6DD
100
AcDbEntity
  8
Cuenca
370
     0
100
AcDbVertex
100
AcDb2dVertex
 10
3597.188804248109
 20
7489.901411184232
 30
0.0
  0
VERTEX
  5
6EB
330
6DD
100
AcDbEntity
  8
Cuenca
370
     0
100
AcDbVertex
100
AcDb2dVertex
 10
3597.700245632339
 20
7489.645690492117
 30
0.0
  0
VERTEX
  5
6EC
330
6DD
100
AcDbEntity
  8
Cuenca
370
     0
100
AcDbVertex
100
AcDb2dVertex
 10
3598.211687016569
 20
7489.389969800001
 30
0.0
  0
VERTEX
  5
6ED
330
6DD
100
AcDbEntity
  8
Cuenca
370
     0
100
AcDbVertex
100
AcDb2dVertex
 10
3598.978849092914
 20
7489.389969800001
 30
0.0
  0
VERTEX
  5
6EE
330
6DD
100
AcDbEntity
  8
Cuenca
370
     0
100
AcDbVertex
100
AcDb2dVertex
 10
3599.490290477144
 20
7489.389969800001
 30
0.0
  0
VERTEX
  5
6EF
330
6DD
100
AcDbEntity
  8
Cuenca
370
     0
100
AcDbVertex
100
AcDb2dVertex
 10
3600.001731861374
 20
7489.645690492117
 30
0.0
  0
VERTEX
  5
6F0
330
6DD
100
AcDbEntity
  8
Cuenca
370
     0
100
AcDbVertex
100
AcDb2dVertex
 10
3600.768893937719
 20
7489.645690492117
 30
0.0
  0
VERTEX
  5
6F1
330
6DD
100
AcDbEntity
  8
Cuenca
370
     0
100
AcDbVertex
100
AcDb2dVertex
 10
3601.28033532195
 20
7489.645690492117
 30
0.0
  0
VERTEX
  5
6F2
330
6DD
100
AcDbEntity
  8
Cuenca
370
     0
100
AcDbVertex
100
AcDb2dVertex
 10
3602.047497398295
 20
7489.645690492117
 30
0.0
  0
VERTEX
  5
6F3
330
6DD
100
AcDbEntity
  8
Cuenca
370
     0
100
AcDbVertex
100
AcDb2dVertex
 10
3602.30321809041
 20
7489.901411184232
 30
0.0
  0
VERTEX
  5
6F4
330
6DD
100
AcDbEntity
  8
Cuenca
370
     0
100
AcDbVertex
100
AcDb2dVertex
 10
3602.81465947464
 20
7490.668573260577
 30
0.0
  0
VERTEX
  5
6F5
330
6DD
100
AcDbEntity
  8
Cuenca
370
     0
100
AcDbVertex
100
AcDb2dVertex
 10
3603.070380166755
 20
7491.435735336921
 30
0.0
  0
VERTEX
  5
6F6
330
6DD
100
AcDbEntity
  8
Cuenca
370
     0
100
AcDbVertex
100
AcDb2dVertex
 10
3603.070380166755
 20
7491.435735336921
 30
0.0
  0
VERTEX
  5
6F7
330
6DD
100
AcDbEntity
  8
Cuenca
370
     0
100
AcDbVertex
100
AcDb2dVertex
 10
3603.581821550985
 20
7491.691456029037
 30
0.0
  0
VERTEX
  5
6F8
330
6DD
100
AcDbEntity
  8
Cuenca
370
     0
100
AcDbVertex
100
AcDb2dVertex
 10
3604.34898362733
 20
7491.947176721152
 30
0.0
  0
VERTEX
  5
6F9
330
6DD
100
AcDbEntity
  8
Cuenca
370
     0
100
AcDbVertex
100
AcDb2dVertex
 10
3605.37186639579
 20
7491.947176721152
 30
0.0
  0
VERTEX
  5
6FA
330
6DD
100
AcDbEntity
  8
Cuenca
370
     0
100
AcDbVertex
100
AcDb2dVertex
 10
3605.88330778002
 20
7491.947176721152
 30
0.0
  0
VERTEX
  5
6FB
330
6DD
100
AcDbEntity
  8
Cuenca
370
     0
100
AcDbVertex
100
AcDb2dVertex
 10
3606.139028472135
 20
7492.202897413267
 30
0.0
  0
VERTEX
  5
6FC
330
6DD
100
AcDbEntity
  8
Cuenca
370
     0
100
AcDbVertex
100
AcDb2dVertex
 10
3606.90619054848
 20
7492.202897413267
 30
0.0
  0
VERTEX
  5
6FD
330
6DD
100
AcDbEntity
  8
Cuenca
370
     0
100
AcDbVertex
100
AcDb2dVertex
 10
3607.161911240595
 20
7491.947176721152
 30
0.0
  0
VERTEX
  5
6FE
330
6DD
100
AcDbEntity
  8
Cuenca
370
     0
100
AcDbVertex
100
AcDb2dVertex
 10
3607.41763193271
 20
7491.947176721152
 30
0.0
  0
VERTEX
  5
6FF
330
6DD
100
AcDbEntity
  8
Cuenca
370
     0
100
AcDbVertex
100
AcDb2dVertex
 10
3607.673352624825
 20
7491.947176721152
 30
0.0
  0
VERTEX
  5
700
330
6DD
100
AcDbEntity
  8
Cuenca
370
     0
100
AcDbVertex
100
AcDb2dVertex
 10
3607.929073316941
 20
7491.435735336921
 30
0.0
  0
VERTEX
  5
701
330
6DD
100
AcDbEntity
  8
Cuenca
370
     0
100
AcDbVertex
100
AcDb2dVertex
 10
3608.696235393285
 20
7490.668573260577
 30
0.0
  0
VERTEX
  5
702
330
6DD
100
AcDbEntity
  8
Cuenca
370
     0
100
AcDbVertex
100
AcDb2dVertex
 10
3608.951956085401
 20
7490.412852568463
 30
0.0
  0
VERTEX
  5
703
330
6DD
100
AcDbEntity
  8
Cuenca
370
     0
100
AcDbVertex
100
AcDb2dVertex
 10
3609.719118161746
 20
7490.157131876346
 30
0.0
  0
VERTEX
  5
704
330
6DD
100
AcDbEntity
  8
Cuenca
370
     0
100
AcDbVertex
100
AcDb2dVertex
 10
3609.974838853861
 20
7489.901411184232
 30
0.0
  0
VERTEX
  5
705
330
6DD
100
AcDbEntity
  8
Cuenca
370
     0
100
AcDbVertex
100
AcDb2dVertex
 10
3609.974838853861
 20
7489.645690492117
 30
0.0
  0
VERTEX
  5
706
330
6DD
100
AcDbEntity
  8
Cuenca
370
     0
100
AcDbVertex
100
AcDb2dVertex
 10
3610.230559545976
 20
7489.134249107888
 30
0.0
  0
VERTEX
  5
707
330
6DD
100
AcDbEntity
  8
Cuenca
370
     0
100
AcDbVertex
100
AcDb2dVertex
 10
3610.486280238091
 20
7488.367087031541
 30
0.0
  0
VERTEX
  5
708
330
6DD
100
AcDbEntity
  8
Cuenca
370
     0
100
AcDbVertex
100
AcDb2dVertex
 10
3610.997721622322
 20
7488.111366339426
 30
0.0
  0
VERTEX
  5
709
330
6DD
100
AcDbEntity
  8
Cuenca
370
     0
100
AcDbVertex
100
AcDb2dVertex
 10
3611.253442314436
 20
7487.599924955197
 30
0.0
  0
VERTEX
  5
70A
330
6DD
100
AcDbEntity
  8
Cuenca
370
     0
100
AcDbVertex
100
AcDb2dVertex
 10
3611.253442314436
 20
7486.832762878851
 30
0.0
  0
VERTEX
  5
70B
330
6DD
100
AcDbEntity
  8
Cuenca
370
     0
100
AcDbVertex
100
AcDb2dVertex
 10
3611.509163006551
 20
7486.321321494621
 30
0.0
  0
VERTEX
  5
70C
330
6DD
100
AcDbEntity
  8
Cuenca
370
     0
100
AcDbVertex
100
AcDb2dVertex
 10
3611.764883698666
 20
7486.065600802506
 30
0.0
  0
VERTEX
  5
70D
330
6DD
100
AcDbEntity
  8
Cuenca
370
     0
100
AcDbVertex
100
AcDb2dVertex
 10
3612.276325082896
 20
7485.554159418277
 30
0.0
  0
VERTEX
  5
70E
330
6DD
100
AcDbEntity
  8
Cuenca
370
     0
100
AcDbVertex
100
AcDb2dVertex
 10
3612.787766467127
 20
7485.554159418277
 30
0.0
  0
VERTEX
  5
70F
330
6DD
100
AcDbEntity
  8
Cuenca
370
     0
100
AcDbVertex
100
AcDb2dVertex
 10
3613.554928543472
 20
7485.554159418277
 30
0.0
  0
VERTEX
  5
710
330
6DD
100
AcDbEntity
  8
Cuenca
370
     0
100
AcDbVertex
100
AcDb2dVertex
 10
3613.554928543472
 20
7485.29843872616
 30
0.0
  0
VERTEX
  5
711
330
6DD
100
AcDbEntity
  8
Cuenca
370
     0
100
AcDbVertex
100
AcDb2dVertex
 10
3614.322090619817
 20
7485.042718034046
 30
0.0
  0
VERTEX
  5
712
330
6DD
100
AcDbEntity
  8
Cuenca
370
     0
100
AcDbVertex
100
AcDb2dVertex
 10
3614.577811311932
 20
7485.042718034046
 30
0.0
  0
VERTEX
  5
713
330
6DD
100
AcDbEntity
  8
Cuenca
370
     0
100
AcDbVertex
100
AcDb2dVertex
 10
3614.833532004047
 20
7485.29843872616
 30
0.0
  0
VERTEX
  5
714
330
6DD
100
AcDbEntity
  8
Cuenca
370
     0
100
AcDbVertex
100
AcDb2dVertex
 10
3615.089252696162
 20
7485.809880110391
 30
0.0
  0
VERTEX
  5
715
330
6DD
100
AcDbEntity
  8
Cuenca
370
     0
100
AcDbVertex
100
AcDb2dVertex
 10
3615.344973388277
 20
7486.321321494621
 30
0.0
  0
VERTEX
  5
716
330
6DD
100
AcDbEntity
  8
Cuenca
370
     0
100
AcDbVertex
100
AcDb2dVertex
 10
3615.856414772507
 20
7488.111366339426
 30
0.0
  0
VERTEX
  5
717
330
6DD
100
AcDbEntity
  8
Cuenca
370
     0
100
AcDbVertex
100
AcDb2dVertex
 10
3616.112135464622
 20
7488.622807723657
 30
0.0
  0
VERTEX
  5
718
330
6DD
100
AcDbEntity
  8
Cuenca
370
     0
100
AcDbVertex
100
AcDb2dVertex
 10
3616.367856156737
 20
7488.367087031541
 30
0.0
  0
VERTEX
  5
719
330
6DD
100
AcDbEntity
  8
Cuenca
370
     0
100
AcDbVertex
100
AcDb2dVertex
 10
3616.879297540967
 20
7488.111366339426
 30
0.0
  0
VERTEX
  5
71A
330
6DD
100
AcDbEntity
  8
Cuenca
370
     0
100
AcDbVertex
100
AcDb2dVertex
 10
3617.135018233082
 20
7488.111366339426
 30
0.0
  0
VERTEX
  5
71B
330
6DD
100
AcDbEntity
  8
Cuenca
370
     0
100
AcDbVertex
100
AcDb2dVertex
 10
3617.902180309427
 20
7487.855645647312
 30
0.0
  0
VERTEX
  5
71C
330
6DD
100
AcDbEntity
  8
Cuenca
370
     0
100
AcDbVertex
100
AcDb2dVertex
 10
3618.925063077887
 20
7487.599924955197
 30
0.0
  0
VERTEX
  5
71D
330
6DD
100
AcDbEntity
  8
Cuenca
370
     0
100
AcDbVertex
100
AcDb2dVertex
 10
3619.692225154233
 20
7487.344204263081
 30
0.0
  0
VERTEX
  5
71E
330
6DD
100
AcDbEntity
  8
Cuenca
370
     0
100
AcDbVertex
100
AcDb2dVertex
 10
3620.459387230578
 20
7487.344204263081
 30
0.0
  0
VERTEX
  5
71F
330
6DD
100
AcDbEntity
  8
Cuenca
370
     0
100
AcDbVertex
100
AcDb2dVertex
 10
3620.715107922694
 20
7487.088483570966
 30
0.0
  0
VERTEX
  5
720
330
6DD
100
AcDbEntity
  8
Cuenca
370
     0
100
AcDbVertex
100
AcDb2dVertex
 10
3621.226549306923
 20
7486.832762878851
 30
0.0
  0
VERTEX
  5
721
330
6DD
100
AcDbEntity
  8
Cuenca
370
     0
100
AcDbVertex
100
AcDb2dVertex
 10
3621.482269999038
 20
7486.577042186735
 30
0.0
  0
VERTEX
  5
722
330
6DD
100
AcDbEntity
  8
Cuenca
370
     0
100
AcDbVertex
100
AcDb2dVertex
 10
3621.993711383268
 20
7486.065600802506
 30
0.0
  0
VERTEX
  5
723
330
6DD
100
AcDbEntity
  8
Cuenca
370
     0
100
AcDbVertex
100
AcDb2dVertex
 10
3622.505152767498
 20
7486.065600802506
 30
0.0
  0
VERTEX
  5
724
330
6DD
100
AcDbEntity
  8
Cuenca
370
     0
100
AcDbVertex
100
AcDb2dVertex
 10
3623.016594151728
 20
7486.065600802506
 30
0.0
  0
VERTEX
  5
725
330
6DD
100
AcDbEntity
  8
Cuenca
370
     0
100
AcDbVertex
100
AcDb2dVertex
 10
3623.528035535958
 20
7485.554159418277
 30
0.0
  0
VERTEX
  5
726
330
6DD
100
AcDbEntity
  8
Cuenca
370
     0
100
AcDbVertex
100
AcDb2dVertex
 10
3624.039476920188
 20
7485.29843872616
 30
0.0
  0
VERTEX
  5
727
330
6DD
100
AcDbEntity
  8
Cuenca
370
     0
100
AcDbVertex
100
AcDb2dVertex
 10
3624.550918304418
 20
7485.042718034046
 30
0.0
  0
VERTEX
  5
728
330
6DD
100
AcDbEntity
  8
Cuenca
370
     0
100
AcDbVertex
100
AcDb2dVertex
 10
3625.062359688648
 20
7485.042718034046
 30
0.0
  0
VERTEX
  5
729
330
6DD
100
AcDbEntity
  8
Cuenca
370
     0
100
AcDbVertex
100
AcDb2dVertex
 10
3625.829521764994
 20
7484.531276649815
 30
0.0
  0
VERTEX
  5
72A
330
6DD
100
AcDbEntity
  8
Cuenca
370
     0
100
AcDbVertex
100
AcDb2dVertex
 10
3626.340963149224
 20
7484.019835265586
 30
0.0
  0
VERTEX
  5
72B
330
6DD
100
AcDbEntity
  8
Cuenca
370
     0
100
AcDbVertex
100
AcDb2dVertex
 10
3626.852404533454
 20
7483.508393881355
 30
0.0
  0
VERTEX
  5
72C
330
6DD
100
AcDbEntity
  8
Cuenca
370
     0
100
AcDbVertex
100
AcDb2dVertex
 10
3627.108125225568
 20
7483.25267318924
 30
0.0
  0
VERTEX
  5
72D
330
6DD
100
AcDbEntity
  8
Cuenca
370
     0
100
AcDbVertex
100
AcDb2dVertex
 10
3627.619566609799
 20
7482.485511112895
 30
0.0
  0
VERTEX
  5
72E
330
6DD
100
AcDbEntity
  8
Cuenca
370
     0
100
AcDbVertex
100
AcDb2dVertex
 10
3628.131007994029
 20
7482.485511112895
 30
0.0
  0
VERTEX
  5
72F
330
6DD
100
AcDbEntity
  8
Cuenca
370
     0
100
AcDbVertex
100
AcDb2dVertex
 10
3628.898170070374
 20
7482.485511112895
 30
0.0
  0
VERTEX
  5
730
330
6DD
100
AcDbEntity
  8
Cuenca
370
     0
100
AcDbVertex
100
AcDb2dVertex
 10
3629.66533214672
 20
7482.741231805011
 30
0.0
  0
VERTEX
  5
731
330
6DD
100
AcDbEntity
  8
Cuenca
370
     0
100
AcDbVertex
100
AcDb2dVertex
 10
3630.176773530949
 20
7482.996952497126
 30
0.0
  0
VERTEX
  5
732
330
6DD
100
AcDbEntity
  8
Cuenca
370
     0
100
AcDbVertex
100
AcDb2dVertex
 10
3630.943935607295
 20
7483.25267318924
 30
0.0
  0
VERTEX
  5
733
330
6DD
100
AcDbEntity
  8
Cuenca
370
     0
100
AcDbVertex
100
AcDb2dVertex
 10
3631.455376991525
 20
7482.996952497126
 30
0.0
  0
VERTEX
  5
734
330
6DD
100
AcDbEntity
  8
Cuenca
370
     0
100
AcDbVertex
100
AcDb2dVertex
 10
3631.455376991525
 20
7482.996952497126
 30
0.0
  0
VERTEX
  5
735
330
6DD
100
AcDbEntity
  8
Cuenca
370
     0
100
AcDbVertex
100
AcDb2dVertex
 10
3631.966818375754
 20
7482.485511112895
 30
0.0
  0
VERTEX
  5
736
330
6DD
100
AcDbEntity
  8
Cuenca
370
     0
100
AcDbVertex
100
AcDb2dVertex
 10
3631.71109768364
 20
7482.22979042078
 30
0.0
  0
VERTEX
  5
737
330
6DD
100
AcDbEntity
  8
Cuenca
370
     0
100
AcDbVertex
100
AcDb2dVertex
 10
3631.455376991525
 20
7481.718349036549
 30
0.0
  0
VERTEX
  5
738
330
6DD
100
AcDbEntity
  8
Cuenca
370
     0
100
AcDbVertex
100
AcDb2dVertex
 10
3631.71109768364
 20
7481.718349036549
 30
0.0
  0
VERTEX
  5
739
330
6DD
100
AcDbEntity
  8
Cuenca
370
     0
100
AcDbVertex
100
AcDb2dVertex
 10
3632.22253906787
 20
7481.462628344435
 30
0.0
  0
VERTEX
  5
73A
330
6DD
100
AcDbEntity
  8
Cuenca
370
     0
100
AcDbVertex
100
AcDb2dVertex
 10
3632.478259759985
 20
7481.20690765232
 30
0.0
  0
VERTEX
  5
73B
330
6DD
100
AcDbEntity
  8
Cuenca
370
     0
100
AcDbVertex
100
AcDb2dVertex
 10
3632.7339804521
 20
7480.951186960204
 30
0.0
  0
VERTEX
  5
73C
330
6DD
100
AcDbEntity
  8
Cuenca
370
     0
100
AcDbVertex
100
AcDb2dVertex
 10
3632.7339804521
 20
7480.439745575974
 30
0.0
  0
VERTEX
  5
73D
330
6DD
100
AcDbEntity
  8
Cuenca
370
     0
100
AcDbVertex
100
AcDb2dVertex
 10
3633.24542183633
 20
7480.18402488386
 30
0.0
  0
VERTEX
  5
73E
330
6DD
100
AcDbEntity
  8
Cuenca
370
     0
100
AcDbVertex
100
AcDb2dVertex
 10
3633.75686322056
 20
7479.928304191744
 30
0.0
  0
VERTEX
  5
73F
330
6DD
100
AcDbEntity
  8
Cuenca
370
     0
100
AcDbVertex
100
AcDb2dVertex
 10
3634.012583912675
 20
7479.672583499629
 30
0.0
  0
VERTEX
  5
740
330
6DD
100
AcDbEntity
  8
Cuenca
370
     0
100
AcDbVertex
100
AcDb2dVertex
 10
3634.012583912675
 20
7478.905421423284
 30
0.0
  0
VERTEX
  5
741
330
6DD
100
AcDbEntity
  8
Cuenca
370
     0
100
AcDbVertex
100
AcDb2dVertex
 10
3634.012583912675
 20
7478.393980039054
 30
0.0
  0
VERTEX
  5
742
330
6DD
100
AcDbEntity
  8
Cuenca
370
     0
100
AcDbVertex
100
AcDb2dVertex
 10
3634.524025296906
 20
7478.13825934694
 30
0.0
  0
VERTEX
  5
743
330
6DD
100
AcDbEntity
  8
Cuenca
370
     0
100
AcDbVertex
100
AcDb2dVertex
 10
3635.29118737325
 20
7477.626817962709
 30
0.0
  0
VERTEX
  5
744
330
6DD
100
AcDbEntity
  8
Cuenca
370
     0
100
AcDbVertex
100
AcDb2dVertex
 10
3635.546908065366
 20
7477.626817962709
 30
0.0
  0
VERTEX
  5
745
330
6DD
100
AcDbEntity
  8
Cuenca
370
     0
100
AcDbVertex
100
AcDb2dVertex
 10
3635.80262875748
 20
7477.882538654824
 30
0.0
  0
VERTEX
  5
746
330
6DD
100
AcDbEntity
  8
Cuenca
370
     0
100
AcDbVertex
100
AcDb2dVertex
 10
3636.569790833826
 20
7478.393980039054
 30
0.0
  0
VERTEX
  5
747
330
6DD
100
AcDbEntity
  8
Cuenca
370
     0
100
AcDbVertex
100
AcDb2dVertex
 10
3637.336952910171
 20
7478.393980039054
 30
0.0
  0
VERTEX
  5
748
330
6DD
100
AcDbEntity
  8
Cuenca
370
     0
100
AcDbVertex
100
AcDb2dVertex
 10
3637.8483942944
 20
7478.393980039054
 30
0.0
  0
VERTEX
  5
749
330
6DD
100
AcDbEntity
  8
Cuenca
370
     0
100
AcDbVertex
100
AcDb2dVertex
 10
3638.359835678631
 20
7478.393980039054
 30
0.0
  0
VERTEX
  5
74A
330
6DD
100
AcDbEntity
  8
Cuenca
370
     0
100
AcDbVertex
100
AcDb2dVertex
 10
3638.871277062861
 20
7478.13825934694
 30
0.0
  0
VERTEX
  5
74B
330
6DD
100
AcDbEntity
  8
Cuenca
370
     0
100
AcDbVertex
100
AcDb2dVertex
 10
3639.638439139206
 20
7477.626817962709
 30
0.0
  0
VERTEX
  5
74C
330
6DD
100
AcDbEntity
  8
Cuenca
370
     0
100
AcDbVertex
100
AcDb2dVertex
 10
3639.894159831321
 20
7477.371097270594
 30
0.0
  0
VERTEX
  5
74D
330
6DD
100
AcDbEntity
  8
Cuenca
370
     0
100
AcDbVertex
100
AcDb2dVertex
 10
3640.661321907666
 20
7477.115376578479
 30
0.0
  0
VERTEX
  5
74E
330
6DD
100
AcDbEntity
  8
Cuenca
370
     0
100
AcDbVertex
100
AcDb2dVertex
 10
3641.172763291896
 20
7476.348214502134
 30
0.0
  0
VERTEX
  5
74F
330
6DD
100
AcDbEntity
  8
Cuenca
370
     0
100
AcDbVertex
100
AcDb2dVertex
 10
3641.428483984011
 20
7475.836773117904
 30
0.0
  0
VERTEX
  5
750
330
6DD
100
AcDbEntity
  8
Cuenca
370
     0
100
AcDbVertex
100
AcDb2dVertex
 10
3641.939925368241
 20
7475.325331733674
 30
0.0
  0
VERTEX
  5
751
330
6DD
100
AcDbEntity
  8
Cuenca
370
     0
100
AcDbVertex
100
AcDb2dVertex
 10
3642.195646060357
 20
7475.325331733674
 30
0.0
  0
VERTEX
  5
752
330
6DD
100
AcDbEntity
  8
Cuenca
370
     0
100
AcDbVertex
100
AcDb2dVertex
 10
3642.707087444586
 20
7475.069611041559
 30
0.0
  0
VERTEX
  5
753
330
6DD
100
AcDbEntity
  8
Cuenca
370
     0
100
AcDbVertex
100
AcDb2dVertex
 10
3642.962808136701
 20
7474.813890349444
 30
0.0
  0
VERTEX
  5
754
330
6DD
100
AcDbEntity
  8
Cuenca
370
     0
100
AcDbVertex
100
AcDb2dVertex
 10
3643.474249520931
 20
7474.558169657329
 30
0.0
  0
VERTEX
  5
755
330
6DD
100
AcDbEntity
  8
Cuenca
370
     0
100
AcDbVertex
100
AcDb2dVertex
 10
3644.497132289392
 20
7474.302448965215
 30
0.0
  0
VERTEX
  5
756
330
6DD
100
AcDbEntity
  8
Cuenca
370
     0
100
AcDbVertex
100
AcDb2dVertex
 10
3645.775735749967
 20
7474.302448965215
 30
0.0
  0
VERTEX
  5
757
330
6DD
100
AcDbEntity
  8
Cuenca
370
     0
100
AcDbVertex
100
AcDb2dVertex
 10
3646.542897826312
 20
7474.046728273099
 30
0.0
  0
VERTEX
  5
758
330
6DD
100
AcDbEntity
  8
Cuenca
370
     0
100
AcDbVertex
100
AcDb2dVertex
 10
3646.798618518428
 20
7473.791007580984
 30
0.0
  0
VERTEX
  5
759
330
6DD
100
AcDbEntity
  8
Cuenca
370
     0
100
AcDbVertex
100
AcDb2dVertex
 10
3647.054339210542
 20
7473.535286888868
 30
0.0
  0
VERTEX
  5
75A
330
6DD
100
AcDbEntity
  8
Cuenca
370
     0
100
AcDbVertex
100
AcDb2dVertex
 10
3647.821501286887
 20
7473.535286888868
 30
0.0
  0
VERTEX
  5
75B
330
6DD
100
AcDbEntity
  8
Cuenca
370
     0
100
AcDbVertex
100
AcDb2dVertex
 10
3649.100104747463
 20
7473.279566196755
 30
0.0
  0
VERTEX
  5
75C
330
6DD
100
AcDbEntity
  8
Cuenca
370
     0
100
AcDbVertex
100
AcDb2dVertex
 10
3649.867266823808
 20
7472.768124812524
 30
0.0
  0
VERTEX
  5
75D
330
6DD
100
AcDbEntity
  8
Cuenca
370
     0
100
AcDbVertex
100
AcDb2dVertex
 10
3650.634428900153
 20
7472.256683428293
 30
0.0
  0
VERTEX
  5
75E
330
6DD
100
AcDbEntity
  8
Cuenca
370
     0
100
AcDbVertex
100
AcDb2dVertex
 10
3650.122987515923
 20
7472.000962736179
 30
0.0
  0
VERTEX
  5
75F
330
6DD
100
AcDbEntity
  8
Cuenca
370
     0
100
AcDbVertex
100
AcDb2dVertex
 10
3649.355825439578
 20
7471.489521351948
 30
0.0
  0
VERTEX
  5
760
330
6DD
100
AcDbEntity
  8
Cuenca
370
     0
100
AcDbVertex
100
AcDb2dVertex
 10
3649.100104747463
 20
7471.233800659833
 30
0.0
  0
VERTEX
  5
761
330
6DD
100
AcDbEntity
  8
Cuenca
370
     0
100
AcDbVertex
100
AcDb2dVertex
 10
3648.844384055347
 20
7470.722359275604
 30
0.0
  0
VERTEX
  5
762
330
6DD
100
AcDbEntity
  8
Cuenca
370
     0
100
AcDbVertex
100
AcDb2dVertex
 10
3648.332942671117
 20
7470.210917891373
 30
0.0
  0
VERTEX
  5
763
330
6DD
100
AcDbEntity
  8
Cuenca
370
     0
100
AcDbVertex
100
AcDb2dVertex
 10
3647.821501286887
 20
7470.210917891373
 30
0.0
  0
VERTEX
  5
764
330
6DD
100
AcDbEntity
  8
Cuenca
370
     0
100
AcDbVertex
100
AcDb2dVertex
 10
3647.054339210542
 20
7469.955197199258
 30
0.0
  0
VERTEX
  5
765
330
6DD
100
AcDbEntity
  8
Cuenca
370
     0
100
AcDbVertex
100
AcDb2dVertex
 10
3646.542897826312
 20
7469.699476507144
 30
0.0
  0
VERTEX
  5
766
330
6DD
100
AcDbEntity
  8
Cuenca
370
     0
100
AcDbVertex
100
AcDb2dVertex
 10
3646.031456442082
 20
7469.443755815028
 30
0.0
  0
VERTEX
  5
767
330
6DD
100
AcDbEntity
  8
Cuenca
370
     0
100
AcDbVertex
100
AcDb2dVertex
 10
3645.264294365738
 20
7470.210917891373
 30
0.0
  0
VERTEX
  5
768
330
6DD
100
AcDbEntity
  8
Cuenca
370
     0
100
AcDbVertex
100
AcDb2dVertex
 10
3644.752852981507
 20
7470.466638583488
 30
0.0
  0
VERTEX
  5
769
330
6DD
100
AcDbEntity
  8
Cuenca
370
     0
100
AcDbVertex
100
AcDb2dVertex
 10
3643.985690905161
 20
7470.722359275604
 30
0.0
  0
VERTEX
  5
76A
330
6DD
100
AcDbEntity
  8
Cuenca
370
     0
100
AcDbVertex
100
AcDb2dVertex
 10
3643.474249520931
 20
7470.978079967719
 30
0.0
  0
VERTEX
  5
76B
330
6DD
100
AcDbEntity
  8
Cuenca
370
     0
100
AcDbVertex
100
AcDb2dVertex
 10
3643.474249520931
 20
7470.978079967719
 30
0.0
  0
VERTEX
  5
76C
330
6DD
100
AcDbEntity
  8
Cuenca
370
     0
100
AcDbVertex
100
AcDb2dVertex
 10
3642.962808136701
 20
7470.978079967719
 30
0.0
  0
VERTEX
  5
76D
330
6DD
100
AcDbEntity
  8
Cuenca
370
     0
100
AcDbVertex
100
AcDb2dVertex
 10
3641.939925368241
 20
7470.978079967719
 30
0.0
  0
VERTEX
  5
76E
330
6DD
100
AcDbEntity
  8
Cuenca
370
     0
100
AcDbVertex
100
AcDb2dVertex
 10
3641.428483984011
 20
7470.722359275604
 30
0.0
  0
VERTEX
  5
76F
330
6DD
100
AcDbEntity
  8
Cuenca
370
     0
100
AcDbVertex
100
AcDb2dVertex
 10
3640.661321907666
 20
7470.466638583488
 30
0.0
  0
VERTEX
  5
770
330
6DD
100
AcDbEntity
  8
Cuenca
370
     0
100
AcDbVertex
100
AcDb2dVertex
 10
3640.405601215551
 20
7470.466638583488
 30
0.0
  0
VERTEX
  5
771
330
6DD
100
AcDbEntity
  8
Cuenca
370
     0
100
AcDbVertex
100
AcDb2dVertex
 10
3639.382718447091
 20
7470.210917891373
 30
0.0
  0
VERTEX
  5
772
330
6DD
100
AcDbEntity
  8
Cuenca
370
     0
100
AcDbVertex
100
AcDb2dVertex
 10
3638.359835678631
 20
7469.699476507144
 30
0.0
  0
VERTEX
  5
773
330
6DD
100
AcDbEntity
  8
Cuenca
370
     0
100
AcDbVertex
100
AcDb2dVertex
 10
3637.8483942944
 20
7468.932314430798
 30
0.0
  0
VERTEX
  5
774
330
6DD
100
AcDbEntity
  8
Cuenca
370
     0
100
AcDbVertex
100
AcDb2dVertex
 10
3637.336952910171
 20
7468.420873046568
 30
0.0
  0
VERTEX
  5
775
330
6DD
100
AcDbEntity
  8
Cuenca
370
     0
100
AcDbVertex
100
AcDb2dVertex
 10
3637.336952910171
 20
7467.397990278107
 30
0.0
  0
VERTEX
  5
776
330
6DD
100
AcDbEntity
  8
Cuenca
370
     0
100
AcDbVertex
100
AcDb2dVertex
 10
3637.081232218056
 20
7466.886548893878
 30
0.0
  0
VERTEX
  5
777
330
6DD
100
AcDbEntity
  8
Cuenca
370
     0
100
AcDbVertex
100
AcDb2dVertex
 10
3636.82551152594
 20
7466.630828201762
 30
0.0
  0
VERTEX
  5
778
330
6DD
100
AcDbEntity
  8
Cuenca
370
     0
100
AcDbVertex
100
AcDb2dVertex
 10
3636.058349449596
 20
7466.119386817533
 30
0.0
  0
VERTEX
  5
779
330
6DD
100
AcDbEntity
  8
Cuenca
370
     0
100
AcDbVertex
100
AcDb2dVertex
 10
3635.546908065366
 20
7465.607945433302
 30
0.0
  0
VERTEX
  5
77A
330
6DD
100
AcDbEntity
  8
Cuenca
370
     0
100
AcDbVertex
100
AcDb2dVertex
 10
3635.035466681135
 20
7464.840783356958
 30
0.0
  0
VERTEX
  5
77B
330
6DD
100
AcDbEntity
  8
Cuenca
370
     0
100
AcDbVertex
100
AcDb2dVertex
 10
3634.524025296906
 20
7464.329341972727
 30
0.0
  0
VERTEX
  5
77C
330
6DD
100
AcDbEntity
  8
Cuenca
370
     0
100
AcDbVertex
100
AcDb2dVertex
 10
3634.012583912675
 20
7463.817900588496
 30
0.0
  0
VERTEX
  5
77D
330
6DD
100
AcDbEntity
  8
Cuenca
370
     0
100
AcDbVertex
100
AcDb2dVertex
 10
3633.501142528445
 20
7462.539297127921
 30
0.0
  0
VERTEX
  5
77E
330
6DD
100
AcDbEntity
  8
Cuenca
370
     0
100
AcDbVertex
100
AcDb2dVertex
 10
3633.24542183633
 20
7461.260693667347
 30
0.0
  0
VERTEX
  5
77F
330
6DD
100
AcDbEntity
  8
Cuenca
370
     0
100
AcDbVertex
100
AcDb2dVertex
 10
3632.989701144215
 20
7460.749252283116
 30
0.0
  0
VERTEX
  5
780
330
6DD
100
AcDbEntity
  8
Cuenca
370
     0
100
AcDbVertex
100
AcDb2dVertex
 10
3632.22253906787
 20
7459.214928130426
 30
0.0
  0
VERTEX
  5
781
330
6DD
100
AcDbEntity
  8
Cuenca
370
     0
100
AcDbVertex
100
AcDb2dVertex
 10
3631.455376991525
 20
7457.936324669852
 30
0.0
  0
VERTEX
  5
782
330
6DD
100
AcDbEntity
  8
Cuenca
370
     0
100
AcDbVertex
100
AcDb2dVertex
 10
3630.68821491518
 20
7457.680603977735
 30
0.0
  0
VERTEX
  5
783
330
6DD
100
AcDbEntity
  8
Cuenca
370
     0
100
AcDbVertex
100
AcDb2dVertex
 10
3629.921052838835
 20
7457.936324669852
 30
0.0
  0
VERTEX
  5
784
330
6DD
100
AcDbEntity
  8
Cuenca
370
     0
100
AcDbVertex
100
AcDb2dVertex
 10
3629.66533214672
 20
7457.936324669852
 30
0.0
  0
VERTEX
  5
785
330
6DD
100
AcDbEntity
  8
Cuenca
370
     0
100
AcDbVertex
100
AcDb2dVertex
 10
3629.409611454605
 20
7457.936324669852
 30
0.0
  0
VERTEX
  5
786
330
6DD
100
AcDbEntity
  8
Cuenca
370
     0
100
AcDbVertex
100
AcDb2dVertex
 10
3628.898170070374
 20
7457.680603977735
 30
0.0
  0
VERTEX
  5
787
330
6DD
100
AcDbEntity
  8
Cuenca
370
     0
100
AcDbVertex
100
AcDb2dVertex
 10
3628.386728686145
 20
7457.169162593506
 30
0.0
  0
VERTEX
  5
788
330
6DD
100
AcDbEntity
  8
Cuenca
370
     0
100
AcDbVertex
100
AcDb2dVertex
 10
3626.852404533454
 20
7456.913441901391
 30
0.0
  0
VERTEX
  5
789
330
6DD
100
AcDbEntity
  8
Cuenca
370
     0
100
AcDbVertex
100
AcDb2dVertex
 10
3625.829521764994
 20
7456.657721209277
 30
0.0
  0
VERTEX
  5
78A
330
6DD
100
AcDbEntity
  8
Cuenca
370
     0
100
AcDbVertex
100
AcDb2dVertex
 10
3624.806638996534
 20
7456.913441901391
 30
0.0
  0
VERTEX
  5
78B
330
6DD
100
AcDbEntity
  8
Cuenca
370
     0
100
AcDbVertex
100
AcDb2dVertex
 10
3624.295197612303
 20
7457.169162593506
 30
0.0
  0
VERTEX
  5
78C
330
6DD
100
AcDbEntity
  8
Cuenca
370
     0
100
AcDbVertex
100
AcDb2dVertex
 10
3623.783756228073
 20
7456.913441901391
 30
0.0
  0
VERTEX
  5
78D
330
6DD
100
AcDbEntity
  8
Cuenca
370
     0
100
AcDbVertex
100
AcDb2dVertex
 10
3623.272314843843
 20
7456.913441901391
 30
0.0
  0
VERTEX
  5
78E
330
6DD
100
AcDbEntity
  8
Cuenca
370
     0
100
AcDbVertex
100
AcDb2dVertex
 10
3621.993711383268
 20
7456.913441901391
 30
0.0
  0
VERTEX
  5
78F
330
6DD
100
AcDbEntity
  8
Cuenca
370
     0
100
AcDbVertex
100
AcDb2dVertex
 10
3621.482269999038
 20
7456.657721209277
 30
0.0
  0
VERTEX
  5
790
330
6DD
100
AcDbEntity
  8
Cuenca
370
     0
100
AcDbVertex
100
AcDb2dVertex
 10
3621.226549306923
 20
7456.402000517162
 30
0.0
  0
VERTEX
  5
791
330
6DD
100
AcDbEntity
  8
Cuenca
370
     0
100
AcDbVertex
100
AcDb2dVertex
 10
3620.203666538463
 20
7456.402000517162
 30
0.0
  0
VERTEX
  5
792
330
6DD
100
AcDbEntity
  8
Cuenca
370
     0
100
AcDbVertex
100
AcDb2dVertex
 10
3618.925063077887
 20
7456.913441901391
 30
0.0
  0
VERTEX
  5
793
330
6DD
100
AcDbEntity
  8
Cuenca
370
     0
100
AcDbVertex
100
AcDb2dVertex
 10
3618.413621693657
 20
7457.424883285622
 30
0.0
  0
VERTEX
  5
794
330
6DD
100
AcDbEntity
  8
Cuenca
370
     0
100
AcDbVertex
100
AcDb2dVertex
 10
3617.390738925197
 20
7457.936324669852
 30
0.0
  0
VERTEX
  5
795
330
6DD
100
AcDbEntity
  8
Cuenca
370
     0
100
AcDbVertex
100
AcDb2dVertex
 10
3616.879297540967
 20
7457.936324669852
 30
0.0
  0
VERTEX
  5
796
330
6DD
100
AcDbEntity
  8
Cuenca
370
     0
100
AcDbVertex
100
AcDb2dVertex
 10
3616.367856156737
 20
7457.680603977735
 30
0.0
  0
VERTEX
  5
797
330
6DD
100
AcDbEntity
  8
Cuenca
370
     0
100
AcDbVertex
100
AcDb2dVertex
 10
3615.344973388277
 20
7457.936324669852
 30
0.0
  0
VERTEX
  5
798
330
6DD
100
AcDbEntity
  8
Cuenca
370
     0
100
AcDbVertex
100
AcDb2dVertex
 10
3614.577811311932
 20
7457.680603977735
 30
0.0
  0
VERTEX
  5
799
330
6DD
100
AcDbEntity
  8
Cuenca
370
     0
100
AcDbVertex
100
AcDb2dVertex
 10
3614.066369927702
 20
7457.936324669852
 30
0.0
  0
VERTEX
  5
79A
330
6DD
100
AcDbEntity
  8
Cuenca
370
     0
100
AcDbVertex
100
AcDb2dVertex
 10
3613.554928543472
 20
7458.192045361966
 30
0.0
  0
VERTEX
  5
79B
330
6DD
100
AcDbEntity
  8
Cuenca
370
     0
100
AcDbVertex
100
AcDb2dVertex
 10
3612.787766467127
 20
7457.936324669852
 30
0.0
  0
VERTEX
  5
79C
330
6DD
100
AcDbEntity
  8
Cuenca
370
     0
100
AcDbVertex
100
AcDb2dVertex
 10
3612.276325082896
 20
7457.424883285622
 30
0.0
  0
VERTEX
  5
79D
330
6DD
100
AcDbEntity
  8
Cuenca
370
     0
100
AcDbVertex
100
AcDb2dVertex
 10
3611.509163006551
 20
7457.424883285622
 30
0.0
  0
VERTEX
  5
79E
330
6DD
100
AcDbEntity
  8
Cuenca
370
     0
100
AcDbVertex
100
AcDb2dVertex
 10
3610.997721622322
 20
7457.680603977735
 30
0.0
  0
VERTEX
  5
79F
330
6DD
100
AcDbEntity
  8
Cuenca
370
     0
100
AcDbVertex
100
AcDb2dVertex
 10
3610.230559545976
 20
7457.936324669852
 30
0.0
  0
VERTEX
  5
7A0
330
6DD
100
AcDbEntity
  8
Cuenca
370
     0
100
AcDbVertex
100
AcDb2dVertex
 10
3609.719118161746
 20
7458.192045361966
 30
0.0
  0
VERTEX
  5
7A1
330
6DD
100
AcDbEntity
  8
Cuenca
370
     0
100
AcDbVertex
100
AcDb2dVertex
 10
3609.207676777515
 20
7458.703486746196
 30
0.0
  0
VERTEX
  5
7A2
330
6DD
100
AcDbEntity
  8
Cuenca
370
     0
100
AcDbVertex
100
AcDb2dVertex
 10
3608.951956085401
 20
7458.703486746196
 30
0.0
  0
VERTEX
  5
7A3
330
6DD
100
AcDbEntity
  8
Cuenca
370
     0
100
AcDbVertex
100
AcDb2dVertex
 10
3607.673352624825
 20
7459.470648822541
 30
0.0
  0
VERTEX
  5
7A4
330
6DD
100
AcDbEntity
  8
Cuenca
370
     0
100
AcDbVertex
100
AcDb2dVertex
 10
3606.650469856365
 20
7459.214928130426
 30
0.0
  0
VERTEX
  5
7A5
330
6DD
100
AcDbEntity
  8
Cuenca
370
     0
100
AcDbVertex
100
AcDb2dVertex
 10
3605.88330778002
 20
7459.726369514656
 30
0.0
  0
VERTEX
  5
7A6
330
6DD
100
AcDbEntity
  8
Cuenca
370
     0
100
AcDbVertex
100
AcDb2dVertex
 10
3604.860425011561
 20
7458.959207438311
 30
0.0
  0
VERTEX
  5
7A7
330
6DD
100
AcDbEntity
  8
Cuenca
370
     0
100
AcDbVertex
100
AcDb2dVertex
 10
3603.8375422431
 20
7458.447766054081
 30
0.0
  0
VERTEX
  5
7A8
330
6DD
100
AcDbEntity
  8
Cuenca
370
     0
100
AcDbVertex
100
AcDb2dVertex
 10
3603.070380166755
 20
7457.936324669852
 30
0.0
  0
VERTEX
  5
7A9
330
6DD
100
AcDbEntity
  8
Cuenca
370
     0
100
AcDbVertex
100
AcDb2dVertex
 10
3602.30321809041
 20
7457.936324669852
 30
0.0
  0
VERTEX
  5
7AA
330
6DD
100
AcDbEntity
  8
Cuenca
370
     0
100
AcDbVertex
100
AcDb2dVertex
 10
3600.513173245604
 20
7459.470648822541
 30
0.0
  0
VERTEX
  5
7AB
330
6DD
100
AcDbEntity
  8
Cuenca
370
     0
100
AcDbVertex
100
AcDb2dVertex
 10
3600.001731861374
 20
7461.004972975231
 30
0.0
  0
VERTEX
  5
7AC
330
6DD
100
AcDbEntity
  8
Cuenca
370
     0
100
AcDbVertex
100
AcDb2dVertex
 10
3598.978849092914
 20
7460.493531591001
 30
0.0
  0
VERTEX
  5
7AD
330
6DD
100
AcDbEntity
  8
Cuenca
370
     0
100
AcDbVertex
100
AcDb2dVertex
 10
3598.211687016569
 20
7459.726369514656
 30
0.0
  0
VERTEX
  5
7AE
330
6DD
100
AcDbEntity
  8
Cuenca
370
     0
100
AcDbVertex
100
AcDb2dVertex
 10
3597.444524940224
 20
7459.214928130426
 30
0.0
  0
VERTEX
  5
7AF
330
6DD
100
AcDbEntity
  8
Cuenca
370
     0
100
AcDbVertex
100
AcDb2dVertex
 10
3596.933083555994
 20
7458.703486746196
 30
0.0
  0
VERTEX
  5
7B0
330
6DD
100
AcDbEntity
  8
Cuenca
370
     0
100
AcDbVertex
100
AcDb2dVertex
 10
3596.165921479649
 20
7458.447766054081
 30
0.0
  0
VERTEX
  5
7B1
330
6DD
100
AcDbEntity
  8
Cuenca
370
     0
100
AcDbVertex
100
AcDb2dVertex
 10
3595.143038711189
 20
7458.447766054081
 30
0.0
  0
VERTEX
  5
7B2
330
6DD
100
AcDbEntity
  8
Cuenca
370
     0
100
AcDbVertex
100
AcDb2dVertex
 10
3594.120155942729
 20
7458.703486746196
 30
0.0
  0
VERTEX
  5
7B3
330
6DD
100
AcDbEntity
  8
Cuenca
370
     0
100
AcDbVertex
100
AcDb2dVertex
 10
3594.375876634843
 20
7459.214928130426
 30
0.0
  0
VERTEX
  5
7B4
330
6DD
100
AcDbEntity
  8
Cuenca
370
     0
100
AcDbVertex
100
AcDb2dVertex
 10
3593.352993866383
 20
7459.982090206771
 30
0.0
  0
VERTEX
  5
7B5
330
6DD
100
AcDbEntity
  8
Cuenca
370
     0
100
AcDbVertex
100
AcDb2dVertex
 10
3592.074390405808
 20
7460.237810898886
 30
0.0
  0
VERTEX
  5
7B6
330
6DD
100
AcDbEntity
  8
Cuenca
370
     0
100
AcDbVertex
100
AcDb2dVertex
 10
3591.818669713692
 20
7459.726369514656
 30
0.0
  0
VERTEX
  5
7B7
330
6DD
100
AcDbEntity
  8
Cuenca
370
     0
100
AcDbVertex
100
AcDb2dVertex
 10
3591.307228329463
 20
7459.726369514656
 30
0.0
  0
VERTEX
  5
7B8
330
6DD
100
AcDbEntity
  8
Cuenca
370
     0
100
AcDbVertex
100
AcDb2dVertex
 10
3590.795786945232
 20
7460.237810898886
 30
0.0
  0
VERTEX
  5
7B9
330
6DD
100
AcDbEntity
  8
Cuenca
370
     0
100
AcDbVertex
100
AcDb2dVertex
 10
3590.028624868887
 20
7461.516414359462
 30
0.0
  0
VERTEX
  5
7BA
330
6DD
100
AcDbEntity
  8
Cuenca
370
     0
100
AcDbVertex
100
AcDb2dVertex
 10
3589.005742100427
 20
7462.283576435807
 30
0.0
  0
VERTEX
  5
7BB
330
6DD
100
AcDbEntity
  8
Cuenca
370
     0
100
AcDbVertex
100
AcDb2dVertex
 10
3587.215697255622
 20
7463.050738512151
 30
0.0
  0
VERTEX
  5
7BC
330
6DD
100
AcDbEntity
  8
Cuenca
370
     0
100
AcDbVertex
100
AcDb2dVertex
 10
3586.192814487162
 20
7464.073621280611
 30
0.0
  0
VERTEX
  5
7BD
330
6DD
100
AcDbEntity
  8
Cuenca
370
     0
100
AcDbVertex
100
AcDb2dVertex
 10
3585.937093795047
 20
7464.329341972727
 30
0.0
  0
VERTEX
  5
7BE
330
6DD
100
AcDbEntity
  8
Cuenca
370
     0
100
AcDbVertex
100
AcDb2dVertex
 10
3585.681373102931
 20
7464.585062664842
 30
0.0
  0
VERTEX
  5
7BF
330
6DD
100
AcDbEntity
  8
Cuenca
370
     0
100
AcDbVertex
100
AcDb2dVertex
 10
3585.937093795047
 20
7464.840783356958
 30
0.0
  0
VERTEX
  5
7C0
330
6DD
100
AcDbEntity
  8
Cuenca
370
     0
100
AcDbVertex
100
AcDb2dVertex
 10
3585.937093795047
 20
7465.096504049071
 30
0.0
  0
VERTEX
  5
7C1
330
6DD
100
AcDbEntity
  8
Cuenca
370
     0
100
AcDbVertex
100
AcDb2dVertex
 10
3585.681373102931
 20
7465.607945433302
 30
0.0
  0
VERTEX
  5
7C2
330
6DD
100
AcDbEntity
  8
Cuenca
370
     0
100
AcDbVertex
100
AcDb2dVertex
 10
3584.914211026587
 20
7465.863666125418
 30
0.0
  0
VERTEX
  5
7C3
330
6DD
100
AcDbEntity
  8
Cuenca
370
     0
100
AcDbVertex
100
AcDb2dVertex
 10
3584.147048950241
 20
7466.119386817533
 30
0.0
  0
VERTEX
  5
7C4
330
6DD
100
AcDbEntity
  8
Cuenca
370
     0
100
AcDbVertex
100
AcDb2dVertex
 10
3583.635607566011
 20
7465.863666125418
 30
0.0
  0
VERTEX
  5
7C5
330
6DD
100
AcDbEntity
  8
Cuenca
370
     0
100
AcDbVertex
100
AcDb2dVertex
 10
3583.124166181781
 20
7466.119386817533
 30
0.0
  0
VERTEX
  5
7C6
330
6DD
100
AcDbEntity
  8
Cuenca
370
     0
100
AcDbVertex
100
AcDb2dVertex
 10
3583.124166181781
 20
7466.375107509647
 30
0.0
  0
VERTEX
  5
7C7
330
6DD
100
AcDbEntity
  8
Cuenca
370
     0
100
AcDbVertex
100
AcDb2dVertex
 10
3583.379886873897
 20
7467.653710970224
 30
0.0
  0
VERTEX
  5
7C8
330
6DD
100
AcDbEntity
  8
Cuenca
370
     0
100
AcDbVertex
100
AcDb2dVertex
 10
3583.379886873897
 20
7468.165152354453
 30
0.0
  0
VERTEX
  5
7C9
330
6DD
100
AcDbEntity
  8
Cuenca
370
     0
100
AcDbVertex
100
AcDb2dVertex
 10
3582.868445489666
 20
7468.676593738682
 30
0.0
  0
VERTEX
  5
7CA
330
6DD
100
AcDbEntity
  8
Cuenca
370
     0
100
AcDbVertex
100
AcDb2dVertex
 10
3581.589842029091
 20
7468.420873046568
 30
0.0
  0
VERTEX
  5
7CB
330
6DD
100
AcDbEntity
  8
Cuenca
370
     0
100
AcDbVertex
100
AcDb2dVertex
 10
3581.334121336976
 20
7468.420873046568
 30
0.0
  0
VERTEX
  5
7CC
330
6DD
100
AcDbEntity
  8
Cuenca
370
     0
100
AcDbVertex
100
AcDb2dVertex
 10
3580.566959260631
 20
7468.165152354453
 30
0.0
  0
VERTEX
  5
7CD
330
6DD
100
AcDbEntity
  8
Cuenca
370
     0
100
AcDbVertex
100
AcDb2dVertex
 10
3580.055517876401
 20
7468.676593738682
 30
0.0
  0
VERTEX
  5
7CE
330
6DD
100
AcDbEntity
  8
Cuenca
370
     0
100
AcDbVertex
100
AcDb2dVertex
 10
3579.032635107941
 20
7469.443755815028
 30
0.0
  0
VERTEX
  5
7CF
330
6DD
100
AcDbEntity
  8
Cuenca
370
     0
100
AcDbVertex
100
AcDb2dVertex
 10
3578.265473031596
 20
7469.955197199258
 30
0.0
  0
VERTEX
  5
7D0
330
6DD
100
AcDbEntity
  8
Cuenca
370
     0
100
AcDbVertex
100
AcDb2dVertex
 10
3578.00975233948
 20
7470.722359275604
 30
0.0
  0
VERTEX
  5
7D1
330
6DD
100
AcDbEntity
  8
Cuenca
370
     0
100
AcDbVertex
100
AcDb2dVertex
 10
3578.265473031596
 20
7472.000962736179
 30
0.0
  0
VERTEX
  5
7D2
330
6DD
100
AcDbEntity
  8
Cuenca
370
     0
100
AcDbVertex
100
AcDb2dVertex
 10
3578.265473031596
 20
7473.535286888868
 30
0.0
  0
VERTEX
  5
7D3
330
6DD
100
AcDbEntity
  8
Cuenca
370
     0
100
AcDbVertex
100
AcDb2dVertex
 10
3578.521193723711
 20
7474.046728273099
 30
0.0
  0
VERTEX
  5
7D4
330
6DD
100
AcDbEntity
  8
Cuenca
370
     0
100
AcDbVertex
100
AcDb2dVertex
 10
3578.00975233948
 20
7474.813890349444
 30
0.0
  0
VERTEX
  5
7D5
330
6DD
100
AcDbEntity
  8
Cuenca
370
     0
100
AcDbVertex
100
AcDb2dVertex
 10
3578.00975233948
 20
7475.581052425788
 30
0.0
  0
VERTEX
  5
7D6
330
6DD
100
AcDbEntity
  8
Cuenca
370
     0
100
AcDbVertex
100
AcDb2dVertex
 10
3577.242590263136
 20
7475.836773117904
 30
0.0
  0
VERTEX
  5
7D7
330
6DD
100
AcDbEntity
  8
Cuenca
370
     0
100
AcDbVertex
100
AcDb2dVertex
 10
3577.242590263136
 20
7477.115376578479
 30
0.0
  0
VERTEX
  5
7D8
330
6DD
100
AcDbEntity
  8
Cuenca
370
     0
100
AcDbVertex
100
AcDb2dVertex
 10
3576.98686957102
 20
7479.1611421154
 30
0.0
  0
VERTEX
  5
7D9
330
6DD
100
AcDbEntity
  8
Cuenca
370
     0
100
AcDbVertex
100
AcDb2dVertex
 10
3576.98686957102
 20
7480.18402488386
 30
0.0
  0
VERTEX
  5
7DA
330
6DD
100
AcDbEntity
  8
Cuenca
370
     0
100
AcDbVertex
100
AcDb2dVertex
 10
3577.242590263136
 20
7481.462628344435
 30
0.0
  0
VERTEX
  5
7DB
330
6DD
100
AcDbEntity
  8
Cuenca
370
     0
100
AcDbVertex
100
AcDb2dVertex
 10
3576.731148878906
 20
7482.22979042078
 30
0.0
  0
VERTEX
  5
7DC
330
6DD
100
AcDbEntity
  8
Cuenca
370
     0
100
AcDbVertex
100
AcDb2dVertex
 10
3576.47542818679
 20
7482.22979042078
 30
0.0
  0
VERTEX
  5
7DD
330
6DD
100
AcDbEntity
  8
Cuenca
370
     0
100
AcDbVertex
100
AcDb2dVertex
 10
3575.96398680256
 20
7482.741231805011
 30
0.0
  0
VERTEX
  5
7DE
330
6DD
100
AcDbEntity
  8
Cuenca
370
     0
100
AcDbVertex
100
AcDb2dVertex
 10
3575.45254541833
 20
7484.531276649815
 30
0.0
  0
VERTEX
  5
7DF
330
6DD
100
AcDbEntity
  8
Cuenca
370
     0
100
AcDbVertex
100
AcDb2dVertex
 10
3575.196824726215
 20
7485.29843872616
 30
0.0
  0
VERTEX
  5
7E0
330
6DD
100
AcDbEntity
  8
Cuenca
370
     0
100
AcDbVertex
100
AcDb2dVertex
 10
3574.685383341985
 20
7486.065600802506
 30
0.0
  0
VERTEX
  5
7E1
330
6DD
100
AcDbEntity
  8
Cuenca
370
     0
100
AcDbVertex
100
AcDb2dVertex
 10
3573.918221265639
 20
7486.577042186735
 30
0.0
  0
VERTEX
  5
7E2
330
6DD
100
AcDbEntity
  8
Cuenca
370
     0
100
AcDbVertex
100
AcDb2dVertex
 10
3573.662500573525
 20
7487.088483570966
 30
0.0
  0
VERTEX
  5
7E3
330
6DD
100
AcDbEntity
  8
Cuenca
370
     0
100
AcDbVertex
100
AcDb2dVertex
 10
3573.662500573525
 20
7487.344204263081
 30
0.0
  0
VERTEX
  5
7E4
330
6DD
100
AcDbEntity
  8
Cuenca
370
     0
100
AcDbVertex
100
AcDb2dVertex
 10
3573.662500573525
 20
7487.599924955197
 30
0.0
  0
VERTEX
  5
7E5
330
6DD
100
AcDbEntity
  8
Cuenca
370
     0
100
AcDbVertex
100
AcDb2dVertex
 10
3573.662500573525
 20
7488.367087031541
 30
0.0
  0
VERTEX
  5
7E6
330
6DD
100
AcDbEntity
  8
Cuenca
370
     0
100
AcDbVertex
100
AcDb2dVertex
 10
3573.662500573525
 20
7488.878528415772
 30
0.0
  0
VERTEX
  5
7E7
330
6DD
100
AcDbEntity
  8
Cuenca
370
     0
100
AcDbVertex
100
AcDb2dVertex
 10
3573.918221265639
 20
7489.134249107888
 30
0.0
  0
VERTEX
  5
7E8
330
6DD
100
AcDbEntity
  8
Cuenca
370
     0
100
AcDbVertex
100
AcDb2dVertex
 10
3573.918221265639
 20
7490.157131876346
 30
0.0
  0
VERTEX
  5
7E9
330
6DD
100
AcDbEntity
  8
Cuenca
370
     0
100
AcDbVertex
100
AcDb2dVertex
 10
3573.406779881409
 20
7491.435735336921
 30
0.0
  0
VERTEX
  5
7EA
330
6DD
100
AcDbEntity
  8
Cuenca
370
     0
100
AcDbVertex
100
AcDb2dVertex
 10
3573.406779881409
 20
7492.202897413267
 30
0.0
  0
VERTEX
  5
7EB
330
6DD
100
AcDbEntity
  8
Cuenca
370
     0
100
AcDbVertex
100
AcDb2dVertex
 10
3573.151059189294
 20
7492.970059489612
 30
0.0
  0
VERTEX
  5
7EC
330
6DD
100
AcDbEntity
  8
Cuenca
370
     0
100
AcDbVertex
100
AcDb2dVertex
 10
3572.38389711295
 20
7493.481500873842
 30
0.0
  0
VERTEX
  5
7ED
330
6DD
100
AcDbEntity
  8
Cuenca
370
     0
100
AcDbVertex
100
AcDb2dVertex
 10
3571.87245572872
 20
7493.481500873842
 30
0.0
  0
VERTEX
  5
7EE
330
6DD
100
AcDbEntity
  8
Cuenca
370
     0
100
AcDbVertex
100
AcDb2dVertex
 10
3571.87245572872
 20
7493.737221565957
 30
0.0
  0
VERTEX
  5
7EF
330
6DD
100
AcDbEntity
  8
Cuenca
370
     0
100
AcDbVertex
100
AcDb2dVertex
 10
3571.87245572872
 20
7494.248662950187
 30
0.0
  0
VERTEX
  5
7F0
330
6DD
100
AcDbEntity
  8
Cuenca
370
     0
100
AcDbVertex
100
AcDb2dVertex
 10
3572.38389711295
 20
7496.294428487107
 30
0.0
  0
VERTEX
  5
7F1
330
6DD
100
AcDbEntity
  8
Cuenca
370
     0
100
AcDbVertex
100
AcDb2dVertex
 10
3572.639617805065
 20
7497.573031947682
 30
0.0
  0
VERTEX
  5
7F2
330
6DD
100
AcDbEntity
  8
Cuenca
370
     0
100
AcDbVertex
100
AcDb2dVertex
 10
3572.895338497179
 20
7498.851635408257
 30
0.0
  0
VERTEX
  5
7F3
330
6DD
100
AcDbEntity
  8
Cuenca
370
     0
100
AcDbVertex
100
AcDb2dVertex
 10
3573.918221265639
 20
7499.874518176717
 30
0.0
  0
VERTEX
  5
7F4
330
6DD
100
AcDbEntity
  8
Cuenca
370
     0
100
AcDbVertex
100
AcDb2dVertex
 10
3574.173941957755
 20
7500.641680253064
 30
0.0
  0
VERTEX
  5
7F5
330
6DD
100
AcDbEntity
  8
Cuenca
370
     0
100
AcDbVertex
100
AcDb2dVertex
 10
3574.173941957755
 20
7501.153121637293
 30
0.0
  0
VERTEX
  5
7F6
330
6DD
100
AcDbEntity
  8
Cuenca
370
     0
100
AcDbVertex
100
AcDb2dVertex
 10
3573.662500573525
 20
7501.664563021524
 30
0.0
  0
VERTEX
  5
7F7
330
6DD
100
AcDbEntity
  8
Cuenca
370
     0
100
AcDbVertex
100
AcDb2dVertex
 10
3573.406779881409
 20
7501.920283713637
 30
0.0
  0
VERTEX
  5
7F8
330
6DD
100
AcDbEntity
  8
Cuenca
370
     0
100
AcDbVertex
100
AcDb2dVertex
 10
3572.639617805065
 20
7501.920283713637
 30
0.0
  0
VERTEX
  5
7F9
330
6DD
100
AcDbEntity
  8
Cuenca
370
     0
100
AcDbVertex
100
AcDb2dVertex
 10
3572.38389711295
 20
7502.176004405754
 30
0.0
  0
VERTEX
  5
7FA
330
6DD
100
AcDbEntity
  8
Cuenca
370
     0
100
AcDbVertex
100
AcDb2dVertex
 10
3572.639617805065
 20
7502.943166482099
 30
0.0
  0
VERTEX
  5
7FB
330
6DD
100
AcDbEntity
  8
Cuenca
370
     0
100
AcDbVertex
100
AcDb2dVertex
 10
3572.639617805065
 20
7503.198887174214
 30
0.0
  0
VERTEX
  5
7FC
330
6DD
100
AcDbEntity
  8
Cuenca
370
     0
100
AcDbVertex
100
AcDb2dVertex
 10
3572.639617805065
 20
7503.45460786633
 30
0.0
  0
VERTEX
  5
7FD
330
6DD
100
AcDbEntity
  8
Cuenca
370
     0
100
AcDbVertex
100
AcDb2dVertex
 10
3572.128176420835
 20
7503.710328558444
 30
0.0
  0
VERTEX
  5
7FE
330
6DD
100
AcDbEntity
  8
Cuenca
370
     0
100
AcDbVertex
100
AcDb2dVertex
 10
3571.87245572872
 20
7503.966049250559
 30
0.0
  0
VERTEX
  5
7FF
330
6DD
100
AcDbEntity
  8
Cuenca
370
     0
100
AcDbVertex
100
AcDb2dVertex
 10
3571.36101434449
 20
7503.966049250559
 30
0.0
  0
VERTEX
  5
800
330
6DD
100
AcDbEntity
  8
Cuenca
370
     0
100
AcDbVertex
100
AcDb2dVertex
 10
3571.105293652375
 20
7503.966049250559
 30
0.0
  0
VERTEX
  5
801
330
6DD
100
AcDbEntity
  8
Cuenca
370
     0
100
AcDbVertex
100
AcDb2dVertex
 10
3570.849572960259
 20
7503.710328558444
 30
0.0
  0
VERTEX
  5
802
330
6DD
100
AcDbEntity
  8
Cuenca
370
     0
100
AcDbVertex
100
AcDb2dVertex
 10
3570.593852268145
 20
7503.45460786633
 30
0.0
  0
VERTEX
  5
803
330
6DD
100
AcDbEntity
  8
Cuenca
370
     0
100
AcDbVertex
100
AcDb2dVertex
 10
3570.338131576029
 20
7503.198887174214
 30
0.0
  0
VERTEX
  5
804
330
6DD
100
AcDbEntity
  8
Cuenca
370
     0
100
AcDbVertex
100
AcDb2dVertex
 10
3569.570969499685
 20
7503.45460786633
 30
0.0
  0
VERTEX
  5
805
330
6DD
100
AcDbEntity
  8
Cuenca
370
     0
100
AcDbVertex
100
AcDb2dVertex
 10
3569.315248807569
 20
7503.45460786633
 30
0.0
  0
VERTEX
  5
806
330
6DD
100
AcDbEntity
  8
Cuenca
370
     0
100
AcDbVertex
100
AcDb2dVertex
 10
3569.059528115454
 20
7503.966049250559
 30
0.0
  0
VERTEX
  5
807
330
6DD
100
AcDbEntity
  8
Cuenca
370
     0
100
AcDbVertex
100
AcDb2dVertex
 10
3569.315248807569
 20
7504.733211326904
 30
0.0
  0
VERTEX
  5
808
330
6DD
100
AcDbEntity
  8
Cuenca
370
     0
100
AcDbVertex
100
AcDb2dVertex
 10
3569.570969499685
 20
7505.50037340325
 30
0.0
  0
VERTEX
  5
809
330
6DD
100
AcDbEntity
  8
Cuenca
370
     0
100
AcDbVertex
100
AcDb2dVertex
 10
3569.315248807569
 20
7506.011814787479
 30
0.0
  0
VERTEX
  5
80A
330
6DD
100
AcDbEntity
  8
Cuenca
370
     0
100
AcDbVertex
100
AcDb2dVertex
 10
3569.059528115454
 20
7506.52325617171
 30
0.0
  0
VERTEX
  5
80B
330
6DD
100
AcDbEntity
  8
Cuenca
370
     0
100
AcDbVertex
100
AcDb2dVertex
 10
3569.315248807569
 20
7507.54613894017
 30
0.0
  0
VERTEX
  5
80C
330
6DD
100
AcDbEntity
  8
Cuenca
370
     0
100
AcDbVertex
100
AcDb2dVertex
 10
3569.315248807569
 20
7508.313301016515
 30
0.0
  0
VERTEX
  5
80D
330
6DD
100
AcDbEntity
  8
Cuenca
370
     0
100
AcDbVertex
100
AcDb2dVertex
 10
3569.059528115454
 20
7509.08046309286
 30
0.0
  0
VERTEX
  5
80E
330
6DD
100
AcDbEntity
  8
Cuenca
370
     0
100
AcDbVertex
100
AcDb2dVertex
 10
3569.059528115454
 20
7510.359066553435
 30
0.0
  0
VERTEX
  5
80F
330
6DD
100
AcDbEntity
  8
Cuenca
370
     0
100
AcDbVertex
100
AcDb2dVertex
 10
3569.315248807569
 20
7510.870507937664
 30
0.0
  0
VERTEX
  5
810
330
6DD
100
AcDbEntity
  8
Cuenca
370
     0
100
AcDbVertex
100
AcDb2dVertex
 10
3569.315248807569
 20
7511.637670014009
 30
0.0
  0
VERTEX
  5
811
330
6DD
100
AcDbEntity
  8
Cuenca
370
     0
100
AcDbVertex
100
AcDb2dVertex
 10
3569.315248807569
 20
7512.14911139824
 30
0.0
  0
VERTEX
  5
812
330
6DD
100
AcDbEntity
  8
Cuenca
370
     0
100
AcDbVertex
100
AcDb2dVertex
 10
3569.570969499685
 20
7512.404832090355
 30
0.0
  0
VERTEX
  5
813
330
6DD
100
AcDbEntity
  8
Cuenca
370
     0
100
AcDbVertex
100
AcDb2dVertex
 10
3569.826690191799
 20
7512.66055278247
 30
0.0
  0
VERTEX
  5
814
330
6DD
100
AcDbEntity
  8
Cuenca
370
     0
100
AcDbVertex
100
AcDb2dVertex
 10
3570.082410883914
 20
7512.916273474584
 30
0.0
  0
VERTEX
  5
815
330
6DD
100
AcDbEntity
  8
Cuenca
370
     0
100
AcDbVertex
100
AcDb2dVertex
 10
3570.082410883914
 20
7512.916273474584
 30
0.0
  0
VERTEX
  5
816
330
6DD
100
AcDbEntity
  8
Cuenca
370
     0
100
AcDbVertex
100
AcDb2dVertex
 10
3570.849572960259
 20
7513.68343555093
 30
0.0
  0
VERTEX
  5
817
330
6DD
100
AcDbEntity
  8
Cuenca
370
     0
100
AcDbVertex
100
AcDb2dVertex
 10
3571.105293652375
 20
7514.19487693516
 30
0.0
  0
VERTEX
  5
818
330
6DD
100
AcDbEntity
  8
Cuenca
370
     0
100
AcDbVertex
100
AcDb2dVertex
 10
3571.36101434449
 20
7514.70631831939
 30
0.0
  0
VERTEX
  5
819
330
6DD
100
AcDbEntity
  8
Cuenca
370
     0
100
AcDbVertex
100
AcDb2dVertex
 10
3571.87245572872
 20
7515.217759703621
 30
0.0
  0
VERTEX
  5
81A
330
6DD
100
AcDbEntity
  8
Cuenca
370
     0
100
AcDbVertex
100
AcDb2dVertex
 10
3572.128176420835
 20
7515.984921779966
 30
0.0
  0
VERTEX
  5
81B
330
6DD
100
AcDbEntity
  8
Cuenca
370
     0
100
AcDbVertex
100
AcDb2dVertex
 10
3572.639617805065
 20
7516.496363164195
 30
0.0
  0
VERTEX
  5
81C
330
6DD
100
AcDbEntity
  8
Cuenca
370
     0
100
AcDbVertex
100
AcDb2dVertex
 10
3573.151059189294
 20
7517.77496662477
 30
0.0
  0
VERTEX
  5
81D
330
6DD
100
AcDbEntity
  8
Cuenca
370
     0
100
AcDbVertex
100
AcDb2dVertex
 10
3573.406779881409
 20
7518.797849393232
 30
0.0
  0
VERTEX
  5
81E
330
6DD
100
AcDbEntity
  8
Cuenca
370
     0
100
AcDbVertex
100
AcDb2dVertex
 10
3573.918221265639
 20
7520.076452853807
 30
0.0
  0
VERTEX
  5
81F
330
6DD
100
AcDbEntity
  8
Cuenca
370
     0
100
AcDbVertex
100
AcDb2dVertex
 10
3574.173941957755
 20
7520.332173545921
 30
0.0
  0
VERTEX
  5
820
330
6DD
100
AcDbEntity
  8
Cuenca
370
     0
100
AcDbVertex
100
AcDb2dVertex
 10
3574.173941957755
 20
7521.099335622267
 30
0.0
  0
VERTEX
  5
821
330
6DD
100
AcDbEntity
  8
Cuenca
370
     0
100
AcDbVertex
100
AcDb2dVertex
 10
3574.42966264987
 20
7522.122218390727
 30
0.0
  0
VERTEX
  5
822
330
6DD
100
AcDbEntity
  8
Cuenca
370
     0
100
AcDbVertex
100
AcDb2dVertex
 10
3574.42966264987
 20
7522.377939082843
 30
0.0
  0
VERTEX
  5
823
330
6DD
100
AcDbEntity
  8
Cuenca
370
     0
100
AcDbVertex
100
AcDb2dVertex
 10
3574.941104034099
 20
7522.889380467074
 30
0.0
  0
VERTEX
  5
824
330
6DD
100
AcDbEntity
  8
Cuenca
370
     0
100
AcDbVertex
100
AcDb2dVertex
 10
3575.196824726215
 20
7523.145101159187
 30
0.0
  0
VERTEX
  5
825
330
6DD
100
AcDbEntity
  8
Cuenca
370
     0
100
AcDbVertex
100
AcDb2dVertex
 10
3575.45254541833
 20
7523.145101159187
 30
0.0
  0
VERTEX
  5
826
330
6DD
100
AcDbEntity
  8
Cuenca
370
     0
100
AcDbVertex
100
AcDb2dVertex
 10
3575.708266110445
 20
7523.145101159187
 30
0.0
  0
VERTEX
  5
827
330
6DD
100
AcDbEntity
  8
Cuenca
370
     0
100
AcDbVertex
100
AcDb2dVertex
 10
3575.45254541833
 20
7524.167983927647
 30
0.0
  0
VERTEX
  5
828
330
6DD
100
AcDbEntity
  8
Cuenca
370
     0
100
AcDbVertex
100
AcDb2dVertex
 10
3575.45254541833
 20
7525.190866696107
 30
0.0
  0
VERTEX
  5
829
330
6DD
100
AcDbEntity
  8
Cuenca
370
     0
100
AcDbVertex
100
AcDb2dVertex
 10
3575.708266110445
 20
7526.213749464567
 30
0.0
  0
VERTEX
  5
82A
330
6DD
100
AcDbEntity
  8
Cuenca
370
     0
100
AcDbVertex
100
AcDb2dVertex
 10
3576.47542818679
 20
7527.492352925142
 30
0.0
  0
VERTEX
  5
82B
330
6DD
100
AcDbEntity
  8
Cuenca
370
     0
100
AcDbVertex
100
AcDb2dVertex
 10
3576.98686957102
 20
7528.770956385717
 30
0.0
  0
VERTEX
  5
82C
330
6DD
100
AcDbEntity
  8
Cuenca
370
     0
100
AcDbVertex
100
AcDb2dVertex
 10
3577.242590263136
 20
7530.305280538408
 30
0.0
  0
VERTEX
  5
82D
330
6DD
100
AcDbEntity
  8
Cuenca
370
     0
100
AcDbVertex
100
AcDb2dVertex
 10
3577.498310955251
 20
7531.072442614753
 30
0.0
  0
VERTEX
  5
82E
330
6DD
100
AcDbEntity
  8
Cuenca
370
     0
100
AcDbVertex
100
AcDb2dVertex
 10
3577.754031647366
 20
7531.072442614753
 30
0.0
  0
VERTEX
  5
82F
330
6DD
100
AcDbEntity
  8
Cuenca
370
     0
100
AcDbVertex
100
AcDb2dVertex
 10
3578.265473031596
 20
7531.072442614753
 30
0.0
  0
VERTEX
  5
830
330
6DD
100
AcDbEntity
  8
Cuenca
370
     0
100
AcDbVertex
100
AcDb2dVertex
 10
3578.776914415826
 20
7531.072442614753
 30
0.0
  0
VERTEX
  5
831
330
6DD
100
AcDbEntity
  8
Cuenca
370
     0
100
AcDbVertex
100
AcDb2dVertex
 10
3579.288355800056
 20
7530.561001230523
 30
0.0
  0
VERTEX
  5
832
330
6DD
100
AcDbEntity
  8
Cuenca
370
     0
100
AcDbVertex
100
AcDb2dVertex
 10
3579.544076492171
 20
7530.305280538408
 30
0.0
  0
VERTEX
  5
833
330
6DD
100
AcDbEntity
  8
Cuenca
370
     0
100
AcDbVertex
100
AcDb2dVertex
 10
3579.799797184286
 20
7530.305280538408
 30
0.0
  0
VERTEX
  5
834
330
6DD
100
AcDbEntity
  8
Cuenca
370
     0
100
AcDbVertex
100
AcDb2dVertex
 10
3580.822679952746
 20
7530.305280538408
 30
0.0
  0
VERTEX
  5
835
330
6DD
100
AcDbEntity
  8
Cuenca
370
     0
100
AcDbVertex
100
AcDb2dVertex
 10
3581.078400644861
 20
7530.305280538408
 30
0.0
  0
VERTEX
  5
836
330
6DD
100
AcDbEntity
  8
Cuenca
370
     0
100
AcDbVertex
100
AcDb2dVertex
 10
3581.589842029091
 20
7530.049559846293
 30
0.0
  0
VERTEX
  5
837
330
6DD
100
AcDbEntity
  8
Cuenca
370
     0
100
AcDbVertex
100
AcDb2dVertex
 10
3581.845562721206
 20
7529.282397769948
 30
0.0
  0
VERTEX
  5
838
330
6DD
100
AcDbEntity
  8
Cuenca
370
     0
100
AcDbVertex
100
AcDb2dVertex
 10
3581.845562721206
 20
7528.515235693603
 30
0.0
  0
VERTEX
  5
839
330
6DD
100
AcDbEntity
  8
Cuenca
370
     0
100
AcDbVertex
100
AcDb2dVertex
 10
3581.589842029091
 20
7527.492352925142
 30
0.0
  0
VERTEX
  5
83A
330
6DD
100
AcDbEntity
  8
Cuenca
370
     0
100
AcDbVertex
100
AcDb2dVertex
 10
3581.845562721206
 20
7526.980911540913
 30
0.0
  0
VERTEX
  5
83B
330
6DD
100
AcDbEntity
  8
Cuenca
370
     0
100
AcDbVertex
100
AcDb2dVertex
 10
3582.357004105436
 20
7526.725190848797
 30
0.0
  0
VERTEX
  5
83C
330
6DD
100
AcDbEntity
  8
Cuenca
370
     0
100
AcDbVertex
100
AcDb2dVertex
 10
3582.612724797551
 20
7526.725190848797
 30
0.0
  0
VERTEX
  5
83D
330
6DD
100
AcDbEntity
  8
Cuenca
370
     0
100
AcDbVertex
100
AcDb2dVertex
 10
3583.124166181781
 20
7526.469470156682
 30
0.0
  0
VERTEX
  5
83E
330
6DD
100
AcDbEntity
  8
Cuenca
370
     0
100
AcDbVertex
100
AcDb2dVertex
 10
3583.635607566011
 20
7525.190866696107
 30
0.0
  0
VERTEX
  5
83F
330
6DD
100
AcDbEntity
  8
Cuenca
370
     0
100
AcDbVertex
100
AcDb2dVertex
 10
3584.147048950241
 20
7523.656542543418
 30
0.0
  0
VERTEX
  5
840
330
6DD
100
AcDbEntity
  8
Cuenca
370
     0
100
AcDbVertex
100
AcDb2dVertex
 10
3584.147048950241
 20
7523.145101159187
 30
0.0
  0
VERTEX
  5
841
330
6DD
100
AcDbEntity
  8
Cuenca
370
     0
100
AcDbVertex
100
AcDb2dVertex
 10
3584.147048950241
 20
7521.866497698612
 30
0.0
  0
VERTEX
  5
842
330
6DD
100
AcDbEntity
  8
Cuenca
370
     0
100
AcDbVertex
100
AcDb2dVertex
 10
3584.402769642357
 20
7521.099335622267
 30
0.0
  0
VERTEX
  5
843
330
6DD
100
AcDbEntity
  8
Cuenca
370
     0
100
AcDbVertex
100
AcDb2dVertex
 10
3584.402769642357
 20
7520.076452853807
 30
0.0
  0
VERTEX
  5
844
330
6DD
100
AcDbEntity
  8
Cuenca
370
     0
100
AcDbVertex
100
AcDb2dVertex
 10
3584.658490334471
 20
7518.797849393232
 30
0.0
  0
VERTEX
  5
845
330
6DD
100
AcDbEntity
  8
Cuenca
370
     0
100
AcDbVertex
100
AcDb2dVertex
 10
3584.914211026587
 20
7518.797849393232
 30
0.0
  0
VERTEX
  5
846
330
6DD
100
AcDbEntity
  8
Cuenca
370
     0
100
AcDbVertex
100
AcDb2dVertex
 10
3585.169931718702
 20
7518.542128701117
 30
0.0
  0
VERTEX
  5
847
330
6DD
100
AcDbEntity
  8
Cuenca
370
     0
100
AcDbVertex
100
AcDb2dVertex
 10
3585.681373102931
 20
7518.797849393232
 30
0.0
  0
VERTEX
  5
848
330
6DD
100
AcDbEntity
  8
Cuenca
370
     0
100
AcDbVertex
100
AcDb2dVertex
 10
3586.192814487162
 20
7519.820732161692
 30
0.0
  0
VERTEX
  5
849
330
6DD
100
AcDbEntity
  8
Cuenca
370
     0
100
AcDbVertex
100
AcDb2dVertex
 10
3586.448535179278
 20
7521.355056314381
 30
0.0
  0
VERTEX
  5
84A
330
6DD
100
AcDbEntity
  8
Cuenca
370
     0
100
AcDbVertex
100
AcDb2dVertex
 10
3586.704255871392
 20
7522.377939082843
 30
0.0
  0
VERTEX
  5
84B
330
6DD
100
AcDbEntity
  8
Cuenca
370
     0
100
AcDbVertex
100
AcDb2dVertex
 10
3586.959976563507
 20
7522.889380467074
 30
0.0
  0
VERTEX
  5
84C
330
6DD
100
AcDbEntity
  8
Cuenca
370
     0
100
AcDbVertex
100
AcDb2dVertex
 10
3588.238580024083
 20
7522.889380467074
 30
0.0
  0
VERTEX
  5
84D
330
6DD
100
AcDbEntity
  8
Cuenca
370
     0
100
AcDbVertex
100
AcDb2dVertex
 10
3589.005742100427
 20
7522.889380467074
 30
0.0
  0
VERTEX
  5
84E
330
6DD
100
AcDbEntity
  8
Cuenca
370
     0
100
AcDbVertex
100
AcDb2dVertex
 10
3589.261462792542
 20
7522.889380467074
 30
0.0
  0
VERTEX
  5
84F
330
6DD
100
AcDbEntity
  8
Cuenca
370
     0
100
AcDbVertex
100
AcDb2dVertex
 10
3590.540066253117
 20
7523.145101159187
 30
0.0
  0
VERTEX
  5
850
330
6DD
100
AcDbEntity
  8
Cuenca
370
     0
100
AcDbVertex
100
AcDb2dVertex
 10
3591.562949021578
 20
7523.400821851303
 30
0.0
  0
VERTEX
  5
851
330
6DD
100
AcDbEntity
  8
Cuenca
370
     0
100
AcDbVertex
100
AcDb2dVertex
 10
3591.818669713692
 20
7523.400821851303
 30
0.0
  0
VERTEX
  5
852
330
6DD
100
AcDbEntity
  8
Cuenca
370
     0
100
AcDbVertex
100
AcDb2dVertex
 10
3592.330111097923
 20
7523.656542543418
 30
0.0
  0
VERTEX
  5
853
330
6DD
100
AcDbEntity
  8
Cuenca
370
     0
100
AcDbVertex
100
AcDb2dVertex
 10
3593.097273174268
 20
7524.167983927647
 30
0.0
  0
VERTEX
  5
854
330
6DD
100
AcDbEntity
  8
Cuenca
370
     0
100
AcDbVertex
100
AcDb2dVertex
 10
3594.120155942729
 20
7524.935146003993
 30
0.0
  0
VERTEX
  5
855
330
6DD
100
AcDbEntity
  8
Cuenca
370
     0
100
AcDbVertex
100
AcDb2dVertex
 10
3594.631597326958
 20
7524.935146003993
 30
0.0
  0
VERTEX
  5
856
330
6DD
100
AcDbEntity
  8
Cuenca
370
     0
100
AcDbVertex
100
AcDb2dVertex
 10
3594.887318019073
 20
7524.679425311878
 30
0.0
  0
VERTEX
  5
857
330
6DD
100
AcDbEntity
  8
Cuenca
370
     0
100
AcDbVertex
100
AcDb2dVertex
 10
3595.398759403303
 20
7524.167983927647
 30
0.0
  0
VERTEX
  5
858
330
6DD
100
AcDbEntity
  8
Cuenca
370
     0
100
AcDbVertex
100
AcDb2dVertex
 10
3595.910200787534
 20
7523.656542543418
 30
0.0
  0
VERTEX
  5
859
330
6DD
100
AcDbEntity
  8
Cuenca
370
     0
100
AcDbVertex
100
AcDb2dVertex
 10
3596.165921479649
 20
7523.145101159187
 30
0.0
  0
VERTEX
  5
85A
330
6DD
100
AcDbEntity
  8
Cuenca
370
     0
100
AcDbVertex
100
AcDb2dVertex
 10
3596.677362863879
 20
7523.145101159187
 30
0.0
  0
VERTEX
  5
85B
330
6DD
100
AcDbEntity
  8
Cuenca
370
     0
100
AcDbVertex
100
AcDb2dVertex
 10
3597.444524940224
 20
7522.889380467074
 30
0.0
  0
VERTEX
  5
85C
330
6DD
100
AcDbEntity
  8
Cuenca
370
     0
100
AcDbVertex
100
AcDb2dVertex
 10
3598.467407708684
 20
7522.377939082843
 30
0.0
  0
VERTEX
  5
85D
330
6DD
100
AcDbEntity
  8
Cuenca
370
     0
100
AcDbVertex
100
AcDb2dVertex
 10
3598.723128400799
 20
7522.122218390727
 30
0.0
  0
VERTEX
  5
85E
330
6DD
100
AcDbEntity
  8
Cuenca
370
     0
100
AcDbVertex
100
AcDb2dVertex
 10
3599.234569785029
 20
7522.377939082843
 30
0.0
  0
VERTEX
  5
85F
330
6DD
100
AcDbEntity
  8
Cuenca
370
     0
100
AcDbVertex
100
AcDb2dVertex
 10
3600.001731861374
 20
7522.122218390727
 30
0.0
  0
VERTEX
  5
860
330
6DD
100
AcDbEntity
  8
Cuenca
370
     0
100
AcDbVertex
100
AcDb2dVertex
 10
3600.001731861374
 20
7521.866497698612
 30
0.0
  0
VERTEX
  5
861
330
6DD
100
AcDbEntity
  8
Cuenca
370
     0
100
AcDbVertex
100
AcDb2dVertex
 10
3600.001731861374
 20
7521.355056314381
 30
0.0
  0
VERTEX
  5
862
330
6DD
100
AcDbEntity
  8
Cuenca
370
     0
100
AcDbVertex
100
AcDb2dVertex
 10
3599.490290477144
 20
7520.843614930152
 30
0.0
  0
VERTEX
  5
863
330
6DD
100
AcDbEntity
  8
Cuenca
370
     0
100
AcDbVertex
100
AcDb2dVertex
 10
3598.978849092914
 20
7520.076452853807
 30
0.0
  0
VERTEX
  5
864
330
6DD
100
AcDbEntity
  8
Cuenca
370
     0
100
AcDbVertex
100
AcDb2dVertex
 10
3598.723128400799
 20
7519.053570085346
 30
0.0
  0
VERTEX
  5
865
330
6DD
100
AcDbEntity
  8
Cuenca
370
     0
100
AcDbVertex
100
AcDb2dVertex
 10
3598.467407708684
 20
7518.286408009001
 30
0.0
  0
VERTEX
  5
866
330
6DD
100
AcDbEntity
  8
Cuenca
370
     0
100
AcDbVertex
100
AcDb2dVertex
 10
3598.467407708684
 20
7517.519245932657
 30
0.0
  0
VERTEX
  5
867
330
6DD
100
AcDbEntity
  8
Cuenca
370
     0
100
AcDbVertex
100
AcDb2dVertex
 10
3598.723128400799
 20
7517.263525240541
 30
0.0
  0
VERTEX
  5
868
330
6DD
100
AcDbEntity
  8
Cuenca
370
     0
100
AcDbVertex
100
AcDb2dVertex
 10
3598.467407708684
 20
7516.752083856312
 30
0.0
  0
VERTEX
  5
869
330
6DD
100
AcDbEntity
  8
Cuenca
370
     0
100
AcDbVertex
100
AcDb2dVertex
 10
3597.955966324454
 20
7515.473480395737
 30
0.0
  0
VERTEX
  5
86A
330
6DD
100
AcDbEntity
  8
Cuenca
370
     0
100
AcDbVertex
100
AcDb2dVertex
 10
3597.700245632339
 20
7514.962039011506
 30
0.0
  0
VERTEX
  5
86B
330
6DD
100
AcDbEntity
  8
Cuenca
370
     0
100
AcDbVertex
100
AcDb2dVertex
 10
3597.444524940224
 20
7514.450597627275
 30
0.0
  0
VERTEX
  5
86C
330
6DD
100
AcDbEntity
  8
Cuenca
370
     0
100
AcDbVertex
100
AcDb2dVertex
 10
3597.444524940224
 20
7513.171994166701
 30
0.0
  0
VERTEX
  5
86D
330
6DD
100
AcDbEntity
  8
Cuenca
370
     0
100
AcDbVertex
100
AcDb2dVertex
 10
3597.444524940224
 20
7512.66055278247
 30
0.0
  0
VERTEX
  5
86E
330
6DD
100
AcDbEntity
  8
Cuenca
370
     0
100
AcDbVertex
100
AcDb2dVertex
 10
3596.933083555994
 20
7511.12622862978
 30
0.0
  0
VERTEX
  5
86F
330
6DD
100
AcDbEntity
  8
Cuenca
370
     0
100
AcDbVertex
100
AcDb2dVertex
 10
3596.677362863879
 20
7510.61478724555
 30
0.0
  0
VERTEX
  5
870
330
6DD
100
AcDbEntity
  8
Cuenca
370
     0
100
AcDbVertex
100
AcDb2dVertex
 10
3596.677362863879
 20
7509.847625169205
 30
0.0
  0
VERTEX
  5
871
330
6DD
100
AcDbEntity
  8
Cuenca
370
     0
100
AcDbVertex
100
AcDb2dVertex
 10
3596.421642171764
 20
7509.08046309286
 30
0.0
  0
VERTEX
  5
872
330
6DD
100
AcDbEntity
  8
Cuenca
370
     0
100
AcDbVertex
100
AcDb2dVertex
 10
3595.654480095419
 20
7507.801859632285
 30
0.0
  0
VERTEX
  5
873
330
6DD
100
AcDbEntity
  8
Cuenca
370
     0
100
AcDbVertex
100
AcDb2dVertex
 10
3595.143038711189
 20
7507.03469755594
 30
0.0
  0
VERTEX
  5
874
330
6DD
100
AcDbEntity
  8
Cuenca
370
     0
100
AcDbVertex
100
AcDb2dVertex
 10
3594.887318019073
 20
7506.011814787479
 30
0.0
  0
VERTEX
  5
875
330
6DD
100
AcDbEntity
  8
Cuenca
370
     0
100
AcDbVertex
100
AcDb2dVertex
 10
3594.887318019073
 20
7505.50037340325
 30
0.0
  0
VERTEX
  5
876
330
6DD
100
AcDbEntity
  8
Cuenca
370
     0
100
AcDbVertex
100
AcDb2dVertex
 10
3594.631597326958
 20
7504.988932019019
 30
0.0
  0
VERTEX
  5
877
330
6DD
100
AcDbEntity
  8
Cuenca
370
     0
100
AcDbVertex
100
AcDb2dVertex
 10
3594.120155942729
 20
7504.221769942674
 30
0.0
  0
VERTEX
  5
878
330
6DD
100
AcDbEntity
  8
Cuenca
370
     0
100
AcDbVertex
100
AcDb2dVertex
 10
3593.864435250613
 20
7503.710328558444
 30
0.0
  0
VERTEX
  5
879
330
6DD
100
AcDbEntity
  8
Cuenca
370
     0
100
AcDbVertex
100
AcDb2dVertex
 10
3593.608714558498
 20
7502.687445789984
 30
0.0
  0
VERTEX
  5
87A
330
6DD
100
AcDbEntity
  8
Cuenca
370
     0
100
AcDbVertex
100
AcDb2dVertex
 10
3593.864435250613
 20
7502.176004405754
 30
0.0
  0
VERTEX
  5
87B
330
6DD
100
AcDbEntity
  8
Cuenca
370
     0
100
AcDbVertex
100
AcDb2dVertex
 10
3594.375876634843
 20
7500.385959560948
 30
0.0
  0
VERTEX
  5
87C
330
6DD
100
AcDbEntity
  8
Cuenca
370
     0
100
AcDbVertex
100
AcDb2dVertex
 10
3594.631597326958
 20
7499.107356100373
 30
0.0
  0
VERTEX
  5
87D
330
6DD
100
AcDbEntity
  8
Cuenca
370
     0
100
AcDbVertex
100
AcDb2dVertex
 10
3594.631597326958
 20
7498.084473331913
 30
0.0
  0
VERTEX
  5
87E
330
6DD
100
AcDbEntity
  8
Cuenca
370
     0
100
AcDbVertex
100
AcDb2dVertex
 10
3594.887318019073
 20
7497.317311255568
 30
0.0
  0
VERTEX
  5
87F
330
6DD
100
AcDbEntity
  8
Cuenca
370
     0
100
AcDbVertex
100
AcDb2dVertex
 10
3594.887318019073
 20
7496.038707794993
 30
0.0
  0
SEQEND
  5
880
330
6DD
100
AcDbEntity
  8
Cuenca
370
     0
  0
ENDSEC
  0
SECTION
  2
OBJECTS
  0
DICTIONARY
  5
C
330
0
100
AcDbDictionary
281
     1
  3
ACAD_COLOR
350
6B
  3
ACAD_GROUP
350
D
  3
ACAD_LAYOUT
350
1A
  3
ACAD_MATERIAL
350
6A
  3
ACAD_MLEADERSTYLE
350
12D
  3
ACAD_MLINESTYLE
350
17
  3
ACAD_PLOTSETTINGS
350
19
  3
ACAD_PLOTSTYLENAME
350
E
  3
ACAD_SCALELIST
350
10C
  3
ACAD_TABLESTYLE
350
7E
  3
ACAD_VISUALSTYLE
350
EF
  3
ACDB_RECOMPOSE_DATA
350
15D
  3
AcDbVariableDictionary
350
5E
  0
DICTIONARY
  5
13C
330
10
100
AcDbDictionary
280
     1
281
     1
  0
DICTIONARY
  5
1CE
330
1F
100
AcDbDictionary
280
     1
281
     1
  0
DICTIONARY
  5
6B
102
{ACAD_REACTORS
330
C
102
}
330
C
100
AcDbDictionary
281
     1
  0
DICTIONARY
  5
D
102
{ACAD_REACTORS
330
C
102
}
330
C
100
AcDbDictionary
281
     1
  0
DICTIONARY
  5
1A
102
{ACAD_REACTORS
330
C
102
}
330
C
100
AcDbDictionary
281
     1
  3
Model
350
22
  3
Presentacin1
350
D3
  3
Presentacin2
350
D7
  0
DICTIONARY
  5
6A
102
{ACAD_REACTORS
330
C
102
}
330
C
100
AcDbDictionary
281
     1
  3
ByBlock
350
ED
  3
ByLayer
350
EC
  3
Global
350
EE
  0
DICTIONARY
  5
12D
102
{ACAD_REACTORS
330
C
102
}
330
C
100
AcDbDictionary
281
     1
  3
Anotativo
350
13B
  3
Standard
350
12E
  0
DICTIONARY
  5
17
102
{ACAD_REACTORS
330
C
102
}
330
C
100
AcDbDictionary
281
     1
  3
Standard
350
18
  0
DICTIONARY
  5
19
102
{ACAD_REACTORS
330
C
102
}
330
C
100
AcDbDictionary
281
     1
  0
ACDBDICTIONARYWDFLT
  5
E
102
{ACAD_REACTORS
330
C
102
}
330
C
100
AcDbDictionary
281
     1
  3
Normal
350
F
100
AcDbDictionaryWithDefault
340
F
  0
DICTIONARY
  5
10C
102
{ACAD_REACTORS
330
C
102
}
330
C
100
AcDbDictionary
281
     1
  3
A0
350
10D
  3
A1
350
1BE
  3
A2
350
1BF
  3
A3
350
1C0
  3
A4
350
1C1
  3
A5
350
1C2
  3
A6
350
1C3
  3
A7
350
1C4
  3
A8
350
1C5
  3
A9
350
1C6
  3
B0
350
1C7
  3
B1
350
1C8
  3
B2
350
1C9
  3
B3
350
1CA
  3
B4
350
1CB
  3
B5
350
1CC
  3
B6
350
1CD
  0
DICTIONARY
  5
7E
102
{ACAD_REACTORS
330
C
102
}
330
C
100
AcDbDictionary
281
     1
  3
Standard
350
7F
  0
DICTIONARY
  5
EF
102
{ACAD_REACTORS
330
C
102
}
330
C
100
AcDbDictionary
281
     1
  3
2dWireframe
350
F5
  3
3D Hidden
350
F7
  3
3dWireframe
350
F6
  3
Basic
350
F4
  3
Brighten
350
FB
  3
ColorChange
350
FF
  3
Conceptual
350
F8
  3
Dim
350
FA
  3
Facepattern
350
FE
  3
Flat
350
F0
  3
FlatWithEdges
350
F1
  3
Gouraud
350
F2
  3
GouraudWithEdges
350
F3
  3
Linepattern
350
FD
  3
Realistic
350
F9
  3
Thicken
350
FC
  0
XRECORD
  5
15D
102
{ACAD_REACTORS
330
C
102
}
330
C
100
AcDbXrecord
280
     1
 90
        1
330
7F
  0
DICTIONARY
  5
5E
102
{ACAD_REACTORS
330
C
102
}
330
C
100
AcDbDictionary
281
     1
  3
CANNOSCALE
350
146
  3
CMLEADERSTYLE
350
145
  3
CTABLESTYLE
350
84
  3
DIMASSOC
350
5F
  3
HIDETEXT
350
63
  3
LAYEREVAL
350
1AE
  3
LAYERNOTIFY
350
1AF
  3
LIGHTINGUNITS
350
882
  3
MSLTSCALE
350
881
  3
PSOLHEIGHT
350
884
  3
PSOLWIDTH
350
883
  0
LAYOUT
  5
22
102
{ACAD_REACTORS
330
1A
102
}
330
1A
100
AcDbPlotSettings
  1

  2
none_device
  4
ISO_A4_(210.00_x_297.00_MM)
  6

 40
7.5
 41
20.0
 42
7.5
 43
20.0
 44
210.0
 45
297.0
 46
11.54999923706054
 47
-13.65000009536743
 48
0.0
 49
0.0
140
0.0
141
0.0
142
1.0
143
8.704084754739808
 70
 11952
 72
     1
 73
     0
 74
     0
  7

 75
     0
147
0.1148885871608098
 76
     0
 77
     2
 78
   300
148
0.0
149
0.0
100
AcDbLayout
  1
Model
 70
     1
 71
     0
 10
0.0
 20
0.0
 11
12.0
 21
9.0
 12
0.0
 22
0.0
 32
0.0
 14
0.0
 24
0.0
 34
0.0
 15
0.0
 25
0.0
 35
0.0
146
0.0
 13
0.0
 23
0.0
 33
0.0
 16
1.0
 26
0.0
 36
0.0
 17
0.0
 27
1.0
 37
0.0
 76
     0
330
1F
331
EA
1001
ACAD_PSEXT
1000
None
1000
None
1000
Not applicable
1000
The layout will not be plotted unless a new plotter configuration name is selected.
1070
     0
  0
LAYOUT
  5
D3
102
{ACAD_REACTORS
330
1A
102
}
330
1A
100
AcDbPlotSettings
  1

  2
C:\Documents and Settings\basas\Application Data\Autodesk\AutoCAD 2005\R16.1\enu\plotters\Default Windows System Printer.pc3
  4

  6

 40
0.0
 41
0.0
 42
0.0
 43
0.0
 44
0.0
 45
0.0
 46
0.0
 47
0.0
 48
0.0
 49
0.0
140
0.0
141
0.0
142
1.0
143
1.0
 70
   688
 72
     0
 73
     0
 74
     5
  7

 75
    16
147
1.0
 76
     0
 77
     2
 78
   300
148
0.0
149
0.0
100
AcDbLayout
  1
Presentacin1
 70
     1
 71
     1
 10
0.0
 20
0.0
 11
12.0
 21
9.0
 12
0.0
 22
0.0
 32
0.0
 14
0.0
 24
0.0
 34
0.0
 15
0.0
 25
0.0
 35
0.0
146
0.0
 13
0.0
 23
0.0
 33
0.0
 16
1.0
 26
0.0
 36
0.0
 17
0.0
 27
1.0
 37
0.0
 76
     0
330
D2
  0
LAYOUT
  5
D7
102
{ACAD_REACTORS
330
1A
102
}
330
1A
100
AcDbPlotSettings
  1

  2
C:\Documents and Settings\basas\Application Data\Autodesk\AutoCAD 2005\R16.1\enu\plotters\Default Windows System Printer.pc3
  4

  6

 40
0.0
 41
0.0
 42
0.0
 43
0.0
 44
0.0
 45
0.0
 46
0.0
 47
0.0
 48
0.0
 49
0.0
140
0.0
141
0.0
142
1.0
143
1.0
 70
   688
 72
     0
 73
     0
 74
     5
  7

 75
    16
147
1.0
 76
     0
 77
     2
 78
   300
148
0.0
149
0.0
100
AcDbLayout
  1
Presentacin2
 70
     1
 71
     2
 10
0.0
 20
0.0
 11
12.0
 21
9.0
 12
0.0
 22
0.0
 32
0.0
 14
0.0
 24
0.0
 34
0.0
 15
0.0
 25
0.0
 35
0.0
146
0.0
 13
0.0
 23
0.0
 33
0.0
 16
1.0
 26
0.0
 36
0.0
 17
0.0
 27
1.0
 37
0.0
 76
     0
330
D6
  0
MATERIAL
  5
ED
102
{ACAD_XDICTIONARY
360
889
102
}
102
{ACAD_REACTORS
330
6A
102
}
330
6A
100
AcDbMaterial
  1
ByBlock
  0
MATERIAL
  5
EC
102
{ACAD_XDICTIONARY
360
887
102
}
102
{ACAD_REACTORS
330
6A
102
}
330
6A
100
AcDbMaterial
  1
ByLayer
  0
MATERIAL
  5
EE
102
{ACAD_XDICTIONARY
360
173
102
}
102
{ACAD_REACTORS
330
6A
102
}
330
6A
100
AcDbMaterial
  1
Global
 43
0.0007999999797903
 43
0.0
 43
0.0
 43
0.0
 43
0.0
 43
0.0007999999797903
 43
0.0
 43
0.0
 43
0.0
 43
0.0
 43
1.0
 43
0.0
 43
0.0
 43
0.0
 43
0.0
 43
1.0
 49
0.0007999999797903
 49
0.0
 49
0.0
 49
0.0
 49
0.0
 49
0.0007999999797903
 49
0.0
 49
0.0
 49
0.0
 49
0.0
 49
1.0
 49
0.0
 49
0.0
 49
0.0
 49
0.0
 49
1.0
142
0.0007999999797903
142
0.0
142
0.0
142
0.0
142
0.0
142
0.0007999999797903
142
0.0
142
0.0
142
0.0
142
0.0
142
1.0
142
0.0
142
0.0
142
0.0
142
0.0
142
1.0
144
0.0007999999797903
144
0.0
144
0.0
144
0.0
144
0.0
144
0.0007999999797903
144
0.0
144
0.0
144
0.0
144
0.0
144
1.0
144
0.0
144
0.0
144
0.0
144
0.0
144
1.0
1001
ACAD
1070
    -1
1070
     3
1070
     0
1000

1071
        0
1070
     0
  0
MLEADERSTYLE
  5
13B
102
{ACAD_REACTORS
330
12D
102
}
330
12D
100
AcDbMLeaderStyle
170
     2
171
     1
172
     0
 90
        2
 40
0.0
 41
0.0
173
     1
 91
-1056964608
340
14
 92
       -2
290
     1
 42
2.0
291
     1
 43
8.0
  3
Standard
 44
4.0
300

342
11
174
     1
178
     1
175
     1
176
     0
 93
-1056964608
 45
4.0
292
     0
297
     0
 46
4.0
 94
-1056964608
 47
1.0
 49
1.0
140
1.0
293
     1
141
0.0
294
     1
177
     0
142
1.0
295
     0
296
     1
143
3.75
1001
ACAD_MLEADERVER
1070
     2
  0
MLEADERSTYLE
  5
12E
102
{ACAD_REACTORS
330
12D
102
}
330
12D
100
AcDbMLeaderStyle
170
     2
171
     1
172
     0
 90
        2
 40
0.0
 41
0.0
173
     1
 91
-1056964608
340
14
 92
       -2
290
     1
 42
2.0
291
     1
 43
8.0
  3
Standard
 44
4.0
300

342
11
174
     1
178
     1
175
     1
176
     0
 93
-1056964608
 45
4.0
292
     0
297
     0
 46
4.0
 94
-1056964608
 47
1.0
 49
1.0
140
1.0
293
     1
141
0.0
294
     1
177
     0
142
1.0
295
     0
296
     0
143
3.75
1001
ACAD_MLEADERVER
1070
     2
  0
MLINESTYLE
  5
18
102
{ACAD_REACTORS
330
17
102
}
330
17
100
AcDbMlineStyle
  2
STANDARD
 70
     0
  3

 62
   256
 51
90.0
 52
90.0
 71
     2
 49
0.5
 62
   256
  6
BYLAYER
 49
-0.5
 62
   256
  6
BYLAYER
  0
ACDBPLACEHOLDER
  5
F
102
{ACAD_REACTORS
330
E
102
}
330
E
  0
SCALE
  5
10D
102
{ACAD_REACTORS
330
10C
102
}
330
10C
100
AcDbScale
 70
     0
300
1:1
140
1.0
141
1.0
290
     1
  0
SCALE
  5
1BE
102
{ACAD_REACTORS
330
10C
102
}
330
10C
100
AcDbScale
 70
     0
300
1:2
140
1.0
141
2.0
290
     0
  0
SCALE
  5
1BF
102
{ACAD_REACTORS
330
10C
102
}
330
10C
100
AcDbScale
 70
     0
300
1:4
140
1.0
141
4.0
290
     0
  0
SCALE
  5
1C0
102
{ACAD_REACTORS
330
10C
102
}
330
10C
100
AcDbScale
 70
     0
300
1:5
140
1.0
141
5.0
290
     0
  0
SCALE
  5
1C1
102
{ACAD_REACTORS
330
10C
102
}
330
10C
100
AcDbScale
 70
     0
300
1:8
140
1.0
141
8.0
290
     0
  0
SCALE
  5
1C2
102
{ACAD_REACTORS
330
10C
102
}
330
10C
100
AcDbScale
 70
     0
300
1:10
140
1.0
141
10.0
290
     0
  0
SCALE
  5
1C3
102
{ACAD_REACTORS
330
10C
102
}
330
10C
100
AcDbScale
 70
     0
300
1:16
140
1.0
141
16.0
290
     0
  0
SCALE
  5
1C4
102
{ACAD_REACTORS
330
10C
102
}
330
10C
100
AcDbScale
 70
     0
300
1:20
140
1.0
141
20.0
290
     0
  0
SCALE
  5
1C5
102
{ACAD_REACTORS
330
10C
102
}
330
10C
100
AcDbScale
 70
     0
300
1:30
140
1.0
141
30.0
290
     0
  0
SCALE
  5
1C6
102
{ACAD_REACTORS
330
10C
102
}
330
10C
100
AcDbScale
 70
     0
300
1:40
140
1.0
141
40.0
290
     0
  0
SCALE
  5
1C7
102
{ACAD_REACTORS
330
10C
102
}
330
10C
100
AcDbScale
 70
     0
300
1:50
140
1.0
141
50.0
290
     0
  0
SCALE
  5
1C8
102
{ACAD_REACTORS
330
10C
102
}
330
10C
100
AcDbScale
 70
     0
300
1:100
140
1.0
141
100.0
290
     0
  0
SCALE
  5
1C9
102
{ACAD_REACTORS
330
10C
102
}
330
10C
100
AcDbScale
 70
     0
300
2:1
140
2.0
141
1.0
290
     0
  0
SCALE
  5
1CA
102
{ACAD_REACTORS
330
10C
102
}
330
10C
100
AcDbScale
 70
     0
300
4:1
140
4.0
141
1.0
290
     0
  0
SCALE
  5
1CB
102
{ACAD_REACTORS
330
10C
102
}
330
10C
100
AcDbScale
 70
     0
300
8:1
140
8.0
141
1.0
290
     0
  0
SCALE
  5
1CC
102
{ACAD_REACTORS
330
10C
102
}
330
10C
100
AcDbScale
 70
     0
300
10:1
140
10.0
141
1.0
290
     0
  0
SCALE
  5
1CD
102
{ACAD_REACTORS
330
10C
102
}
330
10C
100
AcDbScale
 70
     0
300
100:1
140
100.0
141
1.0
290
     0
  0
TABLESTYLE
  5
7F
102
{ACAD_XDICTIONARY
360
162
102
}
102
{ACAD_REACTORS
330
7E
102
}
330
7E
100
AcDbTableStyle
  3
Standard
 70
     0
 71
     0
 40
1.5
 41
1.5
280
     0
281
     0
  7
Standard
140
4.5
170
     2
 62
     0
 63
     7
283
     0
274
    -2
284
     1
 64
     0
275
    -2
285
     1
 65
     0
276
    -2
286
     1
 66
     0
277
    -2
287
     1
 67
     0
278
    -2
288
     1
 68
     0
279
    -2
289
     1
 69
     0
  7
Standard
140
6.0
170
     5
 62
     0
 63
     7
283
     0
274
    -2
284
     1
 64
     0
275
    -2
285
     1
 65
     0
276
    -2
286
     1
 66
     0
277
    -2
287
     1
 67
     0
278
    -2
288
     1
 68
     0
279
    -2
289
     1
 69
     0
  7
Standard
140
4.5
170
     5
 62
     0
 63
     7
283
     0
274
    -2
284
     1
 64
     0
275
    -2
285
     1
 65
     0
276
    -2
286
     1
 66
     0
277
    -2
287
     1
 67
     0
278
    -2
288
     1
 68
     0
279
    -2
289
     1
 69
     0
  0
VISUALSTYLE
  5
F5
102
{ACAD_REACTORS
330
EF
102
}
330
EF
100
AcDbVisualStyle
  2
2dWireframe
 70
     4
 71
     0
 72
     2
 73
     1
 90
        0
 40
-0.6
 41
-30.0
 62
     5
 63
     7
421
 16777215
 74
     1
 91
        4
 64
     7
 65
   257
 75
     1
175
     1
 42
1.0
 92
        0
 66
   257
 43
1.0
 76
     1
 77
     6
 78
     2
 67
     7
 79
     5
170
     0
171
     0
290
     0
174
     0
 93
        1
 44
0.0
173
     0
291
     0
 45
0.0
1001
ACAD
1000
AcDbSavedByObjectVersion
1070
     0
  0
VISUALSTYLE
  5
F7
102
{ACAD_REACTORS
330
EF
102
}
330
EF
100
AcDbVisualStyle
  2
3D Hidden
 70
     6
 71
     1
 72
     2
 73
     2
 90
        0
 40
-0.6
 41
-30.0
 62
     5
 63
     7
421
 16777215
 74
     2
 91
        2
 64
     7
 65
   257
 75
     2
175
     1
 42
40.0
 92
        0
 66
   257
 43
1.0
 76
     1
 77
     6
 78
     2
 67
     7
 79
     3
170
     0
171
     0
290
     0
174
     0
 93
        1
 44
0.0
173
     0
291
     0
 45
0.0
1001
ACAD
1000
AcDbSavedByObjectVersion
1070
     0
  0
VISUALSTYLE
  5
F6
102
{ACAD_REACTORS
330
EF
102
}
330
EF
100
AcDbVisualStyle
  2
3dWireframe
 70
     5
 71
     0
 72
     2
 73
     1
 90
        0
 40
-0.6
 41
-30.0
 62
     5
 63
     7
421
 16777215
 74
     1
 91
        4
 64
     7
 65
   257
 75
     1
175
     1
 42
1.0
 92
        0
 66
   257
 43
1.0
 76
     1
 77
     6
 78
     2
 67
     7
 79
     5
170
     0
171
     0
290
     0
174
     0
 93
        1
 44
0.0
173
     0
291
     0
 45
0.0
1001
ACAD
1000
AcDbSavedByObjectVersion
1070
     0
  0
VISUALSTYLE
  5
F4
102
{ACAD_REACTORS
330
EF
102
}
330
EF
100
AcDbVisualStyle
  2
Basic
 70
     7
 71
     1
 72
     0
 73
     1
 90
        0
 40
-0.6
 41
-30.0
 62
     5
 63
     7
421
 16777215
 74
     0
 91
        4
 64
     7
 65
   257
 75
     1
175
     1
 42
1.0
 92
        8
 66
     7
 43
1.0
 76
     1
 77
     6
 78
     2
 67
     7
 79
     5
170
     0
171
     0
290
     0
174
     0
 93
        1
 44
0.0
173
     0
291
     1
 45
0.0
1001
ACAD
1000
AcDbSavedByObjectVersion
1070
     0
  0
VISUALSTYLE
  5
FB
102
{ACAD_REACTORS
330
EF
102
}
330
EF
100
AcDbVisualStyle
  2
Brighten
 70
    12
 71
     2
 72
     2
 73
     1
 90
        0
 40
-0.6
 41
-30.0
 62
     5
 63
     7
421
 16777215
 74
     1
 91
        4
 64
     7
 65
   257
 75
     1
175
     1
 42
1.0
 92
        8
 66
     7
 43
1.0
 76
     1
 77
     6
 78
     2
 67
     7
 79
     5
170
     0
171
     0
290
     0
174
     0
 93
        1
 44
50.0
173
     0
291
     1
 45
0.0
1001
ACAD
1000
AcDbSavedByObjectVersion
1070
     0
  0
VISUALSTYLE
  5
FF
102
{ACAD_REACTORS
330
EF
102
}
330
EF
100
AcDbVisualStyle
  2
ColorChange
 70
    16
 71
     2
 72
     2
 73
     3
 90
        0
 40
-0.6
 41
-30.0
 62
     5
 63
     8
421
  8421504
 74
     1
 91
        4
 64
     7
 65
   257
 75
     1
175
     1
 42
1.0
 92
        8
 66
     8
424
  8421504
 43
1.0
 76
     1
 77
     6
 78
     2
 67
     7
 79
     5
170
     0
171
     0
290
     0
174
     0
 93
        1
 44
0.0
173
     0
291
     1
 45
0.0
1001
ACAD
1000
AcDbSavedByObjectVersion
1070
     0
  0
VISUALSTYLE
  5
F8
102
{ACAD_REACTORS
330
EF
102
}
330
EF
100
AcDbVisualStyle
  2
Conceptual
 70
     9
 71
     3
 72
     2
 73
     1
 90
        0
 40
-0.6
 41
-30.0
 62
     5
 63
     7
421
 16777215
 74
     2
 91
        2
 64
     7
 65
   257
 75
     1
175
     1
 42
40.0
 92
        8
 66
     7
 43
1.0
 76
     1
 77
     6
 78
     2
 67
     7
 79
     3
170
     0
171
     0
290
     0
174
     0
 93
        1
 44
0.0
173
     0
291
     0
 45
0.0
1001
ACAD
1000
AcDbSavedByObjectVersion
1070
     0
  0
VISUALSTYLE
  5
FA
102
{ACAD_REACTORS
330
EF
102
}
330
EF
100
AcDbVisualStyle
  2
Dim
 70
    11
 71
     2
 72
     2
 73
     1
 90
        0
 40
-0.6
 41
-30.0
 62
     5
 63
     7
421
 16777215
 74
     1
 91
        4
 64
     7
 65
   257
 75
     1
175
     1
 42
1.0
 92
        8
 66
     7
 43
1.0
 76
     1
 77
     6
 78
     2
 67
     7
 79
     5
170
     0
171
     0
290
     0
174
     0
 93
        1
 44
-50.0
173
     0
291
     1
 45
0.0
1001
ACAD
1000
AcDbSavedByObjectVersion
1070
     0
  0
VISUALSTYLE
  5
FE
102
{ACAD_REACTORS
330
EF
102
}
330
EF
100
AcDbVisualStyle
  2
Facepattern
 70
    15
 71
     2
 72
     2
 73
     1
 90
        0
 40
-0.6
 41
-30.0
 62
     5
 63
     7
421
 16777215
 74
     1
 91
        4
 64
     7
 65
   257
 75
     1
175
     1
 42
1.0
 92
        8
 66
     7
 43
1.0
 76
     1
 77
     6
 78
     2
 67
     7
 79
     5
170
     0
171
     0
290
     0
174
     0
 93
        1
 44
0.0
173
     0
291
     1
 45
0.0
1001
ACAD
1000
AcDbSavedByObjectVersion
1070
     0
  0
VISUALSTYLE
  5
F0
102
{ACAD_REACTORS
330
EF
102
}
330
EF
100
AcDbVisualStyle
  2
Flat
 70
     0
 71
     2
 72
     1
 73
     1
 90
        2
 40
-0.6
 41
30.0
 62
     5
 63
     7
421
 16777215
 74
     0
 91
        4
 64
     7
 65
   257
 75
     1
175
     1
 42
1.0
 92
        8
 66
     7
 43
1.0
 76
     1
 77
     6
 78
     2
 67
     7
 79
     5
170
     0
171
     0
290
     0
174
     0
 93
        1
 44
0.0
173
     0
291
     1
 45
0.0
1001
ACAD
1000
AcDbSavedByObjectVersion
1070
     0
  0
VISUALSTYLE
  5
F1
102
{ACAD_REACTORS
330
EF
102
}
330
EF
100
AcDbVisualStyle
  2
FlatWithEdges
 70
     1
 71
     2
 72
     1
 73
     1
 90
        2
 40
-0.6
 41
30.0
 62
     5
 63
     7
421
 16777215
 74
     1
 91
        4
 64
     7
 65
   257
 75
     1
175
     1
 42
1.0
 92
        0
 66
   257
 43
1.0
 76
     1
 77
     6
 78
     2
 67
     7
 79
     5
170
     0
171
     0
290
     0
174
     0
 93
        1
 44
0.0
173
     0
291
     1
 45
0.0
1001
ACAD
1000
AcDbSavedByObjectVersion
1070
     0
  0
VISUALSTYLE
  5
F2
102
{ACAD_REACTORS
330
EF
102
}
330
EF
100
AcDbVisualStyle
  2
Gouraud
 70
     2
 71
     2
 72
     2
 73
     1
 90
        2
 40
-0.6
 41
30.0
 62
     5
 63
     7
421
 16777215
 74
     0
 91
        4
 64
     7
 65
   257
 75
     1
175
     1
 42
1.0
 92
        0
 66
     7
 43
1.0
 76
     1
 77
     6
 78
     2
 67
     7
 79
     5
170
     0
171
     0
290
     0
174
     0
 93
        1
 44
0.0
173
     0
291
     1
 45
0.0
1001
ACAD
1000
AcDbSavedByObjectVersion
1070
     0
  0
VISUALSTYLE
  5
F3
102
{ACAD_REACTORS
330
EF
102
}
330
EF
100
AcDbVisualStyle
  2
GouraudWithEdges
 70
     3
 71
     2
 72
     2
 73
     1
 90
        2
 40
-0.6
 41
30.0
 62
     5
 63
     7
421
 16777215
 74
     1
 91
        4
 64
     7
 65
   257
 75
     1
175
     1
 42
1.0
 92
        0
 66
   257
 43
1.0
 76
     1
 77
     6
 78
     2
 67
     7
 79
     5
170
     0
171
     0
290
     0
174
     0
 93
        1
 44
0.0
173
     0
291
     1
 45
0.0
1001
ACAD
1000
AcDbSavedByObjectVersion
1070
     0
  0
VISUALSTYLE
  5
FD
102
{ACAD_REACTORS
330
EF
102
}
330
EF
100
AcDbVisualStyle
  2
Linepattern
 70
    14
 71
     2
 72
     2
 73
     1
 90
        0
 40
-0.6
 41
-30.0
 62
     5
 63
     7
421
 16777215
 74
     1
 91
        4
 64
     7
 65
   257
 75
     7
175
     7
 42
1.0
 92
        8
 66
     7
 43
1.0
 76
     1
 77
     6
 78
     2
 67
     7
 79
     5
170
     0
171
     0
290
     0
174
     0
 93
        1
 44
0.0
173
     0
291
     1
 45
0.0
1001
ACAD
1000
AcDbSavedByObjectVersion
1070
     0
  0
VISUALSTYLE
  5
F9
102
{ACAD_REACTORS
330
EF
102
}
330
EF
100
AcDbVisualStyle
  2
Realistic
 70
     8
 71
     2
 72
     2
 73
     1
 90
        0
 40
-0.6
 41
-30.0
 62
     5
 63
     7
421
 16777215
 74
     1
 91
        0
 64
     7
 65
   257
 75
     1
175
     1
 42
1.0
 92
        8
 66
     8
424
  7895160
 43
1.0
 76
     1
 77
     6
 78
     2
 67
     7
 79
     5
170
     0
171
     0
290
     0
174
     0
 93
       13
 44
0.0
173
     0
291
     0
 45
0.0
1001
ACAD
1000
AcDbSavedByObjectVersion
1070
     0
  0
VISUALSTYLE
  5
FC
102
{ACAD_REACTORS
330
EF
102
}
330
EF
100
AcDbVisualStyle
  2
Thicken
 70
    13
 71
     2
 72
     2
 73
     1
 90
        0
 40
-0.6
 41
-30.0
 62
     5
 63
     7
421
 16777215
 74
     1
 91
        4
 64
     7
 65
   257
 75
     1
175
     1
 42
1.0
 92
       12
 66
     7
 43
1.0
 76
     1
 77
     6
 78
     2
 67
     7
 79
     5
170
     0
171
     0
290
     0
174
     0
 93
        1
 44
0.0
173
     0
291
     1
 45
0.0
1001
ACAD
1000
AcDbSavedByObjectVersion
1070
     0
  0
DICTIONARYVAR
  5
146
102
{ACAD_REACTORS
330
5E
102
}
330
5E
100
DictionaryVariables
280
     0
  1
1:1
  0
DICTIONARYVAR
  5
145
102
{ACAD_REACTORS
330
5E
102
}
330
5E
100
DictionaryVariables
280
     0
  1
STANDARD
  0
DICTIONARYVAR
  5
84
102
{ACAD_REACTORS
330
5E
102
}
330
5E
100
DictionaryVariables
280
     0
  1
STANDARD
  0
DICTIONARYVAR
  5
5F
102
{ACAD_REACTORS
330
5E
102
}
330
5E
100
DictionaryVariables
280
     0
  1
2
  0
DICTIONARYVAR
  5
63
102
{ACAD_REACTORS
330
5E
102
}
330
5E
100
DictionaryVariables
280
     0
  1
1
  0
DICTIONARYVAR
  5
1AE
102
{ACAD_REACTORS
330
5E
102
}
330
5E
100
DictionaryVariables
280
     0
  1
0
  0
DICTIONARYVAR
  5
1AF
102
{ACAD_REACTORS
330
5E
102
}
330
5E
100
DictionaryVariables
280
     0
  1
0
  0
DICTIONARYVAR
  5
882
102
{ACAD_REACTORS
330
5E
102
}
330
5E
100
DictionaryVariables
280
     0
  1
2
  0
DICTIONARYVAR
  5
881
102
{ACAD_REACTORS
330
5E
102
}
330
5E
100
DictionaryVariables
280
     0
  1
1
  0
DICTIONARYVAR
  5
884
102
{ACAD_REACTORS
330
5E
102
}
330
5E
100
DictionaryVariables
280
     0
  1
80.000000
  0
DICTIONARYVAR
  5
883
102
{ACAD_REACTORS
330
5E
102
}
330
5E
100
DictionaryVariables
280
     0
  1
5.000000
  0
DICTIONARY
  5
889
330
ED
100
AcDbDictionary
280
     1
281
     1
  3
ACAD_XREC_ROUNDTRIP
360
88A
  0
DICTIONARY
  5
887
330
EC
100
AcDbDictionary
280
     1
281
     1
  3
ACAD_XREC_ROUNDTRIP
360
888
  0
DICTIONARY
  5
173
330
EE
100
AcDbDictionary
280
     1
281
     1
  3
ACAD_XREC_ROUNDTRIP
360
88B
  3
BUMPTILE
360
175
  3
DIFFUSETILE
360
174
  3
OPACITYTILE
360
176
  3
REFLECTIONTILE
360
177
  0
DICTIONARY
  5
162
330
7F
100
AcDbDictionary
280
     1
281
     1
  3
ACAD_ROUNDTRIP_2008_TABLESTYLE_CELLSTYLEMAP
360
885
  3
ACAD_XREC_ROUNDTRIP
360
886
  0
XRECORD
  5
88A
102
{ACAD_REACTORS
330
889
102
}
330
889
100
AcDbXrecord
280
     1
102
MATERIAL
148
0.0
149
0.0
149
0.0
 93
        0
 94
       63
282
     0
 72
     1
 77
     1
171
     1
175
     1
179
     1
273
     0
  0
XRECORD
  5
888
102
{ACAD_REACTORS
330
887
102
}
330
887
100
AcDbXrecord
280
     1
102
MATERIAL
148
0.0
149
0.0
149
0.0
 93
        0
 94
       63
282
     0
 72
     1
 77
     1
171
     1
175
     1
179
     1
273
     0
  0
XRECORD
  5
88B
102
{ACAD_REACTORS
330
173
102
}
330
173
100
AcDbXrecord
280
     1
102
MATERIAL
148
0.0
149
0.0
149
0.0
 93
        0
 94
       63
282
     0
 72
     1
 77
     1
171
     1
175
     1
179
     1
273
     0
  0
XRECORD
  5
175
102
{ACAD_REACTORS
330
173
102
}
330
173
100
AcDbXrecord
280
     1
270
     1
271
     1
  0
XRECORD
  5
174
102
{ACAD_REACTORS
330
173
102
}
330
173
100
AcDbXrecord
280
     1
270
     1
271
     1
  0
XRECORD
  5
176
102
{ACAD_REACTORS
330
173
102
}
330
173
100
AcDbXrecord
280
     1
270
     1
271
     1
  0
XRECORD
  5
177
102
{ACAD_REACTORS
330
173
102
}
330
173
100
AcDbXrecord
280
     1
270
     1
271
     1
  0
CELLSTYLEMAP
  5
885
102
{ACAD_REACTORS
330
162
102
}
330
162
100
AcDbCellStyleMap
 90
        3
300
CELLSTYLE
  1
TABLEFORMAT_BEGIN
 90
        5
170
     1
 91
        0
 92
    32768
 62
   257
 93
        1
300
CONTENTFORMAT
  1
CONTENTFORMAT_BEGIN
 90
        0
 91
        0
 92
      512
 93
        0
300

 40
0.0
140
1.0
 94
        5
 62
     0
340
11
144
6.0
309
CONTENTFORMAT_END
171
     1
301
MARGIN
  1
CELLMARGIN_BEGIN
 40
1.5
 40
1.5
 40
1.5
 40
1.5
 40
4.5
 40
4.5
309
CELLMARGIN_END
 94
        6
 95
        1
302
GRIDFORMAT
  1
GRIDFORMAT_BEGIN
 90
        0
 91
        1
 62
     0
 92
       -2
340
14
 93
        0
 40
1.125
309
GRIDFORMAT_END
 95
        2
302
GRIDFORMAT
  1
GRIDFORMAT_BEGIN
 90
        0
 91
        1
 62
     0
 92
       -2
340
14
 93
        0
 40
1.125
309
GRIDFORMAT_END
 95
        4
302
GRIDFORMAT
  1
GRIDFORMAT_BEGIN
 90
        0
 91
        1
 62
     0
 92
       -2
340
14
 93
        0
 40
1.125
309
GRIDFORMAT_END
 95
        8
302
GRIDFORMAT
  1
GRIDFORMAT_BEGIN
 90
        0
 91
        1
 62
     0
 92
       -2
340
14
 93
        0
 40
1.125
309
GRIDFORMAT_END
 95
       16
302
GRIDFORMAT
  1
GRIDFORMAT_BEGIN
 90
        0
 91
        1
 62
     0
 92
       -2
340
14
 93
        0
 40
1.125
309
GRIDFORMAT_END
 95
       32
302
GRIDFORMAT
  1
GRIDFORMAT_BEGIN
 90
        0
 91
        1
 62
     0
 92
       -2
340
14
 93
        0
 40
1.125
309
GRIDFORMAT_END
309
TABLEFORMAT_END
  1
CELLSTYLE_BEGIN
 90
        1
 91
        1
300
_TITLE
309
CELLSTYLE_END
300
CELLSTYLE
  1
TABLEFORMAT_BEGIN
 90
        5
170
     1
 91
        0
 92
        0
 62
   257
 93
        1
300
CONTENTFORMAT
  1
CONTENTFORMAT_BEGIN
 90
        0
 91
        0
 92
      512
 93
        0
300

 40
0.0
140
1.0
 94
        5
 62
     0
340
11
144
4.5
309
CONTENTFORMAT_END
171
     1
301
MARGIN
  1
CELLMARGIN_BEGIN
 40
1.5
 40
1.5
 40
1.5
 40
1.5
 40
4.5
 40
4.5
309
CELLMARGIN_END
 94
        6
 95
        1
302
GRIDFORMAT
  1
GRIDFORMAT_BEGIN
 90
        0
 91
        1
 62
     0
 92
       -2
340
14
 93
        0
 40
1.125
309
GRIDFORMAT_END
 95
        2
302
GRIDFORMAT
  1
GRIDFORMAT_BEGIN
 90
        0
 91
        1
 62
     0
 92
       -2
340
14
 93
        0
 40
1.125
309
GRIDFORMAT_END
 95
        4
302
GRIDFORMAT
  1
GRIDFORMAT_BEGIN
 90
        0
 91
        1
 62
     0
 92
       -2
340
14
 93
        0
 40
1.125
309
GRIDFORMAT_END
 95
        8
302
GRIDFORMAT
  1
GRIDFORMAT_BEGIN
 90
        0
 91
        1
 62
     0
 92
       -2
340
14
 93
        0
 40
1.125
309
GRIDFORMAT_END
 95
       16
302
GRIDFORMAT
  1
GRIDFORMAT_BEGIN
 90
        0
 91
        1
 62
     0
 92
       -2
340
14
 93
        0
 40
1.125
309
GRIDFORMAT_END
 95
       32
302
GRIDFORMAT
  1
GRIDFORMAT_BEGIN
 90
        0
 91
        1
 62
     0
 92
       -2
340
14
 93
        0
 40
1.125
309
GRIDFORMAT_END
309
TABLEFORMAT_END
  1
CELLSTYLE_BEGIN
 90
        2
 91
        1
300
_HEADER
309
CELLSTYLE_END
300
CELLSTYLE
  1
TABLEFORMAT_BEGIN
 90
        5
170
     1
 91
        0
 92
        0
 62
   257
 93
        1
300
CONTENTFORMAT
  1
CONTENTFORMAT_BEGIN
 90
        0
 91
        0
 92
      512
 93
        0
300

 40
0.0
140
1.0
 94
        2
 62
     0
340
11
144
4.5
309
CONTENTFORMAT_END
171
     1
301
MARGIN
  1
CELLMARGIN_BEGIN
 40
1.5
 40
1.5
 40
1.5
 40
1.5
 40
4.5
 40
4.5
309
CELLMARGIN_END
 94
        6
 95
        1
302
GRIDFORMAT
  1
GRIDFORMAT_BEGIN
 90
        0
 91
        1
 62
     0
 92
       -2
340
14
 93
        0
 40
1.125
309
GRIDFORMAT_END
 95
        2
302
GRIDFORMAT
  1
GRIDFORMAT_BEGIN
 90
        0
 91
        1
 62
     0
 92
       -2
340
14
 93
        0
 40
1.125
309
GRIDFORMAT_END
 95
        4
302
GRIDFORMAT
  1
GRIDFORMAT_BEGIN
 90
        0
 91
        1
 62
     0
 92
       -2
340
14
 93
        0
 40
1.125
309
GRIDFORMAT_END
 95
        8
302
GRIDFORMAT
  1
GRIDFORMAT_BEGIN
 90
        0
 91
        1
 62
     0
 92
       -2
340
14
 93
        0
 40
1.125
309
GRIDFORMAT_END
 95
       16
302
GRIDFORMAT
  1
GRIDFORMAT_BEGIN
 90
        0
 91
        1
 62
     0
 92
       -2
340
14
 93
        0
 40
1.125
309
GRIDFORMAT_END
 95
       32
302
GRIDFORMAT
  1
GRIDFORMAT_BEGIN
 90
        0
 91
        1
 62
     0
 92
       -2
340
14
 93
        0
 40
1.125
309
GRIDFORMAT_END
309
TABLEFORMAT_END
  1
CELLSTYLE_BEGIN
 90
        3
 91
        2
300
_DATA
309
CELLSTYLE_END
  0
XRECORD
  5
886
102
{ACAD_REACTORS
330
162
102
}
330
162
100
AcDbXrecord
280
     1
102
ACAD_ROUNDTRIP_PRE2007_TABLESTYLE
 90
      512
 91
        0
  1

 92
      512
 93
        0
  2

 94
      512
 95
        0
  3

  0
ENDSEC
  0
EOF
